<svg width="196" height="196" viewBox="0 0 196 196" fill="none" xmlns="http://www.w3.org/2000/svg">
<path d="M49.9319 40.1056C35.9934 33.2949 21.7648 35.8861 16.3928 38.0331C14.2407 38.7403 14.4801 45.8215 14.8688 49.2737C13.8075 65.5343 22.6242 82.2493 27.1652 88.5742C37.0102 105.903 73.7562 136.087 90.8985 149.013C126.826 167.9 155.863 162.89 165.891 158.024C187.185 147.122 181.432 139.428 175.894 136.944C172.677 135.372 163.785 124.369 159.741 119.063C157.559 112.671 146.938 96.3833 141.9 89.0387C123.181 55.6552 97.6587 46.4472 87.2377 46.0161C81.4703 46.3941 59.9641 42.2332 49.9319 40.1056Z" fill="#9A3F46"/>
<path d="M55.5009 65.2338L54.3279 67.6911L54.0309 69.8303L59.659 66.1083L65.7749 60.0454L67.7653 55.304L64.9115 55.2806L63.0181 56.6747L59.8389 60.0373L55.5009 65.2338Z" fill="#A84950"/>
<path d="M110.756 80.9101L109.897 82.882L109.751 84.6327L114.248 81.8267L119.041 77.1127L120.471 73.2951L118.1 73.1418L116.594 74.2029L114.113 76.8273L110.756 80.9101Z" fill="#A84950"/>
<path d="M58.36 87.3155L56.5024 90.8492L55.8852 93.8554L64.0177 88.1303L73.0503 79.0998L76.2578 72.308L72.3191 72.5516L69.5695 74.6752L64.8536 79.663L58.36 87.3155Z" fill="#A84950"/>
</svg>
