<svg width="103" height="197" viewBox="0 0 103 197" fill="none" xmlns="http://www.w3.org/2000/svg">
<path d="M41.8787 44.0441C40.3274 42.6517 27.5234 33.816 24.4212 32.7008C14.3475 31.8497 7.05422 59.412 4.67259 65.4395C2.29096 71.4671 6.76377 101.365 6.79559 109.842C6.8274 118.32 4.94119 149.739 27.1301 171.496C38.5393 182.684 61.2158 193.797 61.2158 193.797C61.2158 193.797 69.2286 196.421 76.3507 195.916C82.9217 195.45 89.5115 190.198 92.4169 187.706C109.714 164.579 100.395 150.248 90.3778 137.66C90.3778 137.66 71.4266 123.421 61.0285 103.914C56.0912 94.6511 54.034 86.3176 52.9318 83.981C51.8296 81.6443 49.4366 67.7316 48.6276 63.492C47.8186 59.2523 46.3357 51.9197 45.7684 50.5281C45.2011 49.1366 43.8179 45.7845 41.8787 44.0441Z" fill="#5753B4"/>
<path d="M47.9416 57.1113C48.6582 62.3832 53.4026 70.5358 55.6851 73.9532L50.9299 73.2875L42.3067 65.6158L36.0613 58.2769L35.4396 78.594L32.4557 84.0349L26.1705 72.65L20.4598 54.2748L14.8365 46.821L10.5571 64.4038L1.8512 77.5287L0.26609 77.3068L2.98834 69.405L3.40793 47.6455L10.5802 32.4878L16.4647 22.2003L21.2433 1.05121L31.0155 4.8433L30.7901 25.2158L44.4184 41.8709C45.2942 44.7544 47.225 51.8395 47.9416 57.1113Z" fill="#6EB345"/>
<path d="M47.0356 31.2441C46.9603 31.2159 46.9195 31.1426 46.9585 31.0586L47.1189 30.6842C47.1579 30.6003 47.2291 30.579 47.313 30.618C50.1143 31.8791 51.311 31.4557 53.1027 30.0301L53.2322 29.927L51.7121 28.0166C51.6606 27.9519 51.6694 27.8743 51.7342 27.8228L52.0795 27.548C52.1443 27.4965 52.2218 27.5053 52.2734 27.57L55.8288 32.0385C55.8803 32.1032 55.8715 32.1808 55.8068 32.2323L55.4614 32.5071C55.3966 32.5586 55.3191 32.5498 55.2676 32.485L53.7045 30.5207L53.4887 30.6924C52.4417 31.5255 51.6133 31.9907 50.6695 32.0895L52.011 32.2912L51.8217 36.2845C51.8107 36.3814 51.7373 36.4221 51.6404 36.4111L51.1883 36.3302C51.1215 36.3128 51.07 36.248 51.068 36.1791L51.1674 32.8038C51.1767 32.5497 51.0329 32.3468 50.7444 32.2943C48.701 31.9637 48.0018 31.6387 47.0356 31.2441ZM50.2207 39.7441L58.089 33.4834C58.1645 33.4233 58.2614 33.4343 58.3216 33.5098L58.5878 33.8444C58.6479 33.92 58.6369 34.0169 58.5613 34.077L50.693 40.3377C50.6175 40.3978 50.5206 40.3868 50.4604 40.3112L50.1942 39.9766C50.1341 39.9011 50.1451 39.8042 50.2207 39.7441Z" fill="white"/>
<path d="M38.6543 21.5061C38.5826 21.44 38.5711 21.3604 38.6285 21.278L38.8902 20.9223C38.9476 20.8399 39.0573 20.8217 39.1377 20.8985C41.565 22.9594 43.7337 23.1313 44.9953 22.103L45.6902 21.5366C45.9682 21.31 45.9385 21.1207 45.8078 20.9603L43.359 17.956C43.298 17.8812 43.3078 17.7842 43.3827 17.7232L43.682 17.4792C43.7569 17.4182 43.8539 17.428 43.9149 17.5029L46.9737 21.2556C47.0347 21.3304 47.0248 21.4274 46.95 21.4884L45.4425 22.7172C43.6784 24.1551 40.9013 23.4114 38.6543 21.5061ZM41.4983 29.0996L49.2924 22.7466C49.3672 22.6856 49.4642 22.6955 49.5252 22.7704L49.7954 23.1018C49.8564 23.1766 49.8465 23.2737 49.7717 23.3347L46.6818 25.8532L47.8094 25.9484L48.7854 27.1459C48.8464 27.2207 48.8365 27.3177 48.7617 27.3787L48.4623 27.6227C48.3875 27.6837 48.2904 27.6739 48.2294 27.599L47.2534 26.4016C46.9745 26.0595 46.4894 26.01 46.158 26.2802L41.9776 29.6876C41.9028 29.7486 41.8058 29.7387 41.7448 29.6639L41.4746 29.3324C41.4136 29.2576 41.4235 29.1606 41.4983 29.0996Z" fill="white"/>
</svg>
