<svg width="141" height="121" viewBox="0 0 141 121" fill="none" xmlns="http://www.w3.org/2000/svg">
<path d="M30.8454 16.1472C19.2739 10.4931 7.46154 12.6443 3.00178 14.4266C1.21513 15.0138 1.41388 20.8925 1.73659 23.7584C0.855513 37.2577 8.17501 51.1342 11.9449 56.3851C20.1181 70.7708 50.6239 95.8294 64.8552 106.56C94.6818 122.24 118.788 118.081 127.113 114.041C144.791 104.99 140.015 98.603 135.417 96.5408C132.747 95.236 125.364 86.1011 122.007 81.6967C120.196 76.3894 111.378 62.868 107.196 56.7707C91.6553 29.0563 70.4674 21.4119 61.816 21.054C57.0281 21.3678 39.174 17.9135 30.8454 16.1472Z" fill="#9A3F46"/>
<path d="M35.4687 37.0079L34.4949 39.0479L34.2484 40.8239L38.9207 37.7339L43.998 32.7006L45.6504 28.7644L43.2812 28.7449L41.7094 29.9023L39.07 32.6938L35.4687 37.0079Z" fill="#A84950"/>
<path d="M81.3402 50.0227L80.6276 51.6598L80.5062 53.1131L84.2399 50.7837L88.2185 46.8702L89.4054 43.7009L87.4377 43.5736L86.1872 44.4545L84.1272 46.6333L81.3402 50.0227Z" fill="#A84950"/>
<path d="M37.8423 55.3398L36.3001 58.2735L35.7877 60.7691L42.5392 56.0163L50.0379 48.5193L52.7007 42.8809L49.4309 43.0831L47.1482 44.8461L43.2332 48.9869L37.8423 55.3398Z" fill="#A84950"/>
<path d="M63.4402 12.0683C62.2609 11.9413 60.6941 11.6755 60.7915 10.7704L61.385 5.25743C61.3939 5.17515 61.4546 5.1262 61.5369 5.13506L66.7482 5.69607C66.8305 5.70492 66.8794 5.76568 66.8706 5.84797L66.3391 10.785L65.5962 11.3709L66.0484 11.2947C66.1184 11.2884 66.1963 11.3384 66.2163 11.4099L66.2969 11.8209C66.317 11.8924 66.2518 11.9825 66.1666 12.0011C65.2745 12.1686 64.3454 12.1657 63.4402 12.0683ZM61.5665 10.6596C61.5222 11.071 62.5982 11.2562 63.5307 11.3566C64.0656 11.4142 64.5181 11.4629 64.8698 11.4175C65.2215 11.3722 65.5287 11.2249 65.5804 10.7449L66.0115 6.74045C66.0351 6.52103 65.8897 6.32504 65.684 6.30289L62.0773 5.91461L61.5665 10.6596ZM67.7108 15.0529L68.7871 5.05544C68.7974 4.95945 68.8734 4.89826 68.9694 4.90859L69.3945 4.95436C69.4905 4.9647 69.5517 5.04065 69.5414 5.13664L69.1147 9.09995L69.9835 8.37498L71.5194 8.54033C71.6154 8.55067 71.6766 8.62662 71.6663 8.72261L71.625 9.1066C71.6146 9.2026 71.5387 9.26379 71.4427 9.25345L69.9067 9.0881C69.4679 9.04086 69.0881 9.3468 69.0424 9.77193L68.4651 15.1341C68.4548 15.23 68.3788 15.2912 68.2828 15.2809L67.8577 15.2351C67.7617 15.2248 67.7005 15.1489 67.7108 15.0529Z" fill="white"/>
<path d="M52.3596 14.2067C52.2636 14.1964 52.2025 14.1204 52.2128 14.0244L52.6217 10.2257L53.2753 9.82435L48.2835 9.28697C48.1875 9.27663 48.1263 9.20068 48.1366 9.10469L48.178 8.7207C48.1883 8.6247 48.2643 8.56351 48.3603 8.57385L55.0801 9.29725C55.9577 9.39174 56.6213 8.76953 56.7512 7.56271L56.9593 5.62905C56.983 5.40963 56.8376 5.21363 56.6319 5.19149L50.4332 4.52418C50.3372 4.51385 50.276 4.4379 50.2864 4.3419L50.3277 3.95791C50.338 3.86192 50.414 3.80073 50.51 3.81106L57.6412 4.57876C57.7372 4.58909 57.7984 4.66504 57.788 4.76104L57.4869 7.55867C57.382 8.53235 57.061 9.06657 56.5886 9.45965L58.7279 9.68996C58.8239 9.70029 58.8851 9.77624 58.8748 9.87224L58.8335 10.2562C58.8231 10.3522 58.7472 10.4134 58.6512 10.4031L53.7965 9.88046C53.5908 9.85831 53.4159 9.93659 53.3775 10.2932L52.967 14.1056C52.9567 14.2016 52.8808 14.2628 52.7848 14.2525L52.3596 14.2067Z" fill="white"/>
<path d="M44.519 8.27598C44.4567 8.33865 44.3607 8.32831 44.2981 8.26608L44.0078 7.99899C43.9328 7.92156 43.9309 7.81037 44.0084 7.73547C44.5611 7.24006 44.6495 6.80565 44.7853 5.54397L44.9477 4.03545C44.9861 3.67889 44.8319 3.56517 44.6262 3.54303L38.4549 2.87868C38.3589 2.86834 38.2977 2.79239 38.3081 2.6964L38.3494 2.31241C38.3598 2.21641 38.4357 2.15522 38.5317 2.16556L45.6629 2.93325C45.7589 2.94358 45.8201 3.01954 45.8098 3.11553L45.5322 5.69374C45.3728 7.17484 45.1673 7.66601 44.519 8.27598ZM35.8572 10.2568L35.8985 9.87282C35.9089 9.77682 35.9848 9.71563 36.0808 9.72597L39.7836 10.1246C39.9893 10.1467 40.1642 10.0684 40.2026 9.71188L40.6159 5.872C40.6263 5.776 40.7022 5.71482 40.7982 5.72515L41.2233 5.77092C41.3193 5.78125 41.3805 5.8572 41.3702 5.9532L40.9583 9.77937L40.3047 10.1807L46.4485 10.8421C46.5445 10.8524 46.6057 10.9284 46.5953 11.0244L46.554 11.4083C46.5437 11.5043 46.4677 11.5655 46.3717 11.5552L36.004 10.4391C35.908 10.4288 35.8469 10.3528 35.8572 10.2568Z" fill="white"/>
</svg>
