<svg width="164" height="150" viewBox="0 0 164 150" fill="none" xmlns="http://www.w3.org/2000/svg">
<path d="M64.8856 19.1694C58.3545 18.3707 48.6134 21.0552 44.5592 22.4973C39.6276 19.1695 32.3967 21.1107 29.3977 22.4973C22.2002 22.4973 14.4029 32.37 11.4039 37.3064C1.27401 49.1537 0.407639 74.7454 1.24069 86.0603L7.07203 102.034C13.4699 122.667 30.6196 136.034 38.3947 140.139H48.0581C49.2576 141.869 57.6659 144.964 61.7201 146.295C67.0516 147.76 76.1596 144.354 80.0471 142.468C81.9132 146.062 93.9313 148.292 99.7071 148.958C104.239 149.49 112.925 144.853 116.701 142.468C137.494 140.871 151.134 121.724 155.355 112.351C163.619 100.77 162.463 67.5904 160.853 52.4484C159.653 43.7958 152.8 35.7534 149.523 32.8137L142.026 29.4858C133.529 16.0078 115.368 15.0094 113.702 13.6782C112.369 12.6133 107.038 14.122 104.539 15.0094L99.7071 10.1841C96.6415 8.18734 87.6557 7.90995 83.5459 8.02085C77.0148 7.6215 68.3845 15.2868 64.8856 19.1694Z" fill="#006332"/>
<path d="M78.79 26.0757L84.334 23.8833H86.5516L88.7692 22.7871H93.2044L97.6396 23.8833L98.7484 27.1719V29.3643L100.966 32.6529V35.9415V39.2301L98.7484 42.5187L96.5308 43.6149L93.2044 45.8073H88.7692L84.334 43.6149L76.5725 42.5187L75.4637 39.2301L74.3549 35.9415V30.4605L76.5725 28.2681L78.79 26.0757Z" fill="#B9A862"/>
<path d="M79.8987 28.2666L83.2251 27.1704L86.5515 26.0742H88.7691H90.9867H93.2043L94.3131 27.1704L95.4219 28.2666L94.3131 31.5552L93.2043 32.6514H89.8779H86.5515L85.4427 31.5552L82.1163 32.6514L79.8987 31.5552L78.7899 30.459L79.8987 28.2666Z" fill="#B9804E"/>
<path d="M142.915 62.829L125.284 55.1563L107.019 52.2313L132.183 52.8545L145.981 58.2254L154.414 69.7344L155.947 91.2179L151.348 76.6398L142.915 62.829Z" fill="#58A250"/>
<path d="M31.76 39.0437L15.6616 43.6473L24.8607 37.5091L37.8927 35.9746H50.9246L66.2564 43.6473L47.0917 39.0437H31.76Z" fill="#58A250"/>
<path d="M72.6423 28.9876L62.3125 19.0039L70.2585 20.5399L72.6423 28.9876Z" fill="#58A250"/>
<path d="M118.341 32.047L104.631 36.6395L107.678 32.047L118.341 28.9854H127.481L131.289 32.047H118.341Z" fill="#58A250"/>
<path d="M93.9157 91.7328L86.9707 57.2744L97.0024 71.0578L101.632 91.7328L99.3174 122.363L93.9157 136.146V130.786V91.7328Z" fill="#58A250"/>
<path d="M41.7558 62.7418L59.3134 51.2832L50.9163 62.7418L34.122 77.256L24.1981 93.2981L19.6179 118.507L17.3278 96.3537L26.4883 77.256L41.7558 62.7418Z" fill="#58A250"/>
<path d="M65.0783 5.44621C64.9836 5.46491 64.9026 5.4106 64.8839 5.31588L63.9035 0.349652C63.8848 0.254929 63.9391 0.173913 64.0339 0.155214L64.4534 0.0724027C64.5481 0.0537036 64.6291 0.108007 64.6478 0.202731L65.1473 2.73321L65.761 1.78256L67.2766 1.48337C67.3714 1.46467 67.4524 1.51898 67.4711 1.6137L67.5459 1.99259C67.5646 2.08732 67.5103 2.16833 67.4155 2.18703L65.9 2.48622C65.4669 2.5717 65.1954 2.97678 65.2782 3.39627L65.6282 5.16896C65.6469 5.26368 65.5926 5.3447 65.4978 5.3634L65.0783 5.44621ZM57.5326 5.96569L56.8061 2.285C56.79 2.2038 56.8335 2.13899 56.9147 2.12296L57.3883 2.02947C57.4695 2.01344 57.5343 2.05688 57.5503 2.13808L57.8442 3.62659L61.3219 2.94007C61.6737 2.87061 61.7283 2.64894 61.6883 2.44596L61.4746 1.3634C61.4585 1.28221 61.502 1.21739 61.5832 1.20137L62.0568 1.10787C62.138 1.09184 62.2028 1.13529 62.2188 1.21648L62.8332 4.32883L62.2984 5.10926L62.7074 4.90199C62.7724 4.8751 62.8616 4.89967 62.902 4.96198L63.1012 5.33037C63.1417 5.39269 63.1062 5.49809 63.0304 5.54119C62.2286 5.96659 61.3407 6.24029 60.4476 6.41659C59.2838 6.64632 57.7089 6.8588 57.5326 5.96569ZM58.2395 5.62932C58.3196 6.03528 59.402 5.89191 60.3222 5.71026C60.8499 5.60608 61.2965 5.51792 61.6188 5.36995C61.941 5.22198 62.1905 4.98996 62.097 4.51634L61.9073 3.55558L57.9831 4.33025L58.2395 5.62932ZM58.903 8.56326L58.8282 8.18436C58.8095 8.08964 58.8638 8.00862 58.9586 7.98992L65.9411 6.61154C66.0358 6.59284 66.1168 6.64714 66.1355 6.74186L66.8193 10.206C66.838 10.3008 66.7837 10.3818 66.689 10.4005L66.2695 10.4833C66.1748 10.502 66.0938 10.4477 66.0751 10.353L65.5862 7.87662C65.5168 7.52479 65.3357 7.46212 65.1327 7.50219L59.0975 8.69359C59.0028 8.71229 58.9217 8.65798 58.903 8.56326Z" fill="white"/>
<path d="M51.041 12.5369C51.2437 12.4956 51.3866 12.3679 51.315 12.0165L51.0643 10.7867C49.3178 11.0582 47.7743 10.5986 47.4767 9.13898C47.1599 7.58473 48.6032 6.51632 50.4953 6.13063C52.3875 5.74495 54.1338 6.16321 54.4506 7.71746C54.7453 9.16358 53.5048 10.1907 51.8077 10.6351L52.0556 11.8515L51.5546 12.4322L56.9066 11.3413C56.9877 11.3248 57.0528 11.3678 57.0693 11.4489L57.1575 11.8814C57.174 11.9625 57.131 12.0276 57.0499 12.0441L46.7783 14.1378C46.6972 14.1543 46.6321 14.1113 46.6156 14.0302L46.5275 13.5977C46.5109 13.5166 46.554 13.4516 46.6351 13.435L51.041 12.5369ZM46.3438 6.34341L46.2557 5.91092C46.2391 5.82983 46.2822 5.76475 46.3633 5.74822L49.5934 5.0898C49.7961 5.04848 49.939 4.92081 49.8674 4.56942L49.7269 3.88014C49.7104 3.79905 49.7534 3.73397 49.8345 3.71744L50.3075 3.62102C50.3886 3.60449 50.4537 3.64754 50.4702 3.72863L50.608 4.40439L50.107 4.98512L54.148 4.16141C54.2291 4.14488 54.2942 4.18792 54.3107 4.26901L54.3989 4.7015C54.4154 4.78259 54.3724 4.84767 54.2913 4.8642L46.5065 6.45101C46.4254 6.46754 46.3604 6.4245 46.3438 6.34341ZM48.2201 8.98746C48.4542 10.1362 49.8021 10.326 51.2887 10.023C52.7754 9.71997 53.9414 9.01777 53.7072 7.86898C53.4731 6.72018 52.1253 6.53039 50.6386 6.83342C49.1519 7.13646 47.9859 7.83867 48.2201 8.98746Z" fill="white"/>
<path d="M37.4774 15.3448C36.8271 15.469 36.4269 15.1382 36.3078 14.515L35.7902 11.8054C35.772 11.7106 35.8268 11.6299 35.9217 11.6118L36.3417 11.5315C36.4365 11.5134 36.5172 11.5682 36.5353 11.663L37.0271 14.2372C37.0944 14.5894 37.2751 14.6532 37.4783 14.6144L43.3582 13.4911C43.453 13.473 43.5337 13.5278 43.5518 13.6226L43.6243 14.0019C43.6424 14.0968 43.5876 14.1775 43.4927 14.1956L37.4774 15.3448ZM34.2368 9.99576L33.7243 7.31324L34.2324 6.73872L33.7989 6.82155C33.7041 6.83967 33.6234 6.78487 33.6053 6.69003L33.5328 6.31068C33.5147 6.21585 33.5695 6.13517 33.6643 6.11705L38.5281 5.18786C38.6229 5.16975 38.7036 5.22455 38.7217 5.31938L38.7942 5.69873C38.8123 5.79357 38.7575 5.87425 38.6627 5.89237L34.7473 6.64037C34.544 6.67919 34.3996 6.80509 34.4669 7.15734L34.9457 9.66374C35.0233 10.0702 36.1414 9.96892 37.0356 9.79809C37.7672 9.65832 38.6762 9.34425 39.3908 8.96899C39.4805 8.92378 39.5831 8.94631 39.6283 9.03597L39.8066 9.38106C39.8492 9.45717 39.8131 9.56236 39.7099 9.61016C38.9056 10.0306 37.9018 10.3628 37.1567 10.5052C36.0186 10.7226 34.4076 10.8899 34.2368 9.99576ZM41.83 10.6375L40.611 4.25633C40.5928 4.16149 40.6476 4.08081 40.7425 4.06269L41.1625 3.98246C41.2573 3.96434 41.338 4.01914 41.3561 4.11397L41.8401 6.64747L42.4596 5.7006L43.977 5.41071C44.0719 5.3926 44.1525 5.4474 44.1707 5.54223L44.2431 5.92158C44.2612 6.01642 44.2064 6.0971 44.1116 6.11522L42.5942 6.4051C42.1607 6.48792 41.8867 6.89133 41.9669 7.31132L42.5752 10.4951C42.5933 10.59 42.5385 10.6706 42.4436 10.6888L42.0237 10.769C41.9288 10.7871 41.8481 10.7323 41.83 10.6375Z" fill="white"/>
</svg>
