<svg width="102" height="267" viewBox="0 0 102 267" fill="none" xmlns="http://www.w3.org/2000/svg">
<path d="M38.6411 10.1582L51.3349 88.6476L34.651 92.3071L23.6832 13.4391L38.6411 10.1582Z" fill="#257652"/>
<path d="M56.7749 83.208L70.9362 156.16L72.7042 165.076L49.5368 169.44L31.3631 87.8716L7.35559 35.2153L19.7246 32.5023L39.8168 66.1232L46.1961 0.61554L57.8505 5.64072L56.7749 83.208Z" fill="#94C042"/>
<path d="M65.6668 166.183L72.5598 163.458L74.4068 175.79C73.9636 181.467 80.4555 197.41 83.7568 204.672C90.6103 219.423 93.2265 231.809 93.6779 236.157C94.9169 245.105 90.1505 251.69 87.6125 253.864L83.4502 259.629L84.1483 262.812L88.7169 263.023L84.4021 263.969L78.2427 259.255L81.8133 264.537L80.375 264.852L78.8774 262.148L79.2582 263.884L77.8199 264.2L76.1064 256.388L74.6219 266.114L72.6084 266.556L74.3804 256.766L66.4951 252.431C62.4677 245.065 63.8884 229.55 65.1022 222.713L62.1828 209.404C59.8981 198.987 52.6871 184.193 49.26 168.569L53.0077 162.288L65.6668 166.183Z" fill="white"/>
<path d="M68.5968 94.3085C68.4184 93.4722 68.2277 92.314 68.1429 91.1897C68.1391 91.1059 68.1979 91.0511 68.2818 91.0473L68.7413 91.0197C68.8116 91.0188 68.88 91.0748 68.8838 91.1586C68.9008 91.437 68.9237 91.7424 68.9629 92.0584L73.7921 91.028L73.6166 90.2051C73.5993 90.1242 73.6417 90.0587 73.7227 90.0415L74.1543 89.9494C74.2353 89.9321 74.3007 89.9745 74.318 90.0555L75.5701 95.9234C75.5874 96.0043 75.5449 96.0698 75.464 96.0871L75.0323 96.1792C74.9514 96.1964 74.8859 96.154 74.8686 96.073L74.6931 95.2502L70.5653 96.131L69.6622 95.5339C69.8448 96.059 70.0813 96.5727 70.3844 97.0017C70.4421 97.074 70.4189 97.1635 70.3437 97.2078L69.9466 97.4618C69.8714 97.506 69.7925 97.4665 69.729 97.3672C69.1046 96.358 68.7724 95.1314 68.5968 94.3085ZM69.0538 92.8147C69.1141 93.2955 69.1984 93.757 69.2848 94.1617C69.3366 94.4045 69.4076 94.6714 69.4816 94.9518C69.6239 95.2882 69.9888 95.4783 70.3665 95.3977L74.5348 94.5083L74.0282 92.1341C73.985 91.9318 73.856 91.7901 73.5053 91.8649L69.0538 92.8147ZM66.9209 99.4754L76.7547 97.3771C76.8491 97.357 76.931 97.4101 76.9511 97.5045L77.0403 97.9227C77.0605 98.0171 77.0074 98.0989 76.913 98.1191L73.0146 98.9509L73.9745 99.55L74.2969 101.061C74.317 101.155 74.264 101.237 74.1695 101.257L73.7918 101.338C73.6974 101.358 73.6156 101.305 73.5954 101.21L73.2731 99.6996C73.1809 99.268 72.7718 99.0027 72.3536 99.0919L67.0792 100.217C66.9848 100.238 66.9029 100.184 66.8828 100.09L66.7936 99.6718C66.7734 99.5774 66.8265 99.4956 66.9209 99.4754Z" fill="white"/>
<path d="M65.7276 81.4969C65.5326 80.3548 65.3618 79.0267 66.4087 78.8479L70.6643 78.1212L71.2288 78.6405L71.1521 78.1919C71.1382 78.1103 71.1833 78.0466 71.2649 78.0327L71.7 77.9584C71.7816 77.9445 71.8452 77.9896 71.8592 78.0711L72.5603 82.1772C72.5742 82.2588 72.5291 82.3225 72.4475 82.3364L72.0125 82.4107C71.9309 82.4246 71.8672 82.3795 71.8533 82.2979L71.317 79.1572C71.2822 78.9533 71.1591 78.8064 70.8056 78.8667L66.618 79.5818C66.1965 79.6537 66.2701 80.4947 66.4233 81.3921C66.5208 81.9631 66.7072 82.6449 67.0276 83.3738C67.0687 83.4508 67.0395 83.5257 66.9603 83.5532L66.5822 83.7157C66.5166 83.7409 66.4257 83.7005 66.3799 83.5964C66.0367 82.8154 65.8298 82.0951 65.7276 81.4969ZM63.9499 85.5085L73.8752 83.8137C73.9568 83.7998 74.0204 83.8449 74.0344 83.9265L74.1087 84.3616C74.1226 84.4431 74.0775 84.5068 73.9959 84.5207L69.7675 85.2428L70.702 85.8808L70.89 86.9821L74.3163 86.397C74.3979 86.3831 74.4615 86.4282 74.4755 86.5098L74.5498 86.9449C74.5637 87.0264 74.5186 87.0901 74.437 87.104L64.335 88.829C64.2534 88.8429 64.1897 88.7978 64.1758 88.7163L64.1015 88.2812C64.0876 88.1996 64.1327 88.1359 64.2142 88.122L70.183 87.1028L69.995 86.0015C69.9207 85.5664 69.5227 85.2846 69.1012 85.3565L64.0706 86.2155C63.989 86.2295 63.9253 86.1844 63.9114 86.1028L63.8371 85.6677C63.8232 85.5861 63.8683 85.5224 63.9499 85.5085Z" fill="white"/>
</svg>
