<svg width="131" height="234" viewBox="0 0 131 234" fill="none" xmlns="http://www.w3.org/2000/svg">
<path d="M49.6544 44.6486C49.5738 44.6675 49.5075 44.6264 49.4886 44.5459L48.8135 41.6724L49.297 41.0771L44.2752 42.2569C44.1946 42.2758 44.1283 42.2347 44.1093 42.1542L44.0084 41.7245C43.9895 41.6439 44.0305 41.5776 44.1111 41.5587L54.316 39.1611C54.3966 39.1422 54.4629 39.1833 54.4818 39.2638L54.5828 39.6935C54.6017 39.7741 54.5606 39.8404 54.48 39.8593L49.8073 40.9572C49.6059 41.0045 49.4668 41.1363 49.5488 41.4855L50.2271 44.3724C50.246 44.4529 50.2049 44.5193 50.1244 44.5382L49.6544 44.6486ZM44.9838 39.2425L44.1415 35.6574C44.1226 35.5768 44.1637 35.5105 44.2442 35.4916L51.3742 33.8164C51.4548 33.7975 51.5211 33.8386 51.5401 33.9191L52.2499 36.9403L51.7939 37.7134C52.0901 37.5871 52.1107 37.5539 52.316 37.4632C52.3903 37.4174 52.4669 37.4419 52.4992 37.5193L52.6942 37.9269C52.7234 37.9909 52.702 38.0809 52.6246 38.1133C51.6515 38.5545 50.0646 39.0973 49.0441 39.3371C47.6208 39.6715 45.2109 40.2093 44.9838 39.2425ZM45.6592 38.8005C45.7728 39.2838 47.7087 38.8999 48.8903 38.6223C49.5483 38.4677 50.4084 38.2089 51.2023 37.9091C51.3334 37.8641 51.4614 37.8057 51.5333 37.6896C51.5846 37.6067 51.5997 37.4898 51.5681 37.3555L51.0255 35.046C50.9751 34.8312 50.7729 34.6945 50.5715 34.7418L45.0125 36.0478L45.6592 38.8005Z" fill="white"/>
<path d="M116.696 37.6601C112.99 41.983 105.739 54.6072 102.577 60.3789L62.4787 47.5103L58.1976 28.4285L56.4724 13.226L67.1008 10.7381L69.6335 22.7118L73.8924 38.0715L73.3549 30.6945L72.6829 23.4744L70.9132 4.25834L78.4469 6.14246L78.3565 14.506L79.2892 28.3049L81.0004 37.4667L82.8198 0.46993L89.3669 2.10732L89.147 18.8246L88.0187 35.3147C88.901 31.1517 90.6567 22.3279 90.621 20.3368C90.5853 18.3457 92.4607 8.0271 93.4029 3.11667L101.385 5.11294C100.645 7.94556 98.9626 15.1041 98.1549 21.0774C97.3471 27.0506 94.6591 39.5063 93.0816 45.5602C93.844 44.4168 98.1313 34.8895 100.576 28.5442C102.531 23.468 106.444 15.1137 108.156 11.5711L117.618 13.9376C115.107 16.9689 109.425 30.6302 107.19 37.1549C109.737 31.2357 121.061 19.1439 126.404 13.838L130.022 22.2396C127.356 25.4011 120.403 33.3371 116.696 37.6601Z" fill="#4EAD69"/>
<path d="M116.124 73.1024C116.124 73.1024 113.939 63.8879 107.79 60.8638C100.103 57.0836 87.2225 53.5346 85.0886 53.7658C81.2838 50.9203 71.4632 45.5941 62.619 47.0537C51.5637 48.8781 45.8302 53.0163 41.5362 58.8263C39.0285 62.2193 35.1879 66.9188 31.8423 74.5787C31.4357 75.5099 31.0363 76.4848 30.6475 77.5064C30.1567 78.7962 29.6827 80.1605 29.2323 81.6052C27.9489 85.7217 26.8562 90.4914 26.1073 96.0525C23.1745 117.828 22.5968 124.829 22.5968 124.829C22.5968 124.829 17.5736 139.089 15.9621 143.057C13.2108 147.65 8.5577 158.273 7.17922 163.436C5.45611 169.889 0.323979 198.047 0.323979 198.047L2.94246 223.522C2.96719 223.762 3.07371 223.981 3.25122 224.146C4.64725 225.438 11.0477 231.317 12.9696 232.298C17.7369 234.731 30.0154 233.263 30.0154 233.263C36.8722 230.164 50.449 217.266 50.449 217.266C62.2328 207.635 88.7016 182.582 100.306 159.422C114.812 130.471 114.621 114.61 116.938 105.345C120.58 90.7858 116.124 73.1024 116.124 73.1024Z" fill="white"/>
<path d="M75.6448 140.319L68.7407 138.829L63.5586 138.923L78.4213 148.577L99.4122 159.64L101.298 157.254L103.618 152.099L92.3695 147.037L75.6448 140.319Z" fill="#FAF7F0"/>
<path d="M52.8416 93.2806L48.586 93.0431L45.5129 93.574L55.3176 97.8564L68.6272 101.724L76.6002 101.904L74.1421 98.988L70.6569 97.6028L63.4608 95.6746L52.8416 93.2806Z" fill="#FAF7F0"/>
<path d="M14.5615 184.452L12.2817 184.058L10.4258 184.342L14.5643 188.276L20.7626 192.039L25.113 192.563L24.625 190.085L23.113 188.798L19.7132 186.895L14.5615 184.452Z" fill="#FAF7F0"/>
<path d="M46.8742 149.235L42.4479 148.277L39.0285 148.455L48.0406 155.293L60.8922 162.163L69.2691 163.632L67.5946 159.634L64.3476 157.374L57.3475 153.86L46.8742 149.235Z" fill="#FAF7F0"/>
</svg>
