<svg width="104" height="115" viewBox="0 0 104 115" fill="none" xmlns="http://www.w3.org/2000/svg">
<path d="M21.8785 10.9377C21.7864 10.9666 21.7 10.9214 21.6711 10.8293L20.1574 5.99884C20.1285 5.9067 20.1737 5.82027 20.2658 5.7914L20.6739 5.66354C20.766 5.63466 20.8524 5.67985 20.8813 5.77199L21.6526 8.23328L22.1595 7.22162L23.6336 6.75967C23.7257 6.7308 23.8122 6.77598 23.841 6.86812L23.9565 7.23665C23.9854 7.32879 23.9402 7.41522 23.8481 7.44409L22.3739 7.90604C21.9528 8.03803 21.7268 8.47019 21.8547 8.87821L22.395 10.6024C22.4239 10.6946 22.3787 10.781 22.2866 10.8099L21.8785 10.9377ZM14.4338 12.2733L13.3119 8.69326C13.2872 8.61428 13.3233 8.54514 13.4023 8.52039L13.863 8.37603C13.942 8.35128 14.0111 8.38743 14.0358 8.4664L14.4896 9.91422L17.8722 8.85421C18.2144 8.74697 18.2447 8.52067 18.1828 8.32324L17.8528 7.27028C17.8281 7.19131 17.8642 7.12217 17.9432 7.09742L18.4039 6.95306C18.4828 6.92831 18.552 6.96446 18.5767 7.04343L19.5254 10.0707L19.0784 10.9046L19.4625 10.6541C19.5242 10.6203 19.6155 10.6351 19.6625 10.6926L19.9005 11.0372C19.9475 11.0948 19.9237 11.2034 19.853 11.2545C19.1021 11.7644 18.2492 12.1329 17.3805 12.4051C16.2485 12.7598 14.706 13.142 14.4338 12.2733ZM15.1 11.8622C15.2237 12.2571 16.2841 11.997 17.1792 11.7166C17.6925 11.5557 18.1268 11.4196 18.4311 11.2375C18.7354 11.0554 18.9582 10.7977 18.8138 10.337L18.521 9.40252L14.704 10.5986L15.1 11.8622ZM17.1413 16.9465L16.2917 14.2351C16.2628 14.143 16.308 14.0565 16.4001 14.0277L22.9943 11.9613C23.0864 11.9324 23.1728 11.9776 23.2017 12.0697L23.9235 14.3731L23.4846 15.0021L23.9058 14.8701C23.9979 14.8412 24.0844 14.8864 24.1132 14.9785L24.2287 15.3471C24.2576 15.4392 24.2124 15.5256 24.1203 15.5545L18.1053 17.4394C17.6841 17.5714 17.2774 17.3808 17.1413 16.9465ZM17.7415 16.3248C17.8487 16.667 18.0356 16.7096 18.233 16.6478L23.0766 15.1299C23.2214 15.0845 23.3027 14.929 23.2573 14.7842L22.7789 13.2574C22.6717 12.9152 22.4848 12.8725 22.2874 12.9344L17.1806 14.5347L17.7415 16.3248Z" fill="white"/>
<path d="M13.7021 29.6013C13.7021 29.6013 2.90282 46.375 1.38758 52.5485C1.03552 66.8679 8.0678 79.8551 11.628 84.5588C19.1359 93.5988 38.3558 110.446 49.1267 111.951C62.5903 113.832 71.4998 112.975 81.4942 107.51C91.4887 102.046 99.1105 90.7603 99.904 89.3997C100.698 88.039 102.376 77.0552 102.4 71.3395C102.424 65.6239 99.1189 46.2335 91.256 36.5773C84.9658 28.8523 82.7432 21.3957 82.4182 18.633C78.8073 19.7677 57.2338 13.2113 39.6739 17.4454C22.114 21.6796 13.7021 29.6013 13.7021 29.6013Z" fill="#A4784A"/>
<path d="M46.2216 61.5794C29.5363 61.2151 11.1519 66.7609 4.43154 70.1817C4.43154 70.1817 6.76916 79.2268 10.2447 84.6909C14.5196 91.4115 20.2498 97.417 20.2498 97.417C20.2498 97.417 30.0443 104.842 37.1049 108.184C43.6203 111.268 54.5953 114.087 54.5953 114.087C54.5953 114.087 65.0553 113.669 71.9996 112.253C78.9439 110.836 86.2106 104.449 86.2106 104.449L74.6538 84.2234C64.6504 72.387 51.5309 64.1956 46.2216 61.5794Z" fill="#C8B08C"/>
<path d="M74.8235 7.9704L75.6119 18.7929L79.6886 30.2458L93.7596 14.8909L91.253 14.381L80.4656 23.232L87.4498 9.12008L85.8319 7.64035L79.3832 16.3001L75.7121 7.00078L74.8235 7.9704Z" fill="#A4784A"/>
</svg>
