<svg width="150" height="111" viewBox="0 0 150 111" fill="none" xmlns="http://www.w3.org/2000/svg">
<path d="M78.3209 64.2926L55.0055 61.8311L49.1086 64.3836C49.5248 64.2035 56.6701 70.5772 60.1907 73.7866C61.9942 77.945 68.438 83.9364 71.4344 86.4123C78.9265 93.0475 94.574 96.7014 101.461 97.699L107.514 103.105L112.989 106.703L124.14 108.668C131.133 109.592 134.863 104.575 135.853 101.951C136.187 95.8802 128.2 87.1542 124.165 83.5501C120.456 79.558 111.689 79.4836 107.769 79.9455L99.0112 74.4757C96.3752 70.6776 84.1193 66.1044 78.3209 64.2926Z" fill="#73BE1D"/>
<path d="M71.2364 47.7122L52.0939 45.1892L47.8655 42.0091C48.164 42.2335 55.1156 38.5076 58.5542 36.6166C60.8012 33.6348 67.1174 30.0798 69.9946 28.6751C77.2743 24.8066 90.508 24.897 96.2149 25.4258L102.105 22.264L107.183 20.4382L116.491 21.0149C122.268 21.6226 124.285 26.358 124.572 28.6498C123.666 33.5748 115.586 39.0218 111.66 41.1296C107.919 43.6111 100.886 41.9809 97.8369 40.8557L89.7684 43.547C86.9244 46.0798 76.2288 47.3791 71.2364 47.7122Z" fill="#73BE1D"/>
<path d="M75.1562 43.3494C70.7157 46.3959 65.962 49.3553 64.1402 50.4542L60.6474 52.239L63.0326 57.1036L67.0757 63.8208C67.0494 66.3396 70.7802 71.095 72.6489 73.1579L79.8508 75.6693C84.6658 85.7214 95.3847 87.188 100.142 86.6648C102.397 84.9369 107.938 87.0848 110.427 88.3747C115.869 93.4846 124.995 90.4461 128.878 88.2881C136.052 86.5371 142.49 79.8626 144.812 76.7443L143.911 67.3955C141.959 55.5064 136.628 53.5689 134.714 53.2508C133.183 52.9963 129.73 48.7425 128.194 46.6474C124.726 39.1322 114.914 39.7963 110.442 41.0678C107.613 42.7002 102.441 42.3661 100.209 41.9949C89.1762 33.8529 78.9102 39.5054 75.1562 43.3494Z" fill="#008725"/>
<path d="M42.485 50.8326L34.4222 54.2756L33.9219 55.9855C38.5349 60.6523 47.5202 64.0642 51.4362 65.1868C59.1333 67.4176 63.8472 63.0064 65.242 60.522C65.8742 58.3043 61.6612 55.7089 59.4758 54.6885C56.2868 52.2892 50.7739 53.5378 48.416 54.462L42.485 50.8326Z" fill="#008023"/>
<path d="M69.5274 36.823L55.3516 38.044L53.626 36.9943C57.984 31.3038 69.6831 24.4908 74.9879 21.7956C85.401 16.4799 95.0448 17.5699 98.5651 18.7794C100.778 20.1487 95.8554 24.092 93.1176 25.8925C89.6373 29.2043 80.5697 30.8707 76.471 31.2899L69.5274 36.823Z" fill="#008725"/>
<path d="M10.5047 47.8854L13.0744 41.6706C14.7175 39.8358 20.5393 38.1995 22.905 37.5346L22.9056 37.5344L34.6703 36.778L50.4893 35.0784L64.7274 32.6461L72.3011 28.1635L64.3295 34.7195L47.4077 39.4754L29.5644 40.9593L22.8093 42.0732L25.7889 43.5897L40.4594 43.3898L55.5789 41.2983L65.4045 38.5368L71.9377 34.5429L68.3158 37.7186L54.6068 44.1216L39.5612 47.1732L48.8242 48.6892L66.8838 51.4601L72.0014 50.8064L88.3206 47.3969L97.7427 48.0836L87.8999 48.6921L73.7074 52.6809L77.3637 53.8111L88.0767 56.2927L94.3372 55.514L102.161 53.3151L107.842 54.661L112.3 56.5466L108.098 55.5698L101.507 54.4796L90.6129 58.3262L97.9256 60.5866L110.606 64.4769L117.293 67.3053L105.437 64.9487L100.405 63.813L105.807 69.7488L108.867 77.1277L111.324 79.5758L108.316 78.6558L105.102 70.7316L101.326 67.0849L87.8836 59.0933L82.3281 58.8892L81.0545 59.2471L86.3889 69.1253L92.1667 78.4865L95.5843 80.8608L100.657 84.9277L91.8484 80.1453L83.4092 67.6088L75.5614 56.4754L61.9938 53.619L38.0888 51.7064L22.463 50.6055L31.584 55.1039L37.5774 56.1657L42.6721 54.7338L45.4243 54.745L42.8769 55.4609L39.4197 56.4326L47.4146 56.9319L50.2919 58.0848L47.6194 57.659L35.4167 57.5576L28.1269 56.0755L16.6232 50.089L18.4544 53.1053L28.5876 57.7115L45.3223 60.6585L58.6795 64.1625L67.687 71.0467L73.7832 78.7492L75.9331 86.3837L73.5389 81.3679L65.8675 71.5581L67.5967 80.4879L64.2299 72.0184L59.8057 68.1615L47.1763 64.453C37.0185 64.6401 26.8327 61.4741 23.021 60.2568C19.2452 59.121 14.8777 53.8848 13.2835 52.175L10.5047 47.8854Z" fill="#ABE178"/>
<path d="M10.3663 48.09L13.2487 41.5912L9.9791 41.137L5.64056 41.7678L1.99586 44.1653L0.358264 44.6256L2.14943 44.7106L5.24267 43.8413L7.51734 46.3406L10.3663 48.09Z" fill="#D1F2B3"/>
<path d="M88.5523 9.17751C88.4871 9.2246 88.4035 9.21789 88.3552 9.13894L88.1323 8.79803C88.0841 8.71909 88.1057 8.64803 88.1847 8.59977C90.7474 6.99687 91.091 5.83242 90.9114 3.56362L88.5475 3.76523C88.4651 3.77226 88.4054 3.72198 88.3984 3.63952L88.3609 3.19974C88.3538 3.11728 88.4041 3.05762 88.4866 3.05058L90.8504 2.84897L90.7719 1.92818C90.7648 1.84572 90.8151 1.78606 90.8976 1.77902L91.3786 1.738C91.4611 1.73096 91.5207 1.78125 91.5278 1.86371L91.6063 2.7845L94.1763 2.56531C94.2587 2.55827 94.3184 2.60856 94.3254 2.69102L94.3629 3.1308C94.37 3.21326 94.3197 3.27292 94.2372 3.27995L91.6672 3.49915C91.7809 4.83224 91.7095 5.77967 91.269 6.62015L92.1799 5.61496L95.3998 7.98438C95.4744 8.04723 95.4677 8.13086 95.4048 8.20544L95.0871 8.5371C95.0356 8.58302 94.9531 8.59005 94.8947 8.55351L92.1395 6.60127C91.933 6.45277 91.6844 6.46012 91.481 6.67128C90.0739 8.18946 89.416 8.59165 88.5523 9.17751ZM97.3818 11.0962L96.5273 1.07737C96.5191 0.98117 96.5819 0.906592 96.6781 0.898387L97.1042 0.86205C97.2004 0.853845 97.275 0.916701 97.2832 1.0129L98.1377 11.0317C98.1459 11.1279 98.083 11.2025 97.9868 11.2107L97.5608 11.247C97.4646 11.2552 97.39 11.1924 97.3818 11.0962Z" fill="white"/>
<path d="M83.4687 5.60123C83.4208 5.67539 83.3247 5.68509 83.2505 5.63712L82.9113 5.4357C82.8221 5.3754 82.7959 5.25327 82.8562 5.16401C83.2962 4.57891 83.2683 4.16582 83.2143 3.63061L83.1256 2.75232C83.109 2.58764 83.0169 2.49989 82.866 2.51514L76.5532 3.1526C76.4572 3.1623 76.3816 3.10061 76.3719 3.00455L76.3331 2.6203C76.3234 2.52423 76.3851 2.44869 76.4812 2.43899L83.6173 1.71838C83.7134 1.70868 83.7889 1.77036 83.7986 1.86643L83.976 3.62301C84.0508 4.36407 83.9772 4.87058 83.4687 5.60123ZM75.1933 7.53209L75.1545 7.14783C75.1448 7.05177 75.2064 6.97622 75.3025 6.96652L85.6773 5.91887C85.7734 5.90917 85.8489 5.97085 85.8586 6.06692L85.8974 6.45117C85.9071 6.54723 85.8455 6.62278 85.7494 6.63248L75.3746 7.68014C75.2785 7.68984 75.203 7.62815 75.1933 7.53209ZM77.0199 11.6175L76.7455 8.9003C76.7358 8.80424 76.7975 8.72869 76.8935 8.71899L84.4551 7.95542C84.5511 7.94572 84.6267 8.00741 84.6364 8.10347L84.8678 10.3953L84.3111 10.9228L84.7502 10.8785C84.8463 10.8688 84.9218 10.9305 84.9315 11.0265L84.9704 11.4108C84.9801 11.5069 84.9184 11.5824 84.8223 11.5921L77.8646 12.2947C77.4254 12.339 77.0656 12.0704 77.0199 11.6175ZM77.7331 11.1296C77.7691 11.4864 77.9435 11.5658 78.1493 11.5451L83.8857 10.9658C84.0366 10.9505 84.1477 10.8146 84.1324 10.6636L83.9828 9.18149C83.9467 8.82469 83.7723 8.74525 83.5665 8.76604L77.5557 9.37301L77.7331 11.1296Z" fill="white"/>
<path d="M71.6893 4.05375C71.7853 4.0434 71.8613 4.10457 71.8716 4.20056L72.9501 14.1977C72.9604 14.2937 72.8993 14.3697 72.8033 14.3801L72.3781 14.4259C72.2822 14.4363 72.2062 14.3751 72.1958 14.2791L71.1174 4.28193C71.107 4.18593 71.1682 4.10997 71.2642 4.09961L71.6893 4.05375ZM62.8825 12.0514C62.8325 11.9735 62.8525 11.902 62.9303 11.852C65.6827 9.97352 65.832 8.52848 65.6278 6.63601L65.5228 5.66235C65.5139 5.58007 65.5629 5.51929 65.6452 5.51042L66.1251 5.45864C66.2074 5.44976 66.2682 5.4987 66.2771 5.58098L66.3939 6.66435C66.5226 7.85743 66.4724 8.80622 66.0508 9.65635L66.939 8.63102L70.1299 11.0753C70.2059 11.1365 70.2011 11.2202 70.1399 11.2962L69.8296 11.6349C69.7792 11.6819 69.6969 11.6908 69.6376 11.6556L66.9207 9.618C66.7094 9.46043 66.4626 9.48706 66.2639 9.70272C64.8911 11.252 64.1612 11.8163 63.3108 12.4213C63.2467 12.4699 63.163 12.465 63.1129 12.3872L62.8825 12.0514Z" fill="white"/>
</svg>
