<svg width="114" height="136" viewBox="0 0 114 136" fill="none" xmlns="http://www.w3.org/2000/svg">
<path d="M6.00705 31.4094L23.7064 47.5509L32.7701 42.8987L35.901 34.5162L18.4723 21.3588L10.4051 0L0 12.6508L12.3359 29.0101L8.15241 26.7198L6.00705 31.4094Z" fill="#5C8740"/>
<path d="M17.2926 69.0321C18.832 64.5978 20.9272 51.7511 21.7824 45.8821L33.5266 39.3163V32.6829C34.4265 32.7591 37.8912 32.8659 44.5506 32.6829C52.8748 32.4541 63.2238 30.3954 68.8483 30.6242C74.4727 30.8529 96.7456 35.4277 107.995 59.6741C116.994 79.0712 110.844 100.085 106.645 108.167L101.47 114.8V121.663L92.471 129.211C84.5967 128.296 75.5976 131.27 72.6729 132.413C69.7482 133.557 63.8987 135.844 49.7251 134.701C35.5514 133.557 23.4025 124.636 17.2926 110.226C11.1827 95.815 15.3685 74.5751 17.2926 69.0321Z" fill="#FFCE89"/>
<path fill-rule="evenodd" clip-rule="evenodd" d="M18.6903 63.6063C18.2071 65.8554 17.7277 67.7801 17.2928 69.0331C15.3686 74.5761 11.1828 95.816 17.2928 110.227C23.4027 124.637 35.5515 133.558 49.7252 134.702C63.8988 135.845 69.7483 133.558 72.673 132.414C74.6401 131.645 79.3552 130.048 84.6277 129.363C71.7216 127.649 53.0615 121.812 40.0019 107.265C27.6728 93.5309 20.0108 77.5854 18.6903 63.6063ZM33.5267 39.0803C50.7296 37.2622 74.4272 41.1836 91.0522 59.7026C99.7625 69.4052 103.756 82.4016 104.863 94.6165C105.374 100.25 105.271 105.717 104.734 110.618L106.645 108.168C110.844 100.086 116.994 79.0722 107.995 59.6751C96.7457 35.4287 74.4728 30.8539 68.8484 30.6251C65.9206 30.5061 61.7125 31.0068 57.1763 31.5466C52.9982 32.0438 48.5417 32.5742 44.5507 32.6839C37.8913 32.8668 34.4267 32.7601 33.5267 32.6839V39.0803Z" fill="#F2A361"/>
<path d="M44.7775 108.56C53.4412 119.173 68.079 125.93 73.582 126.956C79.0682 126.581 92.8356 123.182 92.8356 123.182C92.8356 123.182 99.6381 115.724 101.65 114.22C61.4928 104.375 47.11 71.3572 47.11 71.3572C37.613 77.1051 28.3801 73.6964 25.3946 73.5301C26.3411 77.1377 36.1645 98.0084 44.7775 108.56Z" fill="#F2A361"/>
<path d="M93.1481 67.0474C99.9109 72.2387 104.504 81.8941 105.292 85.3558C105.22 88.8471 103.53 97.6791 103.53 97.6791C103.53 97.6791 99.1478 102.209 98.2827 103.529C93.3781 87.1424 82.5202 77.0523 78.696 73.2325C81.9506 67.0422 82.3884 61.7161 82.2005 59.8269C84.4418 60.3237 86.4248 61.8865 93.1481 67.0474Z" fill="#F2A361"/>
<path d="M53.7267 22.2925C52.8715 22.2925 51.6991 22.2373 50.5819 22.0856C50.4991 22.0718 50.4578 22.0029 50.4715 21.9201L50.5405 21.4649C50.5543 21.396 50.6233 21.3408 50.706 21.3546C50.9819 21.396 51.2853 21.4373 51.6026 21.4649V16.527H50.7612C50.6784 16.527 50.6233 16.4718 50.6233 16.3891V15.9477C50.6233 15.8649 50.6784 15.8098 50.7612 15.8098H56.7612C56.844 15.8098 56.8991 15.8649 56.8991 15.9477V16.3891C56.8991 16.4718 56.844 16.527 56.7612 16.527H55.9198V20.7477L55.1474 21.5063C55.6991 21.4373 56.2509 21.3132 56.7336 21.1063C56.8164 21.0649 56.8991 21.1063 56.9267 21.1891L57.0922 21.6304C57.1198 21.7132 57.0647 21.7822 56.9543 21.8235C55.8371 22.2235 54.5681 22.2925 53.7267 22.2925ZM52.3612 21.5339C52.844 21.5753 53.3129 21.5891 53.7267 21.5891C53.975 21.5891 54.2509 21.5753 54.5405 21.5615C54.8991 21.4925 55.1612 21.1753 55.1612 20.7891V16.527H52.7336C52.5267 16.527 52.3612 16.6235 52.3612 16.9822V21.5339ZM58.4302 25.0098V14.9546C58.4302 14.858 58.4991 14.7891 58.5957 14.7891H59.0233C59.1198 14.7891 59.1888 14.858 59.1888 14.9546V18.9408L59.975 18.127H61.5198C61.6164 18.127 61.6853 18.196 61.6853 18.2925V18.6787C61.6853 18.7753 61.6164 18.8442 61.5198 18.8442H59.975C59.5336 18.8442 59.1888 19.1891 59.1888 19.6166V25.0098C59.1888 25.1063 59.1198 25.1753 59.0233 25.1753H58.5957C58.4991 25.1753 58.4302 25.1063 58.4302 25.0098Z" fill="white"/>
<path d="M40.7699 20.8105C39.2251 20.8105 37.9009 19.9967 37.9009 18.4105C37.9009 16.9484 39.032 16.1484 40.4389 16.0242C40.5354 16.0105 40.5768 15.8863 40.5768 15.7484V15.4311C40.5768 15.3484 40.632 15.2932 40.7147 15.2932H41.1975C41.2803 15.2932 41.3354 15.3484 41.3354 15.4311V15.7346L40.8527 16.0105C42.3837 16.038 43.6665 16.8518 43.6665 18.4105C43.6665 19.9967 42.3423 20.8105 40.7699 20.8105ZM38.6596 18.4105C38.6596 19.776 39.8182 20.0932 40.7699 20.0932C41.7492 20.0932 42.9078 19.776 42.9078 18.4105C42.9078 17.1139 41.7492 16.7277 40.7699 16.7277C39.8182 16.7277 38.6596 17.1139 38.6596 18.4105ZM39.1837 23.7484C39.1837 22.1208 40.9354 21.5691 42.9354 21.5691C44.9354 21.5691 46.6871 22.1208 46.6871 23.7484C46.6871 25.376 44.9354 25.9277 42.9354 25.9277C40.9354 25.9277 39.1837 25.376 39.1837 23.7484ZM39.9423 23.7484C39.9423 24.8518 41.1009 25.2105 42.9354 25.2105C44.7699 25.2105 45.9285 24.8518 45.9285 23.7484C45.9285 22.6449 44.7699 22.2863 42.9354 22.2863C41.1009 22.2863 39.9423 22.6449 39.9423 23.7484ZM45.4044 20.4932V15.4311C45.4044 15.3346 45.4734 15.2656 45.5699 15.2656H45.9975C46.094 15.2656 46.163 15.3346 46.163 15.4311V16.7415L46.9492 15.9277H48.494C48.5906 15.9277 48.6596 15.9967 48.6596 16.0932V16.4794C48.6596 16.576 48.5906 16.6449 48.494 16.6449H46.9492C46.5078 16.6449 46.163 16.9898 46.163 17.4173V19.2242L46.9492 18.4105H48.494C48.5906 18.4105 48.6596 18.4794 48.6596 18.576V18.9622C48.6596 19.0587 48.5906 19.1277 48.494 19.1277H47.0871C46.5078 19.1277 46.163 19.4725 46.163 20.038V20.4932C46.163 20.5898 46.094 20.6587 45.9975 20.6587H45.5699C45.4734 20.6587 45.4044 20.5898 45.4044 20.4932Z" fill="white"/>
</svg>
