<svg width="98" height="172" viewBox="0 0 98 172" fill="none" xmlns="http://www.w3.org/2000/svg">
<path d="M84.1126 57.994C84.1336 57.9139 84.201 57.8745 84.281 57.8955L94.0213 60.4472C94.1013 60.4682 94.1407 60.5355 94.1198 60.6156L94.0079 61.0425C93.9869 61.1226 93.9196 61.162 93.8395 61.141L89.6899 60.0539L90.2779 61.0207L89.9948 62.1015L93.3571 62.9823C93.4372 63.0033 93.4766 63.0707 93.4556 63.1507L93.3438 63.5777C93.3228 63.6577 93.2554 63.6971 93.1754 63.6762L83.2617 61.079C83.1816 61.058 83.1422 60.9907 83.1632 60.9106L83.275 60.4837C83.296 60.4036 83.3634 60.3642 83.4434 60.3852L89.3009 61.9197L89.5841 60.8389C89.6959 60.412 89.4497 59.991 89.0361 59.8826L84.0993 58.5893C84.0192 58.5683 83.9798 58.501 84.0008 58.4209L84.1126 57.994ZM88.8463 52.062C88.9369 52.043 88.9966 52.0871 89.0156 52.1777C89.6289 55.0617 91.1338 55.4132 92.9751 55.8956L93.4889 53.9342C93.5099 53.8541 93.5773 53.8147 93.6573 53.8357L94.0843 53.9475C94.1644 53.9685 94.2037 54.0359 94.1828 54.1159L93.6689 56.0773L94.5629 56.3115C94.643 56.3325 94.6824 56.3998 94.6614 56.4799L94.539 56.9469C94.5181 57.027 94.4507 57.0663 94.3707 57.0454L93.4767 56.8112L92.8859 59.0661C92.865 59.1462 92.7976 59.1856 92.7176 59.1646L92.2906 59.0527C92.2105 59.0318 92.1711 58.9644 92.1921 58.8843L92.7829 56.6294L92.6895 56.6049C91.6087 56.3218 90.7547 56.0981 90.0521 55.5148L90.5558 56.5308L87.4103 58.0879C87.3296 58.1238 87.253 58.0895 87.2136 58.0221L86.9878 57.578C86.9484 57.5106 86.9729 57.4172 87.0536 57.3813L89.6813 56.0593C89.9605 55.9185 89.9996 55.7149 89.8316 55.4855C88.9555 54.2579 88.6318 53.5885 88.3482 52.3307C88.3256 52.2535 88.3733 52.1805 88.4505 52.1579L88.8463 52.062Z" fill="white"/>
<path d="M86.8829 46.1015C87.1748 44.1229 87.9762 42.4705 89.5864 42.708C91.1966 42.9455 91.4868 44.759 91.1949 46.7376C90.903 48.7162 90.1016 50.3686 88.4914 50.1311C86.8813 49.8936 86.5911 48.0801 86.8829 46.1015ZM93.3109 41.2776C93.4241 41.2664 93.4939 41.3603 93.4914 41.4715C93.3418 43.9033 93.7723 46.1836 95.4507 46.4312L95.9419 46.5037C96.1057 46.5278 96.2133 46.46 96.2354 46.3099L96.8352 42.2436C96.8493 42.1481 96.9276 42.0899 97.0231 42.104L97.4052 42.1604C97.5007 42.1744 97.5589 42.2527 97.5448 42.3483L96.8242 47.2333C96.8101 47.3288 96.7318 47.387 96.6363 47.3729L95.3127 47.1777C93.0339 46.8415 92.6544 43.6485 92.7971 41.4527C92.7955 41.3688 92.8601 41.3087 92.944 41.3071L93.3109 41.2776ZM89.4757 43.4585C88.3841 43.2975 87.8602 44.3913 87.5925 46.2062C87.3248 48.021 87.5105 49.2196 88.6021 49.3806C89.6938 49.5416 90.2176 48.4477 90.4853 46.6329C90.753 44.8181 90.5673 43.6195 89.4757 43.4585ZM93.2921 47.5488L93.6741 47.6052C93.7696 47.6193 93.8278 47.6976 93.8137 47.7931L93.6084 49.1849C93.5239 49.758 93.8147 50.1495 94.3742 50.232L95.8752 50.4534L95.1848 49.5569L95.4102 48.0286C95.4243 47.9331 95.5026 47.8749 95.5981 47.889L95.9802 47.9454C96.0757 47.9595 96.1339 48.0378 96.1198 48.1333L95.8944 49.6616C95.83 50.0982 96.1208 50.4897 96.5438 50.5521L96.8303 50.5943C96.9259 50.6084 96.984 50.6867 96.9699 50.7822L96.9075 51.2052C96.8934 51.3008 96.8151 51.3589 96.7196 51.3448L91.7117 50.6061C91.6162 50.592 91.5581 50.5138 91.5722 50.4182L91.6346 49.9952C91.6486 49.8997 91.7269 49.8415 91.8225 49.8556L93.5691 50.1133L92.8787 49.2167L93.1042 47.6884C93.1182 47.5929 93.1965 47.5348 93.2921 47.5488Z" fill="white"/>
<path d="M91.9916 38.6593C91.984 38.5631 92.0473 38.4889 92.1435 38.4812L94.9897 38.255L94.1162 37.5357L93.9621 35.597C93.9556 35.5145 94.0062 35.4552 94.0887 35.4486L94.5287 35.4136C94.6112 35.4071 94.6705 35.4577 94.6771 35.5402L94.8312 37.4789C94.8662 37.9189 95.2372 38.2353 95.6635 38.2014L97.1897 38.0801C97.2859 38.0725 97.3601 38.1358 97.3678 38.232L97.4017 38.6583C97.4093 38.7545 97.346 38.8287 97.2498 38.8364L92.2036 39.2375C92.1074 39.2451 92.0332 39.1818 92.0255 39.0856L91.9916 38.6593ZM91.4574 29.5005C91.5229 29.4537 91.6362 29.4862 91.6702 29.5666C92.7515 31.6806 93.8076 32.2608 95.0984 32.3105L94.9192 30.0555C94.9126 29.973 94.9632 29.9136 95.0457 29.9071L95.4857 29.8721C95.5682 29.8655 95.6276 29.9162 95.6341 29.9987L95.8167 32.2949L96.6416 32.2293C96.7241 32.2228 96.7835 32.2734 96.7901 32.3559L96.8283 32.8371C96.8349 32.9196 96.7842 32.979 96.7017 32.9855L95.8768 33.0511L96.0757 35.5536C96.0822 35.6361 96.0316 35.6954 95.9491 35.702L95.5091 35.737C95.4266 35.7435 95.3672 35.6929 95.3607 35.6104L95.1585 33.0667C94.4105 33.057 93.8304 32.8955 93.2911 32.551L94.2585 33.581L92.2583 36.618C92.1961 36.7059 92.0988 36.6999 92.0383 36.6355L91.6937 36.3031C91.6343 36.2525 91.6437 36.1964 91.6806 36.1381L93.1744 33.6948C93.3704 33.3749 93.4415 33.051 93.1529 32.728C91.847 31.2682 91.5398 30.7115 91.0755 29.9182C91.0425 29.8517 91.0497 29.7681 91.1152 29.7214L91.4574 29.5005ZM88.3642 32.0155C89.9867 31.8865 90.6754 33.5891 90.8339 35.5828C90.9924 37.5765 90.5812 39.3664 88.9587 39.4954C87.3362 39.6243 86.6474 37.9218 86.489 35.9281C86.3305 33.9344 86.7417 32.1445 88.3642 32.0155ZM88.4243 32.7717C87.3243 32.8592 87.0586 34.0426 87.204 35.8713C87.3493 37.7 87.7986 38.8266 88.8986 38.7391C89.9986 38.6517 90.2643 37.4683 90.1189 35.6396C89.9736 33.8109 89.5243 32.6843 88.4243 32.7717Z" fill="white"/>
<path d="M18.1682 24.3196C4.77775 49.5534 16.9746 83.8874 24.7469 97.9002L28.7166 102.362L42.4785 100.694L61.9074 82.8288C74.253 73.8923 78.8715 46.5557 79.6376 34.0044L73.3283 10.3403C63.4343 -4.19277 42.4114 0.0632697 33.1367 4.00792L18.1682 24.3196Z" fill="#01A93A"/>
<path d="M28.2611 59.2381L27.5255 85.7048L22.5556 100.152L10.8567 126.017L2.84844 152.533C0.0778659 157.092 1.59261 161.673 2.69631 163.393L9.61693 167.728L18.2923 166.798L25.4709 154.245L37.0375 118.823L44.6837 83.8028L62.717 58.4905L63.8941 53.0993L50.5961 64.1147L52.4179 30.825L38.0506 76.3029L31.3418 59.9108L30.7834 47.6856L28.2611 59.2381Z" fill="#D0E5B6"/>
<path d="M69.7642 78.3623C48.5558 91.7019 41.7464 116.268 40.9928 126.884L49.0616 128.54L66.7923 113.44C73.4733 110.33 88.6391 90.3261 94.8003 82.0647L95.0259 72.6329L88.3247 71.2576C85.2651 70.0552 74.6762 75.4931 69.7642 78.3623Z" fill="#0CBB48"/>
<path d="M32.9412 132.182L71.8119 89.3916L66.1192 100.377L55.9032 111.525L64.239 107.413L73.5173 102.354L58.896 113.867L43.9802 131.639L30.7225 157.394C27.5476 164.632 19.1636 168.784 15.1452 170.28L8.26822 167.035L16.9283 155.714L32.9412 132.182Z" fill="#DFF0C9"/>
</svg>
