<svg width="109" height="142" viewBox="0 0 109 142" fill="none" xmlns="http://www.w3.org/2000/svg">
<path d="M22.3425 38.8986C19.9113 34.4606 23.2109 31.3272 25.1646 30.3152L20.8815 29.0687L19.1378 30.3164C13.6628 32.4325 16.6791 42.3937 18.8716 47.1097C20.6063 49.6265 19.8511 55.5682 19.2566 58.2245C18.3061 60.861 17.2001 69.0915 16.7659 72.8772C16.1147 78.5558 18.0029 86.7286 18.6331 87.436C19.1373 88.0019 20.3245 93.1327 20.8551 95.6274L20.5376 101.325L22.1903 95.7016L21.7468 91.643C20.8132 89.1707 21.3112 83.4388 21.6769 80.8819C23.2063 77.4708 23.1203 73.0063 22.8861 71.2004C22.5612 67.4173 23.5942 62.4996 24.1513 60.5136C27.8188 52.3806 24.4736 42.7148 22.3425 38.8986Z" fill="#F8F9F9"/>
<path d="M22.586 32.5254L19.7209 29.8649L22.8557 27.6861C22.4561 25.2435 26.2511 22.8323 28.1986 21.9321C33.6885 19.5479 36.8894 22.1911 37.8036 23.8106C39.8203 26.0742 37.8145 27.6211 36.5595 28.1116L36.4661 29.7872L32.6264 32.5992C28.5911 32.9128 25.4069 31.9738 24.3191 31.4652L22.586 32.5254Z" fill="#EDEF6A"/>
<path d="M33.5525 45.9696C31.6314 41.1271 37.1968 39.4558 40.2196 39.2254L39.982 35.7295C35.2876 34.6619 31.0521 37.8288 29.5211 39.5457C26.1077 43.7257 30.2044 51.174 32.6795 54.3756C41.2399 66.2351 41.6325 75.9157 40.7587 79.2736C38.0092 84.1552 38.992 90.1151 39.8271 92.4849C40.6334 93.7697 40.5793 102.293 40.4514 106.394C41.5892 105.001 42.3467 96.4998 42.5832 92.4234L43.412 85.7282C46.4816 80.644 46.5174 75.5352 46.1516 73.6164C45.5337 63.0126 40.6663 54.9301 38.3099 52.2143C36.8636 51.3347 34.5357 47.6846 33.5525 45.9696Z" fill="#F8F9FE"/>
<path d="M37.8134 39.6475L37.8277 36.5531L38.0499 35.571L41.458 35.6578C40.9479 33.0637 43.7739 31.4807 45.2507 31.0134C51.1775 29.0572 54.3589 32.1671 55.2087 33.9666C57.2244 37.1785 54.6068 38.6483 53.046 38.9817L52.6758 40.6184C51.1233 43.8449 46.6847 42.3535 44.6594 41.2045C41.6483 39.969 38.8407 39.6517 37.8134 39.6475Z" fill="#F1F467"/>
<path d="M61.2767 38.3376L64.331 36.1008L67.7529 36.8258C67.7053 37.6788 66.5819 38.7216 66.0261 39.1364C63.1341 41.3288 61.8788 45.0561 61.6126 46.6458L59.8691 54.0361C58.5932 57.8158 60.6717 63.5289 61.8705 65.913C64.3109 71.8246 63.5619 78.5749 62.8823 81.2112C62.4916 84.3983 63.9659 88.8478 64.7519 90.6742C62.004 86.4569 60.3157 81.0685 59.815 78.9015C60.2295 75.2878 57.8477 68.0069 56.6049 64.8181C54.2581 61.051 54.9909 55.5476 55.6507 53.2668L57.734 44.5583C58.1128 41.5845 60.2536 39.1721 61.2767 38.3376Z" fill="#FBFBFD"/>
<path d="M64.8427 34.0036L63.8977 36.6251L67.0095 38.135C68.1169 37.3803 68.846 33.8554 68.945 32.0783C69.006 27.1615 66.5386 22.6887 65.5558 21.2079L63.4318 21.0898L62.0299 22.3489L62.1339 20.4829L60.0396 19.8317C57.715 19.4886 57.0051 21.7131 56.9407 22.8683L57.4698 27.7109C58.8957 32.7104 62.9792 33.9892 64.8427 34.0036Z" fill="#EFEF73"/>
<path d="M60.2848 62.2821C58.2565 57.6466 61.8209 54.8172 63.8566 53.982L59.7008 52.3616L57.8534 53.4503C52.2123 55.074 54.3338 65.2627 56.0996 70.1541C57.6044 72.8144 56.3254 78.666 55.4978 81.2593C54.3174 83.8014 52.4861 91.9018 51.7181 95.6343C50.566 101.233 51.7223 109.541 52.2874 110.301C52.7394 110.909 53.4672 116.125 53.7746 118.657L52.9533 124.303L55.0979 118.849L55.0159 114.767C54.3051 112.222 55.3093 106.556 55.9002 104.042C57.7259 100.779 58.036 96.3247 57.9628 94.5052C57.9746 90.7082 59.4394 85.9011 60.1704 83.9721C64.5445 76.1953 62.0692 66.2718 60.2848 62.2821Z" fill="#F8F9F9"/>
<path d="M61.0922 55.954L58.4742 53.0507L61.7898 51.1575C61.6083 48.6892 65.6022 46.6231 67.6218 45.8985C73.3015 44.0091 76.2555 46.9249 77.0226 48.6189C78.8307 51.0519 76.6956 52.4154 75.4021 52.793L75.1605 54.4538L71.0866 56.9153C67.0394 56.8708 63.9509 55.654 62.9125 55.0512L61.0922 55.954Z" fill="#EDEF6A"/>
<path d="M70.8242 70.313C69.3399 65.3196 75.0316 64.147 78.0629 64.1848L78.1362 60.6816C73.5548 59.2031 69.0552 61.9831 67.3781 63.5579C63.6075 67.4197 67.0279 75.2009 69.2094 78.6089C76.685 91.1786 76.2179 100.856 75.0499 104.123C71.8785 108.743 72.3291 114.766 72.9508 117.2C73.64 118.551 72.8306 127.037 72.3397 131.11C73.5966 129.823 75.1046 121.422 75.7016 117.383L77.1206 110.787C80.6288 105.994 81.1173 100.909 80.9231 98.9652C81.2475 88.3484 77.1158 79.8673 75.0094 76.9538C73.6467 75.9498 71.6515 72.1082 70.8242 70.313Z" fill="#F8F9FE"/>
<path d="M75.6285 64.3938L75.9171 61.3128L76.2254 60.3543L79.6125 60.742C79.3343 58.1129 82.2896 56.786 83.802 56.4512C89.879 55.0266 92.7721 58.4056 93.4591 60.2731C95.1821 63.6507 92.4445 64.8832 90.8603 65.0773L90.3465 66.6749C88.5141 69.7514 84.2251 67.8735 82.3096 66.55C79.4198 65.0531 76.6515 64.4888 75.6285 64.3938Z" fill="#F1F467"/>
<path d="M99.1159 65.165L102.357 63.207L105.701 64.2317C105.578 65.0772 104.366 66.0166 103.776 66.3806C100.701 68.3087 99.1201 71.9104 98.7141 73.4702L96.3223 80.6774C94.7163 84.3294 96.2803 90.2039 97.2631 92.6846C99.1699 98.7887 97.8254 105.446 96.9148 108.012C96.2431 111.152 97.3172 115.715 97.9382 117.603C95.5749 113.16 94.3709 107.643 94.0643 105.44C94.7974 101.878 93.0704 94.4146 92.1152 91.1285C90.1115 87.1687 91.3293 81.7517 92.1887 79.5382L95.0358 71.0481C95.6767 68.1194 98.0229 65.9057 99.1159 65.165Z" fill="#FBFBFD"/>
<path d="M103.052 61.1633L101.878 63.6909L104.844 65.47C106.014 64.8162 107.053 61.3696 107.309 59.6082C107.806 54.7161 105.744 50.0427 104.897 48.4809L102.792 48.1755L101.284 49.3057L101.553 47.4562L99.5242 46.6224C97.2391 46.0751 96.3348 48.2281 96.1683 49.3731L96.2661 54.2435C97.2432 59.3494 101.197 60.9841 103.052 61.1633Z" fill="#EFEF73"/>
<path d="M41.3492 49.4054C38.918 44.9674 42.2176 41.834 44.1713 40.8221L39.8882 39.5755L38.1445 40.8233C32.6695 42.9393 35.6858 52.9005 37.8783 57.6166C39.613 60.1334 38.8578 66.0751 38.2633 68.7313C37.3128 71.3678 36.2068 79.5983 35.7726 83.3841C35.1214 89.0626 37.0096 97.2355 37.6398 97.9428C38.144 98.5087 39.3313 103.64 39.8619 106.134L39.5444 111.831L41.197 106.208L40.7535 102.15C39.8199 99.6776 40.3179 93.9457 40.6836 91.3888C42.213 87.9777 42.127 83.5131 41.8928 81.7073C41.5679 77.9242 42.6009 73.0064 43.158 71.0204C46.8255 62.8874 43.4803 53.2217 41.3492 49.4054Z" fill="#F8F9F9"/>
<path d="M41.5926 43.0313L38.7275 40.3708L41.8623 38.1919C41.4627 35.7493 45.2577 33.3382 47.2052 32.438C52.6951 30.0538 55.896 32.6969 56.8102 34.3165C58.8269 36.58 56.8211 38.1269 55.5661 38.6174L55.4727 40.2931L51.633 43.1051C47.5977 43.4187 44.4134 42.4797 43.3257 41.971L41.5926 43.0313Z" fill="#EDEF6A"/>
<path d="M52.5591 56.4696C50.638 51.6271 56.2034 49.9558 59.2262 49.7254L58.9886 46.2295C54.2942 45.1619 50.0587 48.3288 48.5277 50.0457C45.1143 54.2257 49.211 61.674 51.686 64.8756C60.2465 76.7351 60.6391 86.4157 59.7653 89.7736C57.0158 94.6552 57.9986 100.615 58.8337 102.985C59.64 104.27 59.5859 112.793 59.458 116.894C60.5958 115.501 61.3533 107 61.5898 102.923L62.4186 96.2282C65.4882 91.144 65.524 86.0352 65.1582 84.1164C64.5403 73.5126 59.6729 65.4301 57.3165 62.7143C55.8702 61.8347 53.5423 58.1846 52.5591 56.4696Z" fill="#F8F9FE"/>
<path d="M56.8197 50.1485L56.8341 47.0541L57.0562 46.072L60.4643 46.1588C59.9542 43.5646 62.7802 41.9816 64.257 41.5144C70.1839 39.5582 73.3652 42.6681 74.215 44.4676C76.2307 47.6795 73.6131 49.1493 72.0523 49.4827L71.6821 51.1194C70.1297 54.3458 65.691 52.8545 63.6658 51.7055C60.6546 50.4699 57.8471 50.1527 56.8197 50.1485Z" fill="#F1F467"/>
<path d="M80.2832 48.8376L83.3375 46.6008L86.7594 47.3258C86.7118 48.1788 85.5884 49.2216 85.0326 49.6364C82.1406 51.8288 80.8853 55.5561 80.6191 57.1458L78.8756 64.5361C77.5996 68.3158 79.6782 74.0289 80.877 76.413C83.3174 82.3246 82.5684 89.0749 81.8888 91.7112C81.4981 94.8983 82.9724 99.3478 83.7584 101.174C81.0105 96.9569 79.3222 91.5685 78.8215 89.4015C79.236 85.7878 76.8541 78.5069 75.6114 75.3181C73.2646 71.551 73.9974 66.0476 74.6572 63.7668L76.7405 55.0583C77.1193 52.0845 79.2601 49.6721 80.2832 48.8376Z" fill="#FBFBFD"/>
<path d="M83.8492 44.5056L82.9041 47.127L86.016 48.637C87.1233 47.8822 87.8524 44.3574 87.9515 42.5802C88.0124 37.6634 85.5451 33.1906 84.5623 31.7098L82.4382 31.5918L81.0364 32.8509L81.1404 30.9848L79.046 30.3337C76.7214 29.9905 76.0115 32.2151 75.9472 33.3703L76.4763 38.2129C77.9022 43.2124 81.9857 44.4911 83.8492 44.5056Z" fill="#EFEF73"/>
<path d="M48.0204 61.3122C50.2558 56.7726 46.8227 53.7857 44.8267 52.8597L49.0514 51.4281L50.8478 52.5988C56.4099 54.4747 53.8309 64.5576 51.8461 69.3646C50.2228 71.9544 51.2365 77.8577 51.9462 80.4855C53.0108 83.0782 54.4746 91.2528 55.0735 95.016C55.9718 100.661 54.4418 108.908 53.843 109.642C53.364 110.229 52.4016 115.407 51.9803 117.922L52.5459 123.6L50.6497 118.055L50.9157 113.981C51.7407 111.47 50.9931 105.765 50.5163 103.227C48.8396 99.8854 48.7308 95.4214 48.886 93.607C49.0456 89.8134 47.7992 84.9452 47.156 82.9853C43.1373 75.0196 46.0578 65.2175 48.0204 61.3122Z" fill="#F8F9F9"/>
<path d="M47.4993 54.9531L50.2457 52.1705L47.0189 50.1301C47.3115 47.6724 43.4149 45.4287 41.4301 44.614C35.8414 42.4709 32.7588 45.2507 31.9161 46.9085C30 49.2576 32.0714 50.7158 33.3466 51.1513L33.513 52.8212L37.4717 55.4636C41.5168 55.6013 44.6571 54.5248 45.7216 53.9693L47.4993 54.9531Z" fill="#EDEF6A"/>
<path d="M37.1294 68.8625C38.8375 63.941 33.2045 62.5134 30.1746 62.4148L30.2595 58.9119C34.9029 57.641 39.2725 60.6207 40.8768 62.2694C44.4693 66.2969 40.7013 73.9163 38.3682 77.2226C30.3331 89.4432 30.363 99.1317 31.3824 102.448C34.3422 107.206 33.6202 113.203 32.8893 115.607C32.1398 116.925 32.5656 125.438 32.8722 129.53C31.6747 128.188 30.5472 119.727 30.1331 115.665L29.0131 109.012C25.7248 104.066 25.4662 98.964 25.7479 97.0311C25.9029 86.4105 30.4131 78.124 32.6489 75.3083C34.0555 74.3666 36.222 70.6187 37.1294 68.8625Z" fill="#F8F9FE"/>
<path d="M32.597 62.7315L32.4477 59.6406L32.183 58.6692L28.7819 58.9041C29.1784 56.2902 26.286 54.8316 24.7902 54.4291C18.7837 52.7325 15.741 55.9778 14.9705 57.8126C13.0968 61.1091 15.776 62.4636 17.3498 62.7288L17.791 64.3479C19.4827 67.5038 23.8521 65.8208 25.8254 64.5848C28.7798 63.2194 31.5708 62.7803 32.597 62.7315Z" fill="#F1F467"/>
<path d="M9.09872 62.4443L5.94976 60.3424L2.56273 61.2156C2.64743 62.0657 3.81528 63.0587 4.38862 63.4489C7.37352 65.5134 8.79017 69.1826 9.12539 70.7592L11.1895 78.0667C12.6291 81.7872 10.8017 87.5854 9.70797 90.0194C7.52769 96.0314 8.57042 102.743 9.36432 105.347C9.89362 108.514 8.61475 113.024 7.90916 114.882C10.4705 110.55 11.9223 105.093 12.3279 102.906C11.7563 99.3139 13.8183 91.9363 14.9208 88.6965C17.1012 84.8309 16.129 79.3646 15.3704 77.1146L12.9093 68.505C12.4012 65.5505 10.1572 63.2335 9.09872 62.4443Z" fill="#FBFBFD"/>
<path d="M5.34695 58.2693L6.40547 60.8472L3.36243 62.491C2.22318 61.7851 1.34105 58.2954 1.1646 56.5242C0.889293 51.6147 3.15921 47.0388 4.07651 45.5167L6.19342 45.3064L7.64883 46.5033L7.46356 44.6436L9.52754 43.9019C11.835 43.458 12.6412 45.6496 12.7559 46.8008L12.4385 51.6619C11.2319 56.7186 7.20807 58.1738 5.34695 58.2693Z" fill="#EFEF73"/>
<path d="M31.7638 75.7345C29.3326 71.2965 32.6322 68.1631 34.5859 67.1512L30.3027 65.9046L28.5591 67.1524C23.0841 69.2684 26.1003 79.2296 28.2928 83.9457C30.0276 86.4625 29.2723 92.4042 28.6779 95.0604C27.7274 97.6969 26.6214 105.927 26.1872 109.713C25.5359 115.392 27.4242 123.565 28.0544 124.272C28.5586 124.838 29.7458 129.969 30.2764 132.463L29.9589 138.16L31.6115 132.538L31.1681 128.479C30.2344 126.007 30.7325 120.275 31.0982 117.718C32.6275 114.307 32.5415 109.842 32.3073 108.036C31.9824 104.253 33.0155 99.3355 33.5726 97.3495C37.2401 89.2165 33.8948 79.5508 31.7638 75.7345Z" fill="#F8F9F9"/>
<path d="M32.007 69.3613L29.1419 66.7009L32.2767 64.522C31.8771 62.0794 35.6721 59.6683 37.6196 58.768C43.1096 56.3839 46.3104 59.027 47.2246 60.6466C49.2413 62.9101 47.2355 64.457 45.9805 64.9475L45.8871 66.6231L42.0474 69.4352C38.0121 69.7487 34.8279 68.8098 33.7402 68.3011L32.007 69.3613Z" fill="#EDEF6A"/>
<path d="M69.28 76.5642L72.3343 74.3273L75.7562 75.0523C75.7086 75.9054 74.5852 76.9482 74.0294 77.363C71.1374 79.5554 69.8821 83.2827 69.6159 84.8723L67.8724 92.2627C66.5964 96.0423 68.675 101.755 69.8738 104.14C72.3142 110.051 71.5652 116.802 70.8856 119.438C70.4949 122.625 71.9692 127.074 72.7552 128.901C70.0073 124.683 68.319 119.295 67.8183 117.128C68.2328 113.514 65.851 106.233 64.6082 103.045C62.2614 99.2776 62.9942 93.7742 63.654 91.4934L65.7373 82.7849C66.1161 79.8111 68.2569 77.3987 69.28 76.5642Z" fill="#FBFBFD"/>
<path d="M72.846 72.2311L71.9009 74.8526L75.0128 76.3626C76.1202 75.6078 76.8493 72.083 76.9483 70.3058C77.0093 65.389 74.5419 60.9162 73.5591 59.4354L71.4351 59.3174L70.0332 60.5765L70.1372 58.7104L68.0429 58.0593C65.7183 57.7161 65.0084 59.9407 64.944 61.0958L65.4731 65.9385C66.899 70.9379 70.9825 72.2167 72.846 72.2311Z" fill="#EFEF73"/>
<path d="M42.7211 79.659C40.8 74.8165 46.3654 73.1452 49.3882 72.9149L49.1506 69.419C44.4562 68.3513 40.2207 71.5182 38.6897 73.2352C35.2763 77.4151 39.373 84.8634 41.848 88.0651C50.4085 99.9246 50.8011 109.605 49.9273 112.963C47.1778 117.845 48.1606 123.805 48.9957 126.174C49.8019 127.459 49.7478 135.983 49.62 140.084C50.7578 138.69 51.5153 130.189 51.7518 126.113L52.5806 119.418C55.6501 114.333 55.686 109.225 55.3202 107.306C54.7023 96.702 49.8349 88.6196 47.4785 85.9038C46.0322 85.0241 43.7043 81.3741 42.7211 79.659Z" fill="#F8F9FE"/>
<path d="M46.9819 73.3389L46.9963 70.2445L47.2184 69.2625L50.6265 69.3492C50.1164 66.7551 52.9425 65.1721 54.4192 64.7048C60.3461 62.7486 63.5274 65.8585 64.3773 67.658C66.3929 70.8699 63.7753 72.3397 62.2146 72.6731L61.8444 74.3098C60.2919 77.5363 55.8533 76.0449 53.828 74.8959C50.8168 73.6604 48.0093 73.3431 46.9819 73.3389Z" fill="#F1F467"/>
<path d="M56.0959 7.25419C54.634 7.22818 52.166 7.15667 52.1836 6.16373L52.2295 3.58482C52.231 3.50208 52.2871 3.4479 52.3699 3.44937L59.6929 3.57967C59.7756 3.58114 59.8298 3.63729 59.8283 3.72003L59.7927 5.71971L59.1606 6.35685C59.4788 6.30733 59.5068 6.28023 59.7282 6.24279C59.8115 6.21668 59.8797 6.25928 59.892 6.34227L59.9807 6.7853C59.9933 6.8545 59.9504 6.93651 59.8674 6.94882C58.8156 7.13704 57.144 7.27284 56.0959 7.25419ZM50.6242 8.52256L50.632 8.08125C50.6335 7.99851 50.6896 7.94433 50.7724 7.9458L61.2535 8.13229C61.3362 8.13376 61.3904 8.18991 61.3889 8.27265L61.3811 8.71396C61.3796 8.79671 61.3235 8.85089 61.2407 8.84942L56.4415 8.76402C56.2346 8.76034 56.0674 8.85393 56.061 9.2125L56.0505 9.80551L59.7465 9.87127C59.843 9.87299 59.9107 9.94317 59.909 10.0397L59.8955 10.7982L59.2804 11.2563L59.7355 11.2644C59.832 11.2661 59.8997 11.3363 59.898 11.4328L59.8919 11.7776C59.8902 11.8741 59.82 11.9419 59.7234 11.9402L53.0073 11.8207C52.8556 11.818 52.7292 11.9399 52.7265 12.0916L52.7201 12.4501C52.7174 12.6018 52.8118 12.7277 52.9635 12.7304L59.8176 12.8523C59.9141 12.854 59.9818 12.9242 59.9801 13.0208L59.974 13.3655C59.9723 13.4621 59.9021 13.5298 59.8055 13.5281L52.717 13.4019C52.2757 13.3941 51.9501 13.0848 51.9582 12.6297L51.9646 12.2711L52.5797 11.813L51.8764 11.8005C51.7799 11.7988 51.7121 11.7286 51.7139 11.6321L51.72 11.2873C51.7217 11.1908 51.7919 11.1231 51.8884 11.1248L58.8528 11.2487C59.0045 11.2514 59.1309 11.1295 59.1336 10.9778L59.136 10.8399C59.1387 10.6882 59.0168 10.5618 58.8651 10.5591L52.1213 10.4392C52.0248 10.4374 51.9571 10.3673 51.9588 10.2707L51.9654 9.89837C51.9671 9.80183 52.0373 9.7341 52.1339 9.73582L55.292 9.79201L55.3023 9.21279L55.9174 8.7547L50.7596 8.66293C50.6769 8.66145 50.6227 8.60531 50.6242 8.52256ZM52.947 5.9014C52.9382 6.39788 54.9091 6.50192 56.1227 6.52351C56.7984 6.53554 57.6958 6.49633 58.539 6.40097C58.6772 6.38963 58.8156 6.3645 58.9138 6.26968C58.984 6.20196 59.0274 6.09236 59.0298 5.95446L59.0548 4.54778C59.0578 4.38229 58.9768 4.28428 58.8251 4.28158L52.9777 4.17754L52.947 5.9014Z" fill="white"/>
<path d="M46.8412 13.4933C46.7448 13.4991 46.6718 13.4343 46.6661 13.3379L46.0674 3.30061C46.0617 3.20422 46.1264 3.13128 46.2228 3.12553L46.6496 3.10007C46.746 3.09432 46.819 3.15906 46.8247 3.25544L47.062 7.23457L47.7984 6.37542L49.3405 6.28344C49.4369 6.27769 49.5098 6.34243 49.5156 6.43881L49.5386 6.82433C49.5443 6.92071 49.4796 6.99366 49.3832 6.99941L47.8411 7.09138C47.4005 7.11766 47.0768 7.48241 47.1023 7.90924L47.4234 13.2928C47.4291 13.3892 47.3644 13.4621 47.268 13.4679L46.8412 13.4933ZM39.1186 10.0435L38.7984 4.67376C38.7926 4.57738 38.8574 4.50443 38.9537 4.49868L39.3806 4.47322C39.4769 4.46747 39.5499 4.53221 39.5556 4.62859L39.8644 9.8056C39.889 10.2187 41.0109 10.2623 41.9196 10.2081C42.6631 10.1637 43.6049 9.96939 44.362 9.68934C44.4568 9.65605 44.5556 9.69161 44.5889 9.78635L44.7212 10.1515C44.7537 10.2325 44.7043 10.3322 44.5958 10.3663C43.744 10.6796 42.7058 10.8797 41.9485 10.9249C40.792 10.9939 39.1728 10.9523 39.1186 10.0435Z" fill="white"/>
<path d="M32.0327 15.0241C29.5543 15.4232 27.8843 15.2032 27.6475 13.7325C27.4107 12.2617 28.9272 11.5286 31.4056 11.1295C33.884 10.7304 35.554 10.9504 35.7909 12.4212C36.0277 13.8919 34.5112 14.625 32.0327 15.0241ZM25.9259 10.9361L25.8645 10.5548C25.8491 10.4595 25.9062 10.3804 26.0016 10.3651L29.9507 9.72918C30.1549 9.69628 30.303 9.57464 30.246 9.22058L30.1122 8.38991C30.0991 8.3082 30.1448 8.24496 30.2265 8.2318L30.7031 8.15505C30.7848 8.1419 30.848 8.1876 30.8612 8.2693L30.9928 9.08636L30.4682 9.64585L36.2965 8.70732C36.3918 8.69198 36.4709 8.7491 36.4862 8.84442L36.5476 9.22572C36.563 9.32104 36.5059 9.40009 36.4105 9.41544L26.1156 11.0732C26.0203 11.0886 25.9412 11.0314 25.9259 10.9361ZM26.7512 7.64581C26.7358 7.55049 26.7815 7.48725 26.8632 7.47409L33.648 6.22789L33.5405 5.56062C33.5142 5.39721 33.4171 5.31504 33.2674 5.33916L26.976 6.35224C26.8943 6.3654 26.831 6.3197 26.8179 6.238L26.7477 5.80223C26.7346 5.72052 26.7803 5.65728 26.862 5.64412L33.9976 4.49509C34.0793 4.48193 34.1426 4.52763 34.1557 4.60934L34.4847 6.65199C34.6228 7.50991 34.5616 7.91094 34.2364 8.49419C34.2065 8.56886 34.127 8.59563 34.0502 8.55213L33.6386 8.33898C33.5618 8.29547 33.5328 8.20234 33.5899 8.12329C33.8303 7.70737 33.8295 7.44206 33.7576 6.90877L27.0203 8.18925C26.9522 8.20021 26.8596 8.14528 26.8486 8.07719L26.7512 7.64581ZM28.3965 13.6119C28.539 14.497 29.699 14.6734 31.9187 14.316C34.1384 13.9586 35.1844 13.4269 35.0419 12.5418C34.8993 11.6566 33.7393 11.4802 31.5196 11.8376C29.2999 12.195 28.2539 12.7267 28.3965 13.6119Z" fill="white"/>
</svg>
