<svg width="92" height="148" viewBox="0 0 92 148" fill="none" xmlns="http://www.w3.org/2000/svg">
<path fill-rule="evenodd" clip-rule="evenodd" d="M30.6632 8.00815C30.4473 5.36909 31.578 0.0777704 37.828 0.0249652C40.7418 -0.186931 46.3007 0.858019 45.2262 6.73299C45.1247 7.72241 43.9099 9.60097 39.8629 9.19991L38.8878 9.29298L39.3222 15.3138C39.4501 15.274 39.5825 15.2474 39.7196 15.2356C40.5745 14.0837 42.7872 12.3227 44.7991 14.4935C44.9703 14.5713 45.157 14.6649 45.3528 14.7732C46.1539 13.8355 47.4148 13.1583 49.3411 13.236C51.3651 13.1874 55.1753 14.1006 54.2245 18.1423C54.1193 18.8256 53.2124 20.0885 50.4258 19.6734L50.2684 19.6807V46.7978L52.8003 33.5755L55.8323 12.6955L53.3687 12.2539C52.5352 12.2539 50.8088 11.6589 50.5716 9.27887C51.1245 6.1994 54.0319 0.525819 61.2377 2.46732C64.6539 3.15884 70.7315 6.1312 67.7115 12.4885C67.2943 13.5846 65.3265 15.3384 60.7927 13.5847L60.7334 13.5741L56.345 42.2209V64.5972L61.4088 49.3406L66.3792 30.735C64.813 30.595 62.639 29.7351 63.3258 27.0322C63.8904 25.7419 65.4953 23.2317 67.3981 23.5126C68.5278 22.5489 71.199 21.2964 72.8461 23.9956C74.3866 25.143 77.0818 28.0731 75.5386 30.615C74.8956 31.6741 73.1099 33.4637 71.1108 32.1496C70.9759 32.0886 70.8216 32.0203 70.6536 31.9476L61.4088 68.1571L63.4343 102.739V148H16.3409V140.372L18.8728 102.739L16.3409 71.717L12.7963 55.4433L7.22607 28.4899V16.3824C6.69715 16.5486 6.27467 16.7228 6.07368 16.8925C4.58764 17.9421 1.31834 19.1378 0.129533 15.5234C-0.140655 13.8349 -0.167674 10.2114 1.88575 9.22569C2.3811 7.49153 4.20939 4.43394 7.55972 6.07683C9.81128 6.21374 14.3414 7.39116 14.4495 11.0055C14.4945 12.5115 13.8821 15.5234 11.0722 15.5234C10.5956 15.6013 9.93755 15.7217 9.2516 15.8684V26.4557L16.3409 53.409V32.7019C15.3444 32.4674 13.8664 31.6829 12.3277 29.6877C12.0269 27.4937 13.1399 23.4347 19.9983 24.7512C20.9912 24.9886 22.3419 25.5056 23.4303 26.3217V20.7519C23.2372 20.7279 23.0768 20.7231 22.962 20.7435C21.4366 20.8795 18.5425 20.3684 19.1691 17.2356C19.6711 15.8925 21.1538 13.244 23.0689 13.3942C24.1514 12.3414 26.7605 10.8885 28.537 13.4998C30.1319 14.5507 32.9669 17.3217 31.5475 19.9978C30.956 21.1129 29.2578 23.0462 27.1965 21.859C27.1273 21.8328 27.0532 21.8051 26.9749 21.7762V26.9656C27.4544 25.2048 28.8211 23.2785 31.999 23.4067C32.8684 23.3858 34.0674 23.5424 35.077 24.0481V9.65668L33.5679 9.80071C32.8933 9.99013 31.3679 9.89681 30.6632 8.00815ZM26.9749 29.2066V49.8492L28.4941 71.717H30.5196V29.9637L28.7061 30.0484C28.3002 30.1415 27.4693 30.0694 26.9749 29.2066ZM33.5579 29.9005V67.14L35.077 64.5972V29.8334C34.6609 29.9211 34.1592 29.9531 33.5579 29.9005ZM19.8856 33.2052C21.4014 33.2658 22.5776 32.9247 23.4303 32.4619V62.563V71.717L19.8856 56.9689V33.2052ZM44.7305 22.5236C45.5051 22.8199 46.1718 22.7174 46.7238 22.4134V59.0031L44.6982 49.3406V22.517L44.7305 22.5236ZM40.6518 22.1307C40.6789 22.1211 40.7091 22.1127 40.7422 22.1053L41.1536 40.6952L39.8241 22.27C40.1262 22.2446 40.4095 22.1937 40.6518 22.1307Z" fill="#FCF5E2"/>
<path d="M76.321 80.5076C76.324 80.4249 76.3812 80.3718 76.4639 80.3749L76.905 80.3913C76.9877 80.3943 77.0408 80.4515 77.0377 80.5342L76.9502 82.8912C76.9339 83.3323 77.2657 83.6897 77.693 83.7055L78.6027 83.7393C78.6992 83.7429 78.7655 83.8144 78.7619 83.9108L78.7461 84.3381C78.7425 84.4346 78.671 84.501 78.5745 84.4974L72.8405 84.2845C72.7441 84.281 72.6777 84.2095 72.6813 84.113L72.6971 83.6857C72.7007 83.5892 72.7722 83.5229 72.8687 83.5264L77.0176 83.6805L76.2335 82.8646L76.321 80.5076ZM74.0436 74.557C74.114 74.5182 74.209 74.5631 74.2473 74.6473C75.4728 77.7018 77.0252 77.8974 78.4035 77.9486L78.4587 77.9507C78.5414 77.9537 78.5945 78.0109 78.5914 78.0936L78.5735 78.576C78.5704 78.6587 78.5132 78.7118 78.4305 78.7088L78.1962 78.7001C77.2038 78.6632 76.3686 78.4804 75.6448 77.9014L76.486 79.0368L74.0124 81.7194C73.9404 81.7995 73.8444 81.7821 73.7918 81.7112L73.4881 81.341C73.435 81.2838 73.4509 81.2292 73.4943 81.1756L75.3961 79.024C75.6411 78.7432 75.7361 78.4155 75.487 78.0612C74.3594 76.4596 73.9848 75.7694 73.6158 74.9276C73.5908 74.8576 73.6076 74.7754 73.6781 74.7366L74.0436 74.557ZM69.0073 75.9987C69.1191 75.9615 69.2141 76.0064 69.2371 76.1315C70.0812 79.4202 70.7887 80.0676 72.8424 80.1438L72.9527 80.1479C73.0492 80.1515 73.1155 80.223 73.112 80.3195L73.0961 80.7468C73.0925 80.8432 73.021 80.9096 72.9245 80.906L72.704 80.8978C71.6702 80.8595 70.9203 80.6108 70.3195 80.064L71.0714 81.3755L68.8346 84.7432C68.7616 84.8509 68.6227 84.8733 68.5303 84.7595L68.2266 84.3893C68.1735 84.3321 68.1623 84.2627 68.2057 84.2091L70.0626 81.4071C70.3256 81.0166 70.3394 80.6444 70.0949 80.1661L69.4916 78.9428C69.144 78.2674 68.8582 77.4148 68.5673 76.3274C68.5433 76.2299 68.5877 76.1488 68.6714 76.1243L69.0073 75.9987Z" fill="white"/>
<path d="M78.0308 68.7692C78.0233 68.8516 77.9634 68.9016 77.881 68.8942L72.8395 68.4379L72.2411 67.7051L72.3249 68.1559C72.3324 68.2258 72.2838 68.3045 72.2126 68.3257L71.803 68.4133C71.7318 68.4346 71.6407 68.3709 71.6206 68.286C71.438 67.397 71.4251 66.4679 71.5072 65.5612C71.6141 64.3799 71.8532 62.8088 72.7599 62.8909L78.3783 63.3994C78.4607 63.4068 78.5107 63.4668 78.5032 63.5492L78.4597 64.03C78.4523 64.1124 78.3923 64.1624 78.3099 64.1549L75.9884 63.9448L75.6688 67.4752C75.6365 67.8324 75.8339 67.9472 76.0399 67.9658L77.9494 68.1386C78.0318 68.1461 78.0817 68.206 78.0743 68.2884L78.0308 68.7692ZM72.8838 63.6638C72.4717 63.6265 72.3048 64.7055 72.2203 65.6396C72.1718 66.1754 72.1307 66.6287 72.1821 66.9796C72.2334 67.3305 72.3859 67.6351 72.8667 67.6786L74.9135 67.8639L75.274 63.8801L72.8838 63.6638ZM74.804 68.9204L75.1886 68.9552C75.2848 68.9639 75.3473 69.0388 75.3386 69.1349L75.2118 70.5361C75.172 70.9757 75.4843 71.3502 75.9102 71.3887L78.5339 71.6262C78.6301 71.6349 78.6925 71.7098 78.6838 71.806L78.6453 72.2318C78.6366 72.328 78.5617 72.3904 78.4655 72.3817L68.4513 71.4754C68.3551 71.4667 68.2927 71.3918 68.3014 71.2956L68.3399 70.8698C68.3486 70.7736 68.4235 70.7111 68.5197 70.7198L75.237 71.3278L74.4974 70.4715L74.6242 69.0703C74.633 68.9741 74.7079 68.9117 74.804 68.9204Z" fill="white"/>
<path d="M73.9645 53.6846C74.2316 51.8975 75.5856 50.9563 77.7409 51.2784C79.8281 51.5903 80.7208 52.6163 80.7032 54.1338C80.7033 54.4127 80.73 54.5144 80.9755 54.5511L81.2347 54.5898C81.3165 54.602 81.363 54.6647 81.3507 54.7466L81.2794 55.224C81.2671 55.3059 81.2044 55.3523 81.1226 55.3401L80.7815 55.2891L80.6523 54.7538C80.3641 56.4958 79.1895 57.4499 76.8704 57.1034C74.715 56.7812 73.6974 55.4716 73.9645 53.6846ZM77.6288 52.0287C75.8281 51.7596 74.8737 52.4537 74.6739 53.7906C74.4741 55.1275 75.1818 56.084 76.9825 56.3531C78.9606 56.6487 79.7534 55.9164 79.9532 54.5796C80.153 53.2427 79.6068 52.3243 77.6288 52.0287ZM70.9008 58.6936L80.8455 60.1799C80.941 60.1941 80.999 60.2725 80.9848 60.368L80.9216 60.7909C80.9073 60.8864 80.8289 60.9444 80.7334 60.9302L70.7887 59.4439C70.6932 59.4297 70.6352 59.3513 70.6494 59.2558L70.7127 58.8329C70.7269 58.7374 70.8053 58.6794 70.9008 58.6936Z" fill="white"/>
<path d="M79.6088 41.0107C79.737 40.1652 79.9094 39.3961 80.2227 38.3415C80.2488 38.2617 80.3231 38.2312 80.4029 38.2572L80.8426 38.3936C80.9224 38.4197 80.9529 38.494 80.9269 38.5738C80.8508 38.7994 80.7905 39.0135 80.7281 39.2412L83.9465 39.7291L84.0498 39.0472C84.0622 38.9654 84.1251 38.9191 84.2069 38.9315L84.6433 38.9977C84.7251 39.0101 84.7714 39.0729 84.759 39.1547L83.992 44.2142C83.9796 44.296 83.9168 44.3423 83.835 44.3299L83.3986 44.2637C83.3167 44.2513 83.2705 44.1885 83.2829 44.1067L83.3862 43.4248L80.8497 43.0403L80.2059 42.1335C80.1955 42.6621 80.2418 43.1853 80.393 43.7523C80.4215 43.8403 80.3682 43.9159 80.2822 43.9308L79.821 44.0283C79.7351 44.0432 79.6751 43.9783 79.6508 43.863C79.4165 42.7393 79.4827 41.8426 79.6088 41.0107ZM80.5325 39.9788C80.4337 40.3545 80.3643 40.7206 80.3043 41.1161C80.2837 41.2525 80.2651 41.3752 80.258 41.5137C80.2431 41.8881 80.527 42.2241 80.9225 42.284L83.4999 42.6747L83.7976 40.711C83.8204 40.561 83.7373 40.4647 83.5737 40.4399L80.5325 39.9788ZM76.7434 39.8509C78.3526 40.0948 78.6355 41.9094 78.3151 44.0232C77.9947 46.137 77.1866 47.7862 75.5774 47.5423C73.9682 47.2984 73.6853 45.4837 74.0057 43.3699C74.3262 41.2562 75.1342 39.6069 76.7434 39.8509ZM76.6297 40.6009C75.5387 40.4355 75.0105 41.5273 74.7149 43.4774C74.4192 45.4276 74.6002 46.6269 75.6911 46.7922C76.7821 46.9576 77.3103 45.8658 77.606 43.9157C77.9016 41.9656 77.7207 40.7663 76.6297 40.6009ZM79.4461 44.7527L84.3283 45.4928C84.4101 45.5052 84.4564 45.568 84.444 45.6498L84.3778 46.0862C84.3654 46.1681 84.3026 46.2143 84.2208 46.2019L81.6433 45.8112L82.3301 46.7105L82.1627 47.8151L83.9355 48.0839C84.0173 48.0963 84.0636 48.1591 84.0512 48.2409L83.985 48.6773C83.9726 48.7591 83.9098 48.8054 83.828 48.793L78.7686 48.026C78.6867 48.0136 78.6405 47.9508 78.6529 47.869L78.719 47.4326C78.7314 47.3508 78.7942 47.3045 78.8761 47.3169L81.4535 47.7076L81.621 46.603C81.6871 46.1666 81.3979 45.774 80.9751 45.7099L79.3386 45.4618C79.2568 45.4494 79.2105 45.3866 79.2229 45.3048L79.2891 44.8684C79.3015 44.7866 79.3643 44.7403 79.4461 44.7527Z" fill="white"/>
</svg>
