<svg width="138" height="150" viewBox="0 0 138 150" fill="none" xmlns="http://www.w3.org/2000/svg">
<path d="M21.9503 89.7829L54.9482 80.3468L81.4189 82.5243H97.0113C115.867 89.4925 128.075 85.4277 131.822 82.5243C139.074 76.7174 138.47 64.8619 137.261 59.66C121.596 26.2707 86.7372 18.6492 71.2657 19.0122C65.1738 19.5929 57.8491 23.8512 54.9482 25.9077C49.1464 24.7464 36.0923 28.3273 30.2904 30.2629C20.1373 34.0373 6.72058 53.3692 1.28139 62.5634C-1.03933 65.7571 0.314424 75.7497 1.28139 80.3468C5.05257 83.8309 16.632 88.0893 21.9503 89.7829Z" fill="#AB897D"/>
<path d="M59.8314 101.232C59.2512 89.3276 55.4801 76.6735 53.667 71.8345C64.1103 70.9635 75.4238 73.1652 79.7751 74.375L84.4891 80.9077L83.4013 85.9887C83.1112 101.086 91.4996 108.732 95.7301 110.668C109.654 114.732 117.003 124.217 118.937 128.451C121.258 137.452 116.52 146.235 113.861 149.501C110.38 150.953 95.9719 148.896 89.2031 147.686C84.8517 146.815 81.1047 144.662 79.7751 143.694C64.6904 131.209 60.194 110.184 59.8314 101.232Z" fill="#D9CDCF"/>
<path d="M118.41 19.0529C118.338 19.0122 118.317 18.9371 118.357 18.865L118.574 18.4805C118.615 18.4084 118.69 18.3874 118.762 18.428L120.817 19.5861C121.201 19.8028 121.671 19.6717 121.881 19.2992L122.328 18.5062C122.375 18.4221 122.469 18.3958 122.553 18.4432L122.926 18.6532C123.01 18.7006 123.036 18.7945 122.989 18.8787L120.171 23.8773C120.124 23.9614 120.03 23.9876 119.946 23.9402L119.574 23.7303C119.489 23.6829 119.463 23.5889 119.511 23.5048L121.549 19.888L120.465 20.2109L118.41 19.0529ZM112.077 18.3495C112.075 18.2691 112.159 18.2053 112.251 18.2099C115.527 18.5207 116.413 17.2306 117.09 16.029L117.117 15.981C117.158 15.9089 117.233 15.8879 117.305 15.9285L117.726 16.1656C117.798 16.2062 117.819 16.2813 117.778 16.3534L117.663 16.5577C117.175 17.4229 116.63 18.0813 115.784 18.4593L117.178 18.2321L118.429 21.6601C118.467 21.7608 118.408 21.8381 118.32 21.8523L117.852 21.9526C117.777 21.9736 117.736 21.9345 117.708 21.8714L116.667 19.1949C116.53 18.8484 116.282 18.6138 115.853 18.6728C113.913 18.9409 113.128 18.9575 112.211 18.8996C112.137 18.8898 112.072 18.8371 112.069 18.7567L112.077 18.3495ZM111.05 23.4864C111.068 23.37 111.152 23.3062 111.274 23.3431C114.583 24.1002 115.483 23.7682 116.492 21.9778L116.546 21.8816C116.594 21.7975 116.688 21.7713 116.772 21.8187L117.144 22.0287C117.228 22.0761 117.255 22.17 117.207 22.2541L117.099 22.4464C116.591 23.3476 116.026 23.9001 115.265 24.1835L116.775 24.1164L118.743 27.6479C118.805 27.7622 118.762 27.8959 118.618 27.9258L118.15 28.0261C118.075 28.0471 118.008 28.0252 117.98 27.9621L116.341 25.0274C116.114 24.6147 115.79 24.4319 115.253 24.4299L113.889 24.4055C113.129 24.4048 112.241 24.2681 111.141 24.0282C111.043 24.0048 110.991 23.9282 111.008 23.8425L111.05 23.4864Z" fill="white"/>
<path d="M108.405 12.5034C108.481 12.5342 108.512 12.6059 108.481 12.6827L106.601 17.3827L105.728 17.7464L106.184 17.7951C106.253 17.8079 106.314 17.877 106.314 17.9513L106.281 18.3688C106.281 18.4431 106.194 18.5122 106.107 18.5071C105.203 18.4277 104.309 18.1741 103.464 17.836C102.362 17.3954 100.925 16.7166 101.264 15.8714L103.359 10.6336C103.39 10.5567 103.461 10.526 103.538 10.5567L103.986 10.736C104.063 10.7668 104.094 10.8385 104.063 10.9153L103.197 13.0796L106.489 14.3962C106.822 14.5294 106.988 14.3732 107.065 14.1811L107.777 12.401C107.808 12.3241 107.88 12.2934 107.956 12.3241L108.405 12.5034ZM102.04 15.9739C101.886 16.3581 102.872 16.8268 103.743 17.1752C104.242 17.375 104.665 17.544 105.016 17.5953C105.367 17.6465 105.702 17.5876 105.882 17.1394L106.645 15.2312L102.931 13.7455L102.04 15.9739ZM107.626 15.6385L107.769 15.2799C107.805 15.1903 107.895 15.1518 107.984 15.1877L109.291 15.7102C109.701 15.8742 110.149 15.6821 110.308 15.2851L111.286 12.8391C111.322 12.7494 111.412 12.711 111.501 12.7469L111.898 12.9057C111.988 12.9415 112.026 13.0312 111.99 13.1208L108.256 22.4567C108.22 22.5464 108.13 22.5848 108.041 22.5489L107.644 22.3901C107.554 22.3542 107.516 22.2646 107.551 22.175L110.057 15.9126L109.024 16.3762L107.718 15.8536C107.628 15.8178 107.59 15.7281 107.626 15.6385Z" fill="white"/>
<path d="M97.5067 13.7189C97.4362 13.7722 97.3427 13.7484 97.2894 13.678L97.0395 13.3727C96.9763 13.2855 96.99 13.1752 97.0772 13.1119C97.6942 12.6992 97.8429 12.2816 98.1549 11.0516L98.528 9.58092C98.6162 9.23331 98.4795 9.09902 98.2789 9.04814L92.2626 7.52188C92.169 7.49814 92.1191 7.41433 92.1429 7.32075L92.2378 6.9464C92.2616 6.85281 92.3454 6.80292 92.439 6.82666L99.3912 8.59034C99.4848 8.61408 99.5346 8.69789 99.5109 8.79148L98.8733 11.305C98.507 12.7489 98.2344 13.2062 97.5067 13.7189ZM88.6523 14.461L88.7473 14.0866C88.7711 13.993 88.8549 13.9432 88.9484 13.9669L92.5582 14.8827C92.7588 14.9335 92.943 14.8806 93.0311 14.533L93.9808 10.7895C94.0046 10.696 94.0884 10.6461 94.182 10.6698L94.5964 10.775C94.69 10.7987 94.7399 10.8825 94.7161 10.9761L93.7699 14.7062L93.0663 15.0115L99.0559 16.531C99.1495 16.5548 99.1993 16.6386 99.1756 16.7322L99.0806 17.1065C99.0569 17.2001 98.9731 17.25 98.8795 17.2262L88.7721 14.6621C88.6785 14.6384 88.6286 14.5546 88.6523 14.461Z" fill="white"/>
<path d="M82.1322 10.9023C81.8025 10.8728 81.3503 10.8185 80.8444 10.7456L80.6726 12.669L80.0263 13.0821L82.8702 13.3362C83.0762 13.3547 83.2497 13.2732 83.2816 12.916L83.4547 10.9789C82.9302 10.9597 82.4619 10.9317 82.1322 10.9023ZM76.5127 13.3497L76.552 12.91C76.5593 12.8276 76.6192 12.7776 76.7016 12.7849L79.5043 13.0354C79.7103 13.0538 79.8838 12.9724 79.9157 12.6152L80.0938 10.6231C79.3718 10.4894 78.6247 10.3257 78.0612 10.123C77.9813 10.0881 77.9599 10.017 77.981 9.93579L78.114 9.53224C78.1351 9.45104 78.2213 9.41719 78.3012 9.45203C78.6248 9.55019 79.0433 9.67068 79.5055 9.76738L79.8591 5.81074L78.6364 5.70146C78.554 5.6941 78.504 5.63423 78.5113 5.5518L78.5506 5.11217C78.558 5.02974 78.6178 4.9797 78.7003 4.98707L86.5586 5.68938C86.641 5.69675 86.6911 5.75661 86.6837 5.83905L86.6444 6.27867C86.6371 6.3611 86.5772 6.41114 86.4948 6.40378L85.2858 6.29573L84.9923 9.57919L84.1417 10.2648C84.8897 10.2624 85.6414 10.2188 86.1608 10.1406C86.2445 10.1342 86.3232 10.1828 86.3296 10.2665L86.4026 10.6884C86.4102 10.7584 86.3479 10.8359 86.2493 10.8548C85.6588 10.9543 84.9221 10.9854 84.2153 10.9915L84.0384 12.9698L83.3922 13.3829L87.1428 13.7181C87.2252 13.7255 87.2753 13.7853 87.2679 13.8677L87.2286 14.3074C87.2212 14.3898 87.1614 14.4398 87.0789 14.4325L76.6378 13.4993C76.5554 13.492 76.5053 13.4321 76.5127 13.3497ZM80.2538 9.91734C80.9895 10.0523 81.7139 10.1586 82.1948 10.2016C82.5382 10.2323 83.0341 10.2628 83.5598 10.2682C83.9106 10.2165 84.1987 9.93755 84.233 9.55288L84.5302 6.2282L80.9857 5.91142C80.7796 5.893 80.6062 5.97444 80.5742 6.33163L80.2538 9.91734Z" fill="white"/>
</svg>
