<svg width="190" height="119" viewBox="0 0 190 119" fill="none" xmlns="http://www.w3.org/2000/svg">
<path d="M128.367 30.6266L131.768 36.0144L133.803 41.0321L142.053 54.6974C145.799 58.6668 144.946 63.3676 144.798 66.1641C144.266 76.2317 132.032 83.2065 125.235 84.4932C116.745 90.4339 96.1796 93.1077 86.9582 93.7021L64.9909 104.853L50.4172 110.249L29.667 112.981C21.5778 117.23 9.66349 117.487 4.41678 118.233L2.91118 114.238C3.95732 109.514 7.53493 104.117 9.85224 101.788L15.0424 96.3043C19.2133 91.9639 25.0746 86.4134 26.6438 85.6667L35.7255 80.1417C40.3156 76.0975 46.9291 69.6269 54.032 64.9418C57.9755 59.7939 68.7732 55.7171 71.2892 53.6564L74.9659 50.7852C89.9835 35.8399 104.918 28.7348 110.508 27.0504C119.824 24.3717 126.296 28.3184 128.367 30.6266Z" fill="#F2652D"/>
<path d="M146.673 49.2648L141.812 55.3252L130.657 37.7149C131.69 37.7575 133.844 37.547 134.199 36.3639C134.555 35.1808 138.612 29.8993 140.596 27.4064L152.684 16.2679L164.53 2.77152L167.478 2.45082L154.744 18.905L170.635 6.49433L172.557 8.95559L156.575 24.8333L165.762 17.6584L166.998 19.2407L151.6 31.266C153.316 30.3844 155.235 29.5932 156.524 29.1187L176.264 13.7023L180.658 19.3281L172.215 25.9212L182.305 21.4377L185.98 28.1907L170.042 36.9585L187.595 32.3067L188.616 37.453L173.749 41.7053C168.024 44.8173 153.313 48.0416 146.673 49.2648Z" fill="#00713D"/>
<path d="M122.46 15.9706C122.367 15.945 122.319 15.8602 122.345 15.7671L122.447 15.3947C122.473 15.3016 122.558 15.2534 122.651 15.279L132.705 18.0448C132.798 18.0704 132.846 18.1552 132.82 18.2483L132.718 18.6207C132.692 18.7138 132.608 18.762 132.515 18.7364L122.46 15.9706ZM122.661 20.1313L123.381 17.5114C123.407 17.4183 123.492 17.3701 123.585 17.3957L123.997 17.5091C124.09 17.5347 124.138 17.6195 124.113 17.7126L123.454 20.1065C123.414 20.2527 123.501 20.4054 123.647 20.4456L130.164 22.2382C130.257 22.2638 130.305 22.3486 130.279 22.4417L130.177 22.8141C130.151 22.9072 130.066 22.9554 129.973 22.9298L123.204 21.0677C122.779 20.9506 122.54 20.5702 122.661 20.1313ZM125.114 11.8367L125.216 11.4643C125.242 11.3712 125.327 11.323 125.42 11.3486L132.335 13.251C132.429 13.2766 132.477 13.3614 132.451 13.4545L131.983 15.1568C131.785 15.8749 131.534 16.3208 130.796 16.8188C130.725 16.8706 130.632 16.845 130.58 16.7735L130.336 16.4633C130.274 16.3749 130.294 16.2515 130.383 16.19C131.004 15.8031 131.127 15.4077 131.27 14.8891L131.504 14.0379C131.548 13.8783 131.494 13.7633 131.347 13.7231L125.23 12.0402C125.137 12.0146 125.088 11.9298 125.114 11.8367Z" fill="white"/>
<path d="M115.515 20.7377C113.518 20.8458 111.739 20.3896 111.651 18.7644C111.563 17.1392 113.283 16.4936 115.28 16.3855C117.277 16.2773 119.056 16.7335 119.144 18.3587C119.232 19.984 117.513 20.6296 115.515 20.7377ZM110.319 14.8169L110.179 12.2276L110.759 11.7265L110.318 11.7504C110.222 11.7556 110.149 11.6905 110.144 11.5941L110.123 11.2084C110.118 11.112 110.183 11.0394 110.28 11.0342L115.224 10.7665C115.321 10.7612 115.393 10.8264 115.398 10.9228L115.419 11.3084C115.425 11.4048 115.359 11.4774 115.263 11.4827L111.283 11.6982C111.076 11.7094 110.916 11.8147 110.935 12.1728L111.066 14.5831C111.088 14.9963 112.21 15.046 113.119 14.9968C113.863 14.9566 114.805 14.7674 115.564 14.4915C115.659 14.4587 115.758 14.4948 115.79 14.5897L115.921 14.9556C115.953 15.0368 115.903 15.1362 115.794 15.1697C114.941 15.4783 113.901 15.6728 113.144 15.7138C111.987 15.7764 110.368 15.7259 110.319 14.8169ZM112.409 18.7234C112.469 19.8253 113.645 20.1207 115.477 20.0215C117.308 19.9223 118.446 19.5016 118.386 18.3998C118.327 17.2979 117.15 17.0025 115.319 17.1017C113.487 17.2008 112.349 17.6216 112.409 18.7234ZM117.687 15.1777L117.413 10.123C117.408 10.0266 117.473 9.95402 117.57 9.9488L117.997 9.92568C118.093 9.92046 118.166 9.9856 118.171 10.082L118.31 12.6575L119.051 11.8024L120.594 11.7189C120.69 11.7137 120.763 11.7788 120.768 11.8752L120.789 12.2609C120.794 12.3573 120.729 12.4299 120.633 12.4351L119.09 12.5186C118.649 12.5425 118.324 12.9055 118.347 13.3324L118.444 15.1367C118.45 15.2331 118.385 15.3057 118.288 15.3109L117.861 15.334C117.765 15.3392 117.692 15.2741 117.687 15.1777Z" fill="white"/>
</svg>
