<svg width="92" height="184" viewBox="0 0 92 184" fill="none" xmlns="http://www.w3.org/2000/svg">
<path d="M5.41131 42.4929L11.5021 170.5L29.3869 169.649L27.2451 124.636L25.0363 78.2154L25.2959 45.5749L24.9613 38.5415L27.4304 31.1732L26.9236 20.5229L19.7185 8.78121L13.537 1.62324L9.71893 1.80491L2.0918 15.0578L1.30651 32.4162L5.41131 42.4929Z" fill="#9ECA4F"/>
<path d="M9.38764 121.289C10.8317 121.927 16.5385 119.918 19.2113 118.833C16.5079 114.014 9.77294 109.268 6.74341 107.498C7.02311 111.829 7.94353 120.651 9.38764 121.289Z" fill="#EAF1AE"/>
<path d="M5.38902 66.4856C6.56764 67.5361 12.6156 67.3751 15.4922 67.1633C14.3982 61.7467 9.44447 55.1634 7.10437 52.5488C6.04149 56.7567 4.21039 65.4352 5.38902 66.4856Z" fill="#EAF1AE"/>
<path d="M17.9032 154.063C19.0007 155.061 23.1829 155.999 25.1368 156.343C26.0347 156.301 26.5387 149.027 26.6784 145.395L24.3534 139.88L17.6361 148.45C17.2678 149.905 16.8056 153.065 17.9032 154.063Z" fill="#EAF1AE"/>
<path d="M17.8208 89.6535L24.5911 94.0189L26.0079 84.389L25.6251 76.3445C22.1543 79.0597 18.9761 86.3485 17.8208 89.6535Z" fill="#EAF1AE"/>
<path d="M21.6152 25.4076C19.2895 27.5734 17.7012 29.5744 17.1978 30.3042C19.3292 34.207 24.1409 35.443 26.2804 35.5731C26.5582 34.6011 27.2778 31.8466 27.9337 28.6051C28.5896 25.3636 27.5301 20.9604 26.9183 19.1639C26.1196 20.3427 23.9408 23.2417 21.6152 25.4076Z" fill="#EAF1AE"/>
<path d="M7.57418 21.2421C9.98599 23.3116 11.6543 25.2463 12.187 25.955C10.2161 29.9413 5.45852 31.3719 3.32611 31.5889C3.00899 30.6289 2.17798 27.906 1.39085 24.6938C0.603713 21.4817 1.48335 17.039 2.02157 15.2192C2.86752 16.3645 5.16237 19.1725 7.57418 21.2421Z" fill="#EAF1AE"/>
<path d="M11.7784 7.32353C14.312 10.1456 14.4545 13.1399 14.4545 13.1399C12.4836 17.1262 9.8009 16.645 9.8009 16.645C9.8009 16.645 6.38218 13.9875 5.59505 10.7753C4.80791 7.56315 6.63078 4.70664 7.169 2.88684C8.01495 4.03216 9.65528 4.95877 11.7784 7.32353Z" fill="#EAF1AE"/>
<path d="M16.9437 14.2085C15.0121 16.7322 15.5285 20.4527 15.5285 20.4527L20.6345 21.2004C20.6345 21.2004 22.337 17.6836 22.4426 14.3781C22.5483 11.0726 20.5357 8.91437 20.5357 8.91437C20.5357 8.91437 18.8753 11.6849 16.9437 14.2085Z" fill="#EAF1AE"/>
<path d="M55.0541 48.5297L24.9345 173.092L42.338 177.3L52.9295 133.498L63.852 88.3271L73.2718 57.0743L74.9267 50.2303L79.3666 43.8525L81.8726 33.4887L78.2566 20.1957L74.3353 11.5893L70.6199 10.6909L59.5765 21.267L53.9458 37.7056L55.0541 48.5297Z" fill="#9ECA4F"/>
<path d="M36.7322 125.267C37.9388 126.285 43.9802 125.96 46.85 125.671C45.6096 120.286 40.4792 113.839 38.0691 111.289C37.1207 115.524 35.5255 124.249 36.7322 125.267Z" fill="#3D8637"/>
<path d="M48.2906 71.5468C49.1266 72.8861 54.9762 74.4308 57.7964 75.0357C58.2683 69.53 55.3638 61.8201 53.8526 58.6533C51.6502 62.3931 47.4546 70.2075 48.2906 71.5468Z" fill="#3D8637"/>
<path d="M35.6953 159.113C36.4682 160.38 40.2183 162.455 41.9967 163.335C42.8705 163.546 45.3979 156.707 46.5523 153.26L45.8704 147.315L37.0159 153.652C36.2536 154.945 34.9224 157.847 35.6953 159.113Z" fill="#3D8637"/>
<path d="M53.7155 97.2768L58.9866 103.369L63.052 94.5247L64.9448 86.6967C60.8509 88.3273 55.7528 94.4295 53.7155 97.2768Z" fill="#3D8637"/>
<path d="M75.4065 36.6847C72.566 38.1099 70.4795 39.584 69.7913 40.143C70.7403 44.4874 75.011 47.0255 77.0277 47.7515C77.5674 46.8967 79.032 44.4553 80.5722 41.5287C82.1124 38.602 82.3326 34.0785 82.2502 32.1826C81.1525 33.0894 78.247 35.2595 75.4065 36.6847Z" fill="#3D8637"/>
<path d="M63.1015 28.7429C64.8348 31.4067 65.8923 33.7322 66.2044 34.5621C63.1929 37.834 58.225 37.8703 56.1175 37.4794C56.0829 36.4691 56.0504 33.6223 56.1975 30.3184C56.3445 27.0144 58.4369 22.9979 59.4648 21.4026C59.9549 22.7395 61.3683 26.0791 63.1015 28.7429Z" fill="#3D8637"/>
<path d="M71.0456 16.5657C72.6844 19.9859 71.9798 22.8997 71.9798 22.8997C68.9683 26.1717 66.5288 24.9561 66.5288 24.9561C66.5288 24.9561 63.9945 21.4451 64.1416 18.1412C64.2886 14.8372 66.8406 12.6079 67.8685 11.0127C68.3585 12.3495 69.6725 13.6997 71.0456 16.5657Z" fill="#3D8637"/>
<path d="M74.0713 24.6248C71.5085 26.5041 70.9588 30.2198 70.9588 30.2198L75.649 32.372C75.649 32.372 78.2709 29.4752 79.3011 26.3325C80.3312 23.1898 79.006 20.5531 79.006 20.5531C79.006 20.5531 76.6341 22.7455 74.0713 24.6248Z" fill="#3D8637"/>
<path d="M24.4084 53.8457L14.6219 181.623L32.4746 182.991L35.916 138.058L39.465 91.721L43.7592 59.3632L44.2969 52.3424L47.6583 45.336L48.4725 34.7048L42.7748 22.1622L37.526 14.2947L33.7148 14.0028L24.5072 26.2107L21.5812 43.3388L24.4084 53.8457Z" fill="#41833B"/>
<path d="M18.6106 132.528C19.9647 133.339 25.8761 132.051 28.6625 131.306C26.5759 126.189 20.4795 120.647 17.6922 118.516C17.4341 122.848 17.2565 131.716 18.6106 132.528Z" fill="#88C577"/>
<path d="M21.4206 77.6509C22.4603 78.839 28.4817 79.4272 31.3624 79.5728C30.9467 74.0625 26.8452 66.9171 24.8464 64.0332C23.2713 68.0774 20.381 76.4627 21.4206 77.6509Z" fill="#88C577"/>
<path d="M23.0086 166.104C23.9743 167.23 28.0083 168.678 29.9046 169.262C30.801 169.33 32.2006 162.174 32.7884 158.588L31.1633 152.828L23.4377 160.501C22.8923 161.9 22.043 164.978 23.0086 166.104Z" fill="#88C577"/>
<path d="M30.8953 102.179L37.0737 107.348L39.6706 97.9676L40.2856 89.9376C36.5056 92.2027 32.4504 99.0424 30.8953 102.179Z" fill="#88C577"/>
<path d="M42.6021 38.8952C40.0264 40.7568 38.2029 42.546 37.6131 43.2079C39.2454 47.3444 43.8674 49.1659 45.9744 49.5596C46.3703 48.6294 47.425 45.9851 48.4767 42.8496C49.5284 39.714 49.0216 35.2136 48.6367 33.3553C47.6983 34.4263 45.1778 37.0336 42.6021 38.8952Z" fill="#88C577"/>
<path d="M29.1848 33.0268C31.3221 35.3787 32.7383 37.5049 33.1793 38.2741C30.7305 41.986 25.8326 42.8172 23.6897 42.7689C23.4937 41.7771 23.0059 38.9723 22.622 35.6874C22.2382 32.4026 23.6605 28.1028 24.4196 26.3635C25.1174 27.6047 27.0474 30.6749 29.1848 33.0268Z" fill="#88C577"/>
<path d="M35.0775 19.7346C37.2427 22.8483 37.0138 25.8373 37.0138 25.8373C34.565 29.5492 31.9624 28.7399 31.9624 28.7399C31.9624 28.7399 28.8986 25.68 28.5147 22.3952C28.1309 19.1103 30.293 16.5012 31.0521 14.7619C31.75 16.003 33.2631 17.1254 35.0775 19.7346Z" fill="#88C577"/>
<path d="M39.3534 27.2066C37.1246 29.472 37.1769 33.2278 37.1769 33.2278L42.1512 34.6013C42.1512 34.6013 44.2755 31.322 44.7892 28.0549C45.3028 24.7878 43.5725 22.3973 43.5725 22.3973C43.5725 22.3973 41.5822 24.9412 39.3534 27.2066Z" fill="#88C577"/>
<path d="M66.6966 128.768C66.6881 128.695 66.746 128.639 66.8065 128.627L67.2528 128.562C67.3435 128.544 67.4259 128.609 67.4308 128.696C67.538 131.04 68.2731 133.441 70.8024 134.127L71.0553 134.196C71.1352 134.217 71.174 134.285 71.1523 134.365L71.0259 134.831C71.0042 134.911 70.9365 134.949 70.8567 134.928L70.5771 134.852C69.4722 134.552 68.7638 134.003 68.2149 133.339L68.8165 134.546L64.9956 137.725C64.9243 137.777 64.8275 137.765 64.7754 137.694L64.5196 137.267C64.4771 137.213 64.4988 137.133 64.5532 137.091L67.7868 134.338C68.0828 134.089 68.1828 133.774 68.0129 133.399C66.8895 131.007 66.7586 129.857 66.6966 128.768ZM64.1528 127.135L64.5788 127.251C64.6586 127.272 64.6974 127.34 64.6758 127.42L61.9311 137.537C61.9094 137.617 61.8417 137.656 61.7618 137.634L61.3359 137.518C61.256 137.497 61.2172 137.429 61.2389 137.349L63.9836 127.232C64.0052 127.152 64.0729 127.113 64.1528 127.135Z" fill="white"/>
<path d="M73.5758 127.802C73.5505 127.895 73.4659 127.943 73.3727 127.918L63.6683 125.285C63.5752 125.26 63.5267 125.175 63.5519 125.082L63.6639 124.67C63.6892 124.576 63.7738 124.528 63.867 124.553L70.3765 126.319L69.7969 125.347L70.2014 123.856C70.2267 123.763 70.3113 123.715 70.4045 123.74L70.7772 123.841C70.8704 123.866 70.9189 123.951 70.8936 124.044L70.4892 125.535C70.3736 125.961 70.6161 126.384 71.0288 126.496L73.5714 127.186C73.6645 127.211 73.713 127.296 73.6878 127.389L73.5758 127.802ZM69.1773 116.99C69.2777 116.989 69.3564 117.067 69.3409 117.177C69.0802 120.351 70.2041 122.214 71.7749 122.64L72.6402 122.874C72.9863 122.968 73.1228 122.834 73.177 122.634L74.2171 118.8C74.2423 118.707 74.3269 118.659 74.4201 118.684L74.7929 118.785C74.886 118.81 74.9345 118.895 74.9093 118.988L73.6164 123.754C73.5911 123.847 73.5065 123.895 73.4133 123.87L71.5363 123.361C69.3398 122.765 68.3261 120.075 68.5654 117.138C68.5773 117.042 68.6353 116.986 68.7357 116.985L69.1773 116.99Z" fill="white"/>
<path d="M66.9366 112.606C66.9619 112.513 67.0465 112.465 67.1397 112.49L76.8441 115.123C76.9372 115.148 76.9858 115.233 76.9605 115.326L76.8485 115.739C76.8232 115.832 76.7386 115.88 76.6454 115.855L72.7983 114.811L73.3778 115.783L72.9734 117.274C72.9481 117.367 72.8635 117.416 72.7703 117.39L72.3975 117.289C72.3044 117.264 72.2559 117.179 72.2811 117.086L72.6856 115.595C72.8012 115.169 72.5587 114.746 72.146 114.634L66.941 113.222C66.8479 113.197 66.7994 113.112 66.8246 113.019L66.9366 112.606ZM74.6723 106.745L75.045 106.846C75.1382 106.871 75.1867 106.956 75.1614 107.049L74.0455 111.162C73.9913 111.362 74.0412 111.547 74.3873 111.641L75.7185 112.002C75.9315 112.06 76.0632 111.995 76.1174 111.796L77.2045 107.789C77.2297 107.696 77.3144 107.647 77.4075 107.672L77.7803 107.774C77.8735 107.799 77.922 107.884 77.8967 107.977L76.5749 112.849C76.5496 112.942 76.465 112.991 76.3718 112.965L74.202 112.377L73.9083 111.668L73.7927 112.094C73.7674 112.187 73.6828 112.236 73.5896 112.21L73.2169 112.109C73.1237 112.084 73.0752 111.999 73.1005 111.906L74.1695 107.966C74.2236 107.766 74.1738 107.581 73.8277 107.487L72.2303 107.054C71.8309 106.946 71.4212 108.192 71.219 108.938C71.0168 109.683 70.8741 110.631 70.8656 111.557C70.8634 111.671 70.7884 111.736 70.6747 111.734L70.3069 111.72C70.2065 111.721 70.1483 111.62 70.1506 111.506C70.1674 110.496 70.3245 109.495 70.5304 108.737C70.7976 107.751 71.3639 106.033 72.2425 106.271L74.013 106.752L74.3067 107.46L74.4692 106.861C74.4945 106.768 74.5791 106.719 74.6723 106.745Z" fill="white"/>
<path d="M74.0099 97.5438C74.2338 96.7184 74.594 95.6014 75.033 94.5628C75.068 94.4866 75.1453 94.4647 75.2216 94.4997L75.6428 94.6854C75.7058 94.7168 75.741 94.7978 75.706 94.874C75.5938 95.1294 75.4744 95.4115 75.3648 95.7104L80.1304 97.0033L80.3507 96.1913C80.3724 96.1114 80.4401 96.0726 80.52 96.0943L80.9459 96.2099C81.0258 96.2315 81.0646 96.2992 81.0429 96.3791L79.472 102.17C79.4503 102.25 79.3826 102.288 79.3027 102.267L78.8768 102.151C78.7969 102.13 78.7581 102.062 78.7797 101.982L79 101.17L74.9266 100.065L74.3967 99.1207C74.3188 99.6713 74.2941 100.236 74.3674 100.756C74.3857 100.847 74.3241 100.916 74.237 100.921L73.7677 100.965C73.6806 100.97 73.6285 100.899 73.6174 100.782C73.5239 99.5985 73.7896 98.3558 74.0099 97.5438ZM75.0996 96.4245C74.9332 96.8796 74.7971 97.3286 74.6888 97.728C74.6238 97.9676 74.5649 98.2374 74.5023 98.5206C74.475 98.8847 74.7126 99.2207 75.0853 99.3219L79.1987 100.438L79.8343 98.0949C79.8885 97.8952 79.8386 97.7102 79.4925 97.6163L75.0996 96.4245ZM70.1559 101.372L79.8603 104.004C79.9535 104.03 80.002 104.114 79.9767 104.207L79.8648 104.62C79.8395 104.713 79.7549 104.762 79.6617 104.737L75.8145 103.693L76.3941 104.665L75.9896 106.156C75.9643 106.249 75.8797 106.297 75.7865 106.272L75.4138 106.171C75.3206 106.146 75.2721 106.061 75.2974 105.968L75.7019 104.477C75.8174 104.051 75.5749 103.628 75.1623 103.516L69.9573 102.104C69.8641 102.079 69.8156 101.994 69.8409 101.901L69.9529 101.488C69.9781 101.395 70.0628 101.346 70.1559 101.372Z" fill="white"/>
<path d="M78.7617 84.2958C78.7531 84.222 78.8111 84.1663 78.8716 84.1541L79.3179 84.0894C79.4086 84.0711 79.491 84.1363 79.4959 84.2234C79.6031 86.5677 80.3382 88.9681 82.8675 89.6543L83.1204 89.7229C83.2003 89.7445 83.2391 89.8122 83.2174 89.8921L83.091 90.358C83.0693 90.4379 83.0016 90.4767 82.9218 90.455L82.6422 90.3792C81.5373 90.0794 80.8289 89.53 80.28 88.8665L80.8816 90.0731L77.0607 93.2525C76.9894 93.3046 76.8926 93.2926 76.8405 93.2213L76.5846 92.7946C76.5422 92.7403 76.5639 92.6604 76.6183 92.618L79.8519 89.8651C80.1479 89.6168 80.2479 89.3009 80.078 88.9261C78.9546 86.5347 78.8237 85.3844 78.7617 84.2958ZM76.2179 82.6624L76.6439 82.7779C76.7237 82.7996 76.7625 82.8673 76.7409 82.9472L73.9962 93.0642C73.9745 93.1441 73.9068 93.1829 73.8269 93.1612L73.401 93.0457C73.3211 93.024 73.2823 92.9563 73.3039 92.8764L76.0486 82.7594C76.0703 82.6795 76.138 82.6407 76.2179 82.6624Z" fill="white"/>
<path d="M79.6117 75.2626C80.0668 73.5853 81.521 72.8079 83.6243 73.3785C85.661 73.9311 86.4283 75.0539 86.2524 76.4925C86.2201 76.7696 86.2347 76.8736 86.4744 76.9386L86.7273 77.0072C86.8072 77.0289 86.846 77.0966 86.8243 77.1765L86.6979 77.6424C86.6762 77.7223 86.6085 77.7611 86.5287 77.7394L86.1959 77.6491L86.1298 77.1024C85.659 78.7325 84.3814 79.5436 82.1183 78.9296C80.0151 78.359 79.1567 76.9399 79.6117 75.2626ZM83.4257 74.1107C81.6685 73.634 80.6398 74.2124 80.3039 75.4504C79.9681 76.6884 80.5598 77.7207 82.317 78.1975C84.2472 78.7211 85.1198 78.086 85.4556 76.848C85.7915 75.61 85.3559 74.6344 83.4257 74.1107ZM76.1885 79.1359L85.8929 81.7687C85.9861 81.7939 86.0346 81.8786 86.0093 81.9717L85.8973 82.3844C85.872 82.4776 85.7874 82.5261 85.6942 82.5008L81.8471 81.4571L82.4267 82.429L82.0222 83.9199C81.9969 84.0131 81.9123 84.0616 81.8191 84.0363L81.4464 83.9352C81.3532 83.9099 81.3047 83.8253 81.3299 83.7321L81.7344 82.2412C81.85 81.8152 81.6075 81.3921 81.1948 81.2801L75.9899 79.8681C75.8967 79.8428 75.8482 79.7582 75.8735 79.665L75.9854 79.2523C76.0107 79.1591 76.0953 79.1106 76.1885 79.1359Z" fill="white"/>
</svg>
