<svg width="125" height="134" viewBox="0 0 125 134" fill="none" xmlns="http://www.w3.org/2000/svg">
<path d="M1.6002 86.7051C-4.63948 55.4254 8.8665 42.1249 16.3995 39.3846C20.2393 20.4564 45.198 16.66 57.1974 17.1279C79.2763 15.6842 92.3956 26.8192 96.1954 32.5672L110.795 94.525L34.9985 126.005C9.23983 117.985 2.00019 96.4633 1.6002 86.7051Z" fill="#AFD26E"/>
<path d="M33.7964 27.5524C63.5549 16.3238 81.1273 22.8738 86.1937 27.5524L98.3931 48.0044L92.5934 101.34L70.5945 127.206L25.9968 116.98C1.19801 100.298 6.73106 66.3177 12.5974 51.4131C14.0374 42.751 27.33 31.8968 33.7964 27.5524Z" fill="#E3F4A7"/>
<path d="M17.8442 106.159L28.4436 121.598C38.5231 133.95 63.3085 134.765 74.4413 133.629C100.2 130.421 116.106 107.83 120.839 96.9354C129.159 84.5839 123.105 71.8715 119.039 67.0592C117.439 41.875 102.107 32.1035 94.6403 30.3658C82.1609 19.458 62.7752 22.88 54.6423 25.9545C33.6834 30.446 28.4436 47.7434 28.4436 55.8306C24.9238 56.7931 19.9107 63.7174 17.8442 67.0592C11.6045 72.9943 15.2443 95.5986 17.8442 106.159Z" fill="#C2E188"/>
<path d="M70.7963 121.066L62.5967 133.097H74.1961L87.7955 106.83L105.795 92.5936L116.994 91.3905L122.794 85.1747V83.9716L115.794 89.5859H105.795L114.794 81.5655L119.794 68.5323L118.794 67.1287L113.394 80.5629L88.7954 100.012L94.1951 73.7456L107.194 60.1108L113.394 54.6971V52.2909L105.795 57.7047L107.994 46.2756V40.4608H107.194L102.795 58.3062L94.1951 68.5323L94.7951 60.9129L91.9952 40.4608L89.7953 29.6332L88.7954 29.0317V31.6383L90.1953 48.2807C89.2354 49.4036 74.0628 33.2424 66.5965 25.0215L65.1966 25.623L71.7963 32.8414C75.6361 41.1826 85.6622 49.2833 90.1953 52.2909L88.7954 80.5629L77.396 71.941L72.9962 50.4863L58.3969 30.4353V26.6256H56.397V30.4353L68.3964 50.4863H65.1966L52.9972 41.6639L43.5977 33.844H41.5978L43.5977 36.4506L61.1968 52.2909L69.7964 55.4991L71.7963 76.5527L87.7955 87.7813L76.596 114.048L54.7971 95.2002L39.3979 59.1083L37.598 63.319L49.5974 95.2002L33.7982 87.7813L16.399 72.743V76.5527L28.7984 87.7813L56.397 106.83H43.5977L20.7988 100.012L36.598 108.233L61.1968 111.843L70.7963 121.066Z" fill="#DAF6A5"/>
<path d="M113.848 32.6688C113.785 32.6156 113.778 32.5379 113.831 32.4745L114.115 32.1361C114.168 32.0727 114.246 32.0658 114.309 32.1189L122.345 38.8506C122.408 38.9038 122.415 38.9815 122.362 39.0449L122.078 39.3833C122.025 39.4467 121.948 39.4536 121.884 39.4004L118.205 36.318C118.046 36.1852 117.857 36.1529 117.627 36.4278L115.723 38.7011C115.669 38.7645 115.592 38.7714 115.528 38.7182L115.158 38.4082C115.095 38.3551 115.088 38.2773 115.141 38.2139L117.036 35.9512L117.803 35.9815L113.848 32.6688ZM115.469 31.3996C115.491 31.3096 115.585 31.2622 115.666 31.2942C117.469 32.0847 119.661 32.5178 120.997 31.5676L118.385 29.3798C118.322 29.3266 118.315 29.2489 118.368 29.1855L118.651 28.8471C118.704 28.7837 118.782 28.7768 118.846 28.83L121.521 31.0709L122.034 30.4576C122.088 30.3942 122.165 30.3873 122.229 30.4405L122.599 30.7505C122.662 30.8036 122.669 30.8814 122.616 30.9448L122.102 31.5581L124.788 33.8079C124.851 33.861 124.858 33.9387 124.805 34.0022L124.522 34.3405C124.468 34.404 124.391 34.4108 124.327 34.3577L121.578 32.0547C121.127 32.3785 120.542 32.626 120.015 32.7606L121.336 32.7517L122.852 37.2784C122.878 37.3544 122.829 37.4567 122.732 37.4653L122.21 37.5505C122.133 37.5573 122.08 37.5131 122.064 37.4459L120.742 33.5678C120.622 33.1966 120.398 32.9912 119.985 32.9689C117.475 32.8282 116.482 32.3383 115.424 31.9911C115.353 31.968 115.327 31.892 115.341 31.832L115.469 31.3996Z" fill="white"/>
<path d="M107.859 31.9899C107.794 31.9392 107.784 31.8617 107.835 31.7964L114.012 23.8447C114.062 23.7794 114.14 23.7696 114.205 23.8204L114.554 24.0912C114.619 24.1419 114.629 24.2194 114.578 24.2847L111.946 27.6724L113.067 27.512L113.949 28.1974L116.081 25.4524C116.132 25.3871 116.209 25.3773 116.275 25.4281L116.623 25.6989C116.689 25.7497 116.698 25.8271 116.648 25.8924L110.361 33.9857C110.31 34.0511 110.233 34.0608 110.167 34.01L109.819 33.7392C109.753 33.6885 109.743 33.6111 109.794 33.5457L113.509 28.7638L112.627 28.0784C112.278 27.8076 111.794 27.8684 111.532 28.2061L108.401 32.2364C108.35 32.3017 108.273 32.3115 108.208 32.2607L107.859 31.9899ZM105.067 25.332L108.527 20.8769C108.578 20.8115 108.656 20.8018 108.721 20.8526L109.102 21.1487C109.167 21.1995 109.177 21.2769 109.126 21.3423L107.696 23.1832L109.973 24.9516C110.256 25.1716 110.459 25.0675 110.586 24.9041L111.762 23.39C111.813 23.3246 111.891 23.3149 111.956 23.3657L112.337 23.6618C112.403 23.7126 112.412 23.79 112.362 23.8554L109.256 27.853L108.316 27.9612L108.741 28.134C108.804 28.1654 108.844 28.2488 108.823 28.3202L108.676 28.7123C108.655 28.7837 108.553 28.8261 108.47 28.7971C107.634 28.4794 106.921 28.048 106.257 27.5318C105.32 26.8041 104.508 26.0509 105.067 25.332ZM105.784 25.6449C105.53 25.9717 105.967 26.3985 106.708 26.9739C107.1 27.2785 107.351 27.4731 107.674 27.6193C107.997 27.7655 108.42 27.6926 108.632 27.4203L109.892 25.7973L107.256 23.7496L105.784 25.6449Z" fill="white"/>
<path d="M97.1528 19.6002C95.8187 18.8214 95.0854 17.451 95.8852 16.0811C96.6223 14.8185 98.0024 14.6978 99.28 15.2999C99.3703 15.3367 99.4687 15.2504 99.5382 15.1312L99.6981 14.8573C99.7399 14.7858 99.8153 14.766 99.8868 14.8077L100.304 15.0511C100.375 15.0928 100.395 15.1683 100.353 15.2397L100.2 15.5018L99.6443 15.4966C100.953 16.2924 101.65 17.6419 100.864 18.9879C100.065 20.3578 98.5107 20.393 97.1528 19.6002ZM96.5403 16.4636C95.8519 17.6429 96.6925 18.501 97.5144 18.9808C98.3601 19.4745 99.5207 19.7847 100.209 18.6055C100.863 17.4858 100.057 16.5681 99.2112 16.0743C98.3893 15.5945 97.194 15.3439 96.5403 16.4636ZM94.3017 21.3377C95.1223 19.9321 96.9133 20.3388 98.6405 21.3472C100.368 22.3555 101.602 23.7151 100.782 25.1207C99.9611 26.5263 98.1702 26.1196 96.443 25.1113C94.7158 24.1029 93.4811 22.7433 94.3017 21.3377ZM94.9569 21.7202C94.4005 22.6731 95.2203 23.567 96.8046 24.4919C98.3889 25.4168 99.5702 25.6912 100.127 24.7383C100.683 23.7853 99.8631 22.8915 98.2789 21.9666C96.6946 21.0417 95.5132 20.7672 94.9569 21.7202ZM101.315 21.6628L103.867 17.2912C103.916 17.2078 104.01 17.183 104.094 17.2317L104.463 17.4473C104.546 17.496 104.571 17.5903 104.522 17.6737L103.862 18.8053L104.951 18.4989L106.285 19.2778C106.369 19.3264 106.393 19.4208 106.345 19.5041L106.15 19.8377C106.101 19.9211 106.007 19.9458 105.924 19.8972L104.589 19.1183C104.208 18.8958 103.737 19.0197 103.521 19.389L102.61 20.9494L103.699 20.643L105.033 21.4219C105.117 21.4705 105.142 21.5649 105.093 21.6483L104.898 21.9818C104.85 22.0652 104.755 22.09 104.672 22.0413L103.457 21.332C102.956 21.0399 102.485 21.1638 102.2 21.6522L101.97 22.0453C101.922 22.1287 101.827 22.1535 101.744 22.1048L101.375 21.8892C101.291 21.8405 101.266 21.7462 101.315 21.6628Z" fill="white"/>
</svg>
