<svg width="98" height="86" viewBox="0 0 98 86" fill="none" xmlns="http://www.w3.org/2000/svg">
<path d="M44.4637 84.3772C15.3832 82.9931 3.09431 50.7572 0.584919 34.8123C1.87079 21.5339 16.4463 11.5057 23.5734 8.15132C37.594 7.37536 46.694 14.8237 49.4914 18.6449C58.448 15.1145 70.7629 18.0528 75.8008 19.9632C98.3991 25.7682 99.3487 49.9826 96.9988 61.3642C91.358 71.2119 80.9309 78.7739 76.4224 81.324C70.237 84.9202 52.5394 84.8579 44.4637 84.3772Z" fill="#B39C71"/>
<path d="M40.0196 74.3295L35.8694 68.0564L39.1933 63.8239L45.2268 66.4348C49.7055 69.3279 55.5551 68.3174 57.3011 69.5704L56.4235 73.6677C51.2851 78.3687 43.3466 76.0677 40.0196 74.3295Z" fill="#A89166"/>
<path d="M25.43 55.2244L24.8609 56.1607L26.917 58.0518C27.7394 58.8082 30.705 58.3243 32.085 57.9878L30.5063 54.7841L27.881 53.8293L25.43 55.2244Z" fill="#A89166"/>
<path d="M19.9685 41.0985L19.7273 41.6481L20.7746 42.865C21.1935 43.3517 22.597 43.1567 23.2464 42.9984L22.3839 41.0003L21.0953 40.333L19.9685 41.0985Z" fill="#A89166"/>
<path d="M19.1879 62.3284L17.7195 56.3066L25.3932 61.6127L29.3033 67.8365L27.0451 68.3872C24.3428 67.7702 20.681 64.0909 19.1879 62.3284Z" fill="#A89166"/>
<path d="M69.3533 13.2224C69.2579 13.2074 69.2005 13.1285 69.2155 13.0331L70.7803 3.10047C70.7953 3.00509 70.8742 2.9477 70.9696 2.96273L71.392 3.02927C71.4873 3.04429 71.5447 3.12315 71.5297 3.21853L70.9094 7.15617L71.8126 6.47464L73.3386 6.71505C73.434 6.73007 73.4914 6.80893 73.4764 6.90431L73.4163 7.28581C73.4013 7.38118 73.3224 7.43858 73.227 7.42355L71.701 7.18314C71.265 7.11446 70.8707 7.40142 70.8042 7.8238L69.9649 13.1512C69.9499 13.2466 69.871 13.304 69.7756 13.2889L69.3533 13.2224ZM61.636 8.58562C61.608 8.49743 61.646 8.4336 61.7342 8.4056C64.6509 7.44085 65.1997 6.17289 65.5346 4.04738L65.5603 3.88388L63.2849 3.52541C63.2032 3.51253 63.1573 3.44945 63.1702 3.36769L63.2388 2.93169C63.2517 2.84994 63.3148 2.80403 63.3966 2.81691L68.9011 3.68409C68.9828 3.69697 69.0287 3.76006 69.0159 3.84181L68.9472 4.27781C68.9343 4.35956 68.8712 4.40548 68.7895 4.3926L66.3097 4.00193L66.2668 4.27444C66.0586 5.59607 65.7627 6.49896 65.1341 7.20979L66.2589 6.45146L68.7511 9.51105C68.8085 9.58991 68.782 9.66951 68.7031 9.72691L68.3153 9.973C68.2543 10.0053 68.1726 9.99241 68.1245 9.94294L65.9839 7.39952C65.821 7.19234 65.5758 7.15371 65.3277 7.31011C63.5986 8.44798 62.9318 8.69202 61.9531 9.05448C61.8785 9.08462 61.7989 9.05811 61.7709 8.96992L61.636 8.58562Z" fill="white"/>
<path d="M57.5248 7.02119C57.4285 7.02788 57.3549 6.96386 57.3482 6.86754L56.9976 1.81763C56.9909 1.72131 57.0549 1.64773 57.1512 1.64104L57.5778 1.61142C57.6741 1.60473 57.7477 1.66876 57.7544 1.76508L57.933 4.33819L58.661 3.47189L60.2021 3.36488C60.2984 3.3582 60.372 3.42222 60.3787 3.51854L60.4055 3.90382C60.4121 4.00014 60.3481 4.07372 60.2518 4.0804L58.7107 4.18741C58.2704 4.21799 57.9502 4.58587 57.9799 5.01243L58.105 6.81499C58.1117 6.91131 58.0477 6.98488 57.9514 6.99157L57.5248 7.02119ZM49.3426 7.06393C49.3074 6.95576 49.3843 6.86747 49.4934 6.84607C51.9008 6.47151 54.0361 5.5628 53.9186 3.87032L53.8937 3.51256C53.8823 3.34744 53.793 3.25685 53.6417 3.26736L49.5412 3.55208C49.4449 3.55877 49.3713 3.49475 49.3646 3.39843L49.3379 3.01315C49.3312 2.91683 49.3952 2.84325 49.4915 2.83657L54.4176 2.49452C54.5139 2.48783 54.5875 2.55185 54.5942 2.64817L54.6773 3.84529C54.8368 6.14321 51.7991 7.19754 49.6237 7.52833C49.5421 7.54783 49.4695 7.49756 49.45 7.41596L49.3426 7.06393ZM51.5218 11.7657L51.325 8.9311C51.3183 8.83478 51.3823 8.7612 51.4786 8.75451L58.3724 8.27584C58.4687 8.26915 58.5423 8.33317 58.549 8.42949L58.7162 10.8375L58.1432 11.3474L58.5835 11.3168C58.6799 11.3101 58.7534 11.3741 58.7601 11.4704L58.7869 11.8557C58.7936 11.952 58.7295 12.0256 58.6332 12.0323L52.3449 12.4689C51.9046 12.4995 51.5533 12.2197 51.5218 11.7657ZM52.2499 11.3003C52.2748 11.6581 52.4466 11.7429 52.653 11.7286L57.7167 11.377C57.868 11.3665 57.9833 11.234 57.9727 11.0827L57.8619 9.48652C57.8371 9.12876 57.6653 9.04391 57.4589 9.05824L52.12 9.42895L52.2499 11.3003Z" fill="white"/>
</svg>
