<svg width="96" height="106" viewBox="0 0 96 106" fill="none" xmlns="http://www.w3.org/2000/svg">
<path d="M3.8617 47.4978C2.96264 36.7091 12.7274 28.0182 17.7222 25.0213C24.615 18.9062 32.3319 16.9791 35.3288 16.7799C44.3194 12.2846 57.3058 14.9069 62.6751 16.7799L74.6626 22.3991C90.8457 29.8912 94.6417 51.9931 94.5168 62.1075C93.6178 72.2968 87.8988 82.8358 85.1516 86.8316L74.6626 93.5746C64.1736 103.464 53.5597 105.937 49.5639 105.937C30.0842 106.836 18.2217 98.0699 14.7253 93.5746C-1.7574 76.7921 0.615104 55.864 3.8617 47.4978Z" fill="#CD3B2E"/>
<path d="M23.2668 34.1519L37.1273 32.2789C35.3292 32.2789 31.1336 25.7856 30.3843 22.539V16.5453L24.3906 10.1769L34.1304 16.5453V20.2913L37.1273 23.6628L42.3718 27.7838L41.248 18.0437L37.1273 11.6754L38.6257 3.80859V10.1769L41.248 13.923L45.7433 21.0406L48.7401 25.1614L52.8608 21.0406V16.5453V8.6785L55.4831 4.93242V6.80546V15.4214L57.3561 21.0406L52.8608 27.7838C57.6558 25.0867 61.8514 24.9117 63.3498 25.1614C67.2458 24.562 69.2187 28.9074 69.7182 31.1551C67.9201 33.8523 68.969 39.7711 69.7182 42.3933C66.3467 42.7679 67.0959 34.1519 66.7213 32.2789C66.4216 30.7805 62.3509 29.4069 60.353 28.9074L51.737 31.1551V32.2789C55.6329 33.178 57.8556 37.3986 58.4799 39.3965V44.2664C59.379 48.1623 62.8504 50.385 64.4737 51.0093L60.353 49.8855L50.2386 37.1488H46.8671V47.2632L50.2386 53.257L57.3561 56.6284H50.2386L40.1242 47.2632V37.8979C38.0263 38.797 34.1304 38.2726 31.8828 37.1488L23.2668 37.8979C21.1691 38.4973 17.8975 42.1436 16.5239 44.2664C16.2242 40.3704 20.8943 35.9001 23.2668 34.1519Z" fill="#043A3B"/>
<path d="M82.656 18.6581C82.594 18.6032 82.5892 18.5254 82.6441 18.4634L82.9365 18.1328C82.9914 18.0708 83.0692 18.066 83.1312 18.1209L86.499 21.1003C86.6539 21.2374 86.8419 21.2748 87.0795 21.0062L88.2128 19.7252C87.136 18.7358 85.718 17.2786 86.312 16.6072L87.4453 15.3262L88.2106 15.3771L87.7871 15.0023C87.7251 14.9475 87.7203 14.8696 87.7752 14.8076L88.0676 14.4771C88.1225 14.4151 88.2003 14.4103 88.2623 14.4652L93.6342 19.2177C93.6962 19.2725 93.7009 19.3504 93.6461 19.4124L93.3536 19.743C93.2988 19.8049 93.2209 19.8097 93.1589 19.7549L88.6032 15.7244C88.4482 15.5873 88.2603 15.5499 88.0227 15.8185L87.063 16.9032C86.734 17.2751 88.129 18.675 89.0381 19.4793C89.8025 20.1556 91.0716 21.0942 91.972 21.5961C92.0431 21.6406 92.0582 21.7276 92.0228 21.7884L91.8027 22.183C91.7673 22.2438 91.6815 22.2783 91.6104 22.2338C90.7696 21.7478 89.5844 20.9018 88.781 20.2279L87.6568 21.4985L86.8915 21.4476L90.9824 25.0669C91.0444 25.1217 91.0492 25.1996 90.9943 25.2616L90.7019 25.5922C90.647 25.6541 90.5692 25.6589 90.5072 25.6041L82.656 18.6581ZM88.9724 13.4543L89.2649 13.1238C89.3197 13.0618 89.3976 13.057 89.4596 13.1119L94.9348 17.9558C94.9968 18.0106 95.0015 18.0885 94.9467 18.1505L94.6542 18.481C94.5994 18.543 94.5215 18.5478 94.4595 18.493L88.9843 13.649C88.9224 13.5942 88.9176 13.5163 88.9724 13.4543Z" fill="white"/>
<path d="M76.5626 12.5459C75.5707 11.8954 74.2973 10.9447 74.7966 10.1835L77.8376 5.54695C77.883 5.47775 77.9594 5.46187 78.0286 5.50726L82.4113 8.38186C82.4805 8.42725 82.4964 8.50364 82.451 8.57284L79.7277 12.7249L78.7995 12.9079L79.2366 13.0462C79.3019 13.0724 79.3484 13.1524 79.3336 13.2252L79.218 13.6278C79.2033 13.7006 79.1042 13.7511 79.0199 13.7287C78.1495 13.4713 77.3238 13.0452 76.5626 12.5459ZM75.5368 10.4381C75.3099 10.7841 76.1832 11.4393 76.9675 11.9537C77.4173 12.2488 77.7979 12.4984 78.1316 12.6183C78.4654 12.7382 78.8059 12.7472 79.0707 12.3435L81.2796 8.97567C81.4006 8.79113 81.3606 8.55042 81.1876 8.43695L78.1542 6.44742L75.5368 10.4381ZM79.0034 17.149L84.5181 8.74097C84.5711 8.66023 84.6666 8.64039 84.7473 8.69334L85.1049 8.92784C85.1856 8.9808 85.2054 9.07629 85.1525 9.15703L82.9663 12.4902L84.07 12.2409L85.3618 13.0882C85.4425 13.1412 85.4624 13.2366 85.4094 13.3174L85.1976 13.6403C85.1446 13.7211 85.0491 13.7409 84.9684 13.6879L83.6766 12.8407C83.3076 12.5986 82.8301 12.6978 82.5956 13.0554L79.6378 17.565C79.5848 17.6458 79.4894 17.6656 79.4086 17.6127L79.0511 17.3782C78.9703 17.3252 78.9505 17.2297 79.0034 17.149Z" fill="white"/>
<path d="M62.186 8.40375C62.1092 8.37274 62.0788 8.30091 62.1098 8.22418L62.2752 7.81497C62.3062 7.73825 62.378 7.70777 62.4548 7.73879L66.6236 9.42394C66.8154 9.50148 67.0051 9.47399 67.1395 9.14151L67.7804 7.55581C66.4353 6.9823 64.6123 6.08177 64.9483 5.25056L65.5893 3.66486L66.3277 3.45752L65.8034 3.24558C65.7267 3.21457 65.6962 3.14274 65.7272 3.06601L65.8926 2.6568C65.9236 2.58007 65.9955 2.5496 66.0722 2.58062L72.7219 5.26859C72.7986 5.2996 72.8291 5.37143 72.7981 5.44816L72.6326 5.85737C72.6016 5.9341 72.5298 5.96457 72.4531 5.93356L66.8136 3.65395C66.6218 3.57641 66.4322 3.6039 66.2978 3.93638L65.755 5.2791C65.5689 5.73947 67.3511 6.59375 68.4764 7.04864C69.4227 7.43116 70.9322 7.89257 71.9484 8.06531C72.0303 8.08354 72.0736 8.16053 72.0605 8.22964L71.9846 8.67504C71.9716 8.74415 71.9022 8.80537 71.8203 8.78714C70.8656 8.6095 69.466 8.2074 68.4838 7.84012L67.848 9.41302L67.1095 9.62037L72.1735 11.6674C72.2503 11.6984 72.2807 11.7702 72.2497 11.8469L72.0843 12.2561C72.0533 12.3329 71.9815 12.3633 71.9047 12.3323L62.186 8.40375ZM66.4044 1.3908L66.5698 0.981593C66.6008 0.904865 66.6726 0.874391 66.7493 0.905406L73.5269 3.64507C73.6036 3.67609 73.6341 3.74791 73.6031 3.82464L73.4377 4.23385C73.4067 4.31058 73.3348 4.34105 73.2581 4.31004L66.4806 1.57037C66.4038 1.53936 66.3734 1.46753 66.4044 1.3908Z" fill="white"/>
</svg>
