<svg width="100" height="118" viewBox="0 0 100 118" fill="none" xmlns="http://www.w3.org/2000/svg">
<path d="M54.0042 21.1168C40.4616 26.9589 24.8721 43.7581 19.1688 51.6051L68.0646 103.688L74.6498 97.6552C89.6223 77.425 94.6619 63.9861 98.4321 53.4397L99.8381 45.8333C100.17 31.6322 87.2847 22.1048 80.8004 19.1162C75.5357 15.8872 66.082 17.2842 62.0132 18.3863L54.0042 21.1168Z" fill="#D3C3A3"/>
<path d="M4.62226 68.5689L1.02344 86.3712L3.1772 99.0194C4.31503 105.701 12.3312 110.476 16.1971 112.027L25.8803 115.535C32.4163 118.155 48.5518 115.522 55.8025 113.878C68.7765 109.311 74.0128 93.915 75.0092 86.7877C78.5911 73.2119 67.8276 59.0339 61.9982 53.6419C52.7644 44.4094 29.5976 48.4362 19.1685 51.6036L4.62226 68.5689Z" fill="#F7EDDA"/>
<path d="M48.2331 78.6124L48.445 75.2224C49.5349 72.3536 54.7651 69.0824 57.2439 67.8053C62.4296 65.8175 64.5231 67.6838 64.9216 68.8655L65.1341 74.748C63.8453 79.229 59.9468 81.7474 58.1587 82.4465C53.8411 83.9709 49.7426 80.5256 48.2331 78.6124Z" fill="#D6C9B0"/>
<path d="M52.0744 97.689C49.4796 94.5007 49.905 89.9694 50.442 88.1024C51.1534 86.7186 54.9565 86.8075 56.7691 87.025C61.1684 86.9072 65.0289 89.9589 66.4092 91.4995C69.5914 94.43 65.8182 99.2288 63.5338 101.262L59.4136 102.555C55.9869 102.823 53.093 99.4227 52.0744 97.689Z" fill="#D6C9B0"/>
<path d="M35.1904 61.1055C34.5118 64.5356 36.2025 67.0492 37.1327 67.8773C37.9345 68.8785 40.3169 66.4939 41.4078 65.1764C44.9191 59.8435 42.2286 56.0927 40.4444 54.884C36.3191 52.9033 35.2229 58.2064 35.1904 61.1055Z" fill="#D6C9B0"/>
<path d="M46.1192 59.2445C43.2638 61.9405 44.0513 65.2524 44.802 66.5714C47.1128 69.0189 51.0056 66.6988 52.6631 65.2328C56.3116 62.5597 53.465 59.9008 51.5857 58.9056C48.8148 56.5364 46.7868 58.1444 46.1192 59.2445Z" fill="#D6C9B0"/>
<path d="M33.7253 83.8162L34.8851 80.9941C35.349 79.8653 37.2894 79.0537 38.2016 78.789L41.0515 80.6002L39.2874 85.1656C36.7635 86.9077 34.5277 84.9919 33.7253 83.8162Z" fill="#D6C9B0"/>
<path d="M17.73 105.709C12.7855 103.552 14.1193 100.339 15.4042 99.0021C17.3915 96.7697 20.6134 95.2214 21.976 94.7264C29.9715 91.6287 30.2466 97.7242 29.3847 101.159C26.696 107.615 20.4946 106.882 17.73 105.709Z" fill="#D6C9B0"/>
<path d="M32.8116 102.746C34.4822 97.7264 37.3067 95.9302 38.5101 95.6595L42.4101 95.39C46.2219 95.5301 47.5996 101.149 47.8119 103.94C47.7373 111.845 41.3193 112.543 38.1196 111.904C31.723 111.415 31.9157 105.595 32.8116 102.746Z" fill="#D6C9B0"/>
<path d="M16.8906 67.1806C15.0628 63.8617 17.543 61.7426 19.0116 61.098C27.5129 56.3358 30.6667 62.7303 31.1809 66.5228C31.436 73.5819 28.5381 75.7195 27.0572 75.9059C22.1978 76.102 18.2547 70.1707 16.8906 67.1806Z" fill="#D6C9B0"/>
<path d="M8.84819 89.4641C4.81739 85.2577 7.20348 79.4192 8.90038 77.0258C11.6025 74.356 15.9306 75.8287 17.7569 76.8988C23.615 77.0061 25.3791 83.4268 25.5289 86.6237C25.366 91.2286 19.7202 92.6767 16.9176 92.8251L8.84819 89.4641Z" fill="#D6C9B0"/>
<path d="M68.3237 7.21178C68.2272 7.21518 68.1558 7.14869 68.1524 7.0522L68.1388 6.66623C68.1354 6.56974 68.2019 6.49839 68.2984 6.49498L78.7195 6.12743C78.816 6.12402 78.8873 6.19052 78.8907 6.28701L78.9044 6.67297C78.9078 6.76947 78.8413 6.84082 78.7448 6.84422L68.3237 7.21178ZM69.759 11.1222L69.6632 8.40669C69.6598 8.31019 69.7263 8.23884 69.8228 8.23544L70.2501 8.22037C70.3466 8.21696 70.4179 8.28345 70.4213 8.37995L70.5088 10.8612C70.5142 11.0128 70.6426 11.1325 70.7943 11.1271L77.5487 10.8889C77.6452 10.8855 77.7165 10.952 77.7199 11.0485L77.7335 11.4344C77.7369 11.5309 77.6705 11.6023 77.574 11.6057L70.5576 11.8532C70.1165 11.8687 69.775 11.5771 69.759 11.1222ZM69.6195 2.4735L69.6059 2.08754C69.6025 1.99104 69.669 1.91969 69.7655 1.91629L76.9335 1.66347C77.0299 1.66007 77.1013 1.72656 77.1047 1.82305L77.1669 3.58747C77.1932 4.33184 77.0866 4.83245 76.5315 5.52832C76.4788 5.59918 76.3823 5.60259 76.3114 5.54988L75.9861 5.32673C75.901 5.26072 75.8828 5.13714 75.9488 5.05201C76.4261 4.49691 76.4253 4.08289 76.4064 3.54529L76.3752 2.66308C76.3694 2.49766 76.2833 2.40409 76.1317 2.40944L69.7908 2.63308C69.6943 2.63649 69.6229 2.56999 69.6195 2.4735Z" fill="white"/>
<path d="M60.0512 13.2064C59.395 13.2943 59.0137 12.9418 58.9295 12.313L58.5632 9.57877C58.5504 9.48307 58.6096 9.40556 58.7053 9.39274L59.1291 9.33597C59.2248 9.32315 59.3023 9.38235 59.3152 9.47805L59.6631 12.0755C59.7107 12.431 59.8876 12.5047 60.0926 12.4772L66.2309 11.655C66.3266 11.6422 66.4041 11.7014 66.417 11.7971L66.4682 12.1798C66.481 12.2755 66.4218 12.3531 66.3262 12.3659L60.0512 13.2064ZM56.5588 6.35429C56.3555 4.83681 57.3703 3.89372 58.7483 3.58389C58.8421 3.5574 58.8667 3.42887 58.8483 3.29216L58.8062 2.97773C58.7952 2.8957 58.8426 2.83369 58.9246 2.8227L59.4031 2.75861C59.4851 2.74762 59.5471 2.79498 59.5581 2.877L59.5984 3.17777L59.1566 3.51528C60.6777 3.33935 62.0572 3.97563 62.2732 5.58881C62.493 7.22932 61.2886 8.21172 59.7301 8.42048C58.199 8.62559 56.7785 7.99481 56.5588 6.35429ZM57.3107 6.25357C57.5011 7.67535 58.6916 7.83595 59.6349 7.70959C60.6056 7.57957 61.7118 7.11131 61.5213 5.68953C61.34 4.3361 60.1404 4.10714 59.1698 4.23716C58.2265 4.36352 57.1294 4.90014 57.3107 6.25357ZM62.611 6.44812L62.5597 6.06533C62.5469 5.96963 62.6061 5.89212 62.7018 5.8793L63.9595 5.71082C64.5337 5.63391 64.8297 5.24635 64.7546 4.68584L64.5532 3.18203L63.882 4.09301L62.4876 4.2798C62.3919 4.29262 62.3143 4.23342 62.3015 4.13772L62.2503 3.75493C62.2374 3.65924 62.2966 3.58172 62.3923 3.56891L63.7868 3.38211C64.2242 3.32351 64.5202 2.93595 64.4635 2.51215L64.425 2.22506C64.4122 2.12937 64.4714 2.05185 64.5671 2.03904L64.9909 1.98227C65.0866 1.96945 65.1641 2.02865 65.1769 2.12434L66.0504 8.64541C66.0633 8.7411 66.0041 8.81861 65.9084 8.83143L65.4846 8.8882C65.3889 8.90102 65.3114 8.84182 65.2985 8.74613L64.8627 5.49243L64.1915 6.4034L62.797 6.5902C62.7013 6.60301 62.6238 6.54382 62.611 6.44812Z" fill="white"/>
</svg>
