<svg width="138" height="134" viewBox="0 0 138 134" fill="none" xmlns="http://www.w3.org/2000/svg">
<path d="M66.5834 16.167C63.3387 15.8031 59.5722 28.2332 58.0945 34.4937L43.2912 58.2651L35.6912 67.8497C27.1427 66.9273 22.2179 70.6683 20.824 72.654C12.9132 78.9298 13.3619 88.8779 16.8692 94.4974C16.2374 102.412 20.5695 108.57 22.8146 110.66L27.894 108.905L27.755 119.099L39.7758 128.286C56.5617 140.15 73.9885 128.797 78.0152 128.291C81.2365 127.887 86.4079 120.862 88.5909 117.4C92.3735 117.307 100.732 116.637 103.907 114.696C107.082 112.755 105.999 104.038 105.061 99.9224L108.849 97.8862L112.401 90.2175C129.964 83.3456 127.368 73.9391 127.792 70.9785C128.13 68.61 125.302 62.2524 123.845 59.3697C126.733 55.1815 122.842 49.5949 121.583 46.1722C120.576 43.434 114.049 41.7418 110.911 41.2379L112.657 37.4686C111.134 27.9274 102.767 27.32 98.7731 28.209C97.826 20.7012 88.4841 16.1926 83.9314 14.8768C77.2433 12.258 70.6393 16.6219 66.5834 16.167Z" fill="#3B9F57"/>
<path d="M77.4679 26.2064L81.8987 14.4156L73.2837 11.5703L64.5313 16.4723L59.5373 22.5616L53.2889 47.2219L37.3103 58.6621L26.3148 67.4427C11.0566 71.5566 12.1372 87.697 15.2468 94.62C11.9519 98.5632 17.9138 106.806 20.7458 110.29L26.9839 110.238L26.9155 118.569L41.6128 129.251C51.8369 135.325 64.1016 133.133 68.5192 130.735L67.8751 122.311L69.9337 106.473L81.1865 95.7129L92.5965 99.3529L94.3793 85.6362L91.4636 65.7006L97.7646 40.6359L92.3035 42.5145L85.3571 36.8663L77.4679 26.2064Z" fill="#328958"/>
<path d="M54.9349 29.3526L75.4069 35.9332L76.1924 46.6334C72.0332 44.6991 62.3311 46.8643 57.9999 48.1886L78.1069 74.3209L77.2904 80.6027L61.0801 74.7211L69.3391 82.618L61.8726 87.5998L49.5723 70.6122L60.0727 101.448L53.5167 102.774L37.4929 80.9468L40.5335 101.086L35.5259 96.0801L29.156 63.6033C28.1053 53.8268 13.6114 35.112 6.49576 26.9766C5.21418 23.4419 8.5266 16.9329 10.343 14.1202L23.0801 4.30658L30.7543 7.77207L54.9349 29.3526Z" fill="#8DCD79"/>
<path d="M31.1232 20.2044C32.3 12.9143 29.0317 7.62438 27.2504 5.89068C20.9309 1.58037 15.734 7.01056 13.9256 10.2644C7.48867 15.6788 6.30401 21.4851 6.15085 25.9718C7.50906 29.6372 14.5966 32.3029 17.9706 33.1776L27.0254 31.8831C29.9074 29.1177 30.9581 22.945 31.1232 20.2044Z" fill="#C0E1C2"/>
<path d="M111.936 24.6723C111.168 23.9995 109.821 22.6904 110.421 22.0058L111.631 20.6263L112.396 20.6736L111.929 20.2645C111.857 20.2009 111.85 20.1035 111.914 20.0309L112.169 19.7405C112.232 19.6679 112.33 19.6615 112.402 19.7251L115.711 22.6255C115.867 22.7619 116.055 22.7984 116.291 22.5287L117.2 21.4914C117.346 21.3255 117.346 21.1789 117.19 21.0425L113.964 18.2149C113.892 18.1512 113.885 18.0539 113.949 17.9813L114.204 17.6909C114.267 17.6183 114.365 17.6119 114.437 17.6755L118.337 21.0941C118.41 21.1577 118.416 21.2551 118.353 21.3277L116.871 23.0184L116.105 22.971L116.437 23.2619C116.51 23.3256 116.516 23.4229 116.452 23.4955L116.198 23.7859C116.134 23.8585 116.037 23.8649 115.964 23.8013L112.79 21.0191C112.635 20.8828 112.447 20.8463 112.21 21.1159L111.119 22.3606C110.846 22.6718 111.838 23.6329 112.419 24.142C113 24.6512 113.84 25.241 114.669 25.6556C114.77 25.7076 114.796 25.8037 114.744 25.9048L114.57 26.2291C114.527 26.3199 114.41 26.3275 114.309 26.2755C113.409 25.8167 112.527 25.1905 111.936 24.6723ZM114.399 29.8763L121.027 22.3149C121.091 22.2423 121.188 22.2359 121.261 22.2995L121.582 22.5813C121.655 22.645 121.661 22.7423 121.598 22.8149L114.97 30.3764C114.906 30.449 114.809 30.4554 114.736 30.3917L114.415 30.1099C114.342 30.0462 114.336 29.9489 114.399 29.8763Z" fill="white"/>
<path d="M105.309 14.8188C105.481 14.9346 105.672 14.9472 105.873 14.65L106.266 14.0671C106.313 13.9985 106.389 13.9837 106.458 14.03L106.858 14.3002C106.927 14.3465 106.941 14.4231 106.895 14.4917L106.509 15.0632L105.744 15.1122L110.636 18.4163C110.716 18.4703 110.734 18.5661 110.68 18.6461L110.464 18.9661C110.41 19.0461 110.314 19.0647 110.234 19.0107L101.593 13.1744C101.513 13.1204 101.494 13.0246 101.549 12.9446L101.765 12.6246C101.819 12.5445 101.914 12.526 101.994 12.58L105.309 14.8188ZM100.753 16.1686L100.946 15.8829C101 15.8028 101.095 15.7843 101.175 15.8383L106.948 19.7369C107.073 19.8218 107.246 19.7884 107.331 19.6627L107.485 19.4341C107.57 19.3083 107.537 19.136 107.411 19.0511L101.821 15.276C101.741 15.222 101.723 15.1262 101.777 15.0462L101.985 14.7376C102.039 14.6576 102.135 14.639 102.215 14.6931L108.525 18.9545C108.605 19.0085 108.623 19.1043 108.569 19.1843L108.067 19.9272L107.302 19.9762L107.679 20.231C107.759 20.285 107.778 20.3807 107.724 20.4608L107.531 20.7465C107.477 20.8265 107.381 20.8451 107.301 20.791L101.734 17.0314C101.609 16.9465 101.436 16.9799 101.351 17.1057L101.073 17.5171C100.989 17.6429 100.999 17.7998 101.125 17.8847L106.806 21.7215C106.886 21.7755 106.904 21.8713 106.85 21.9513L106.657 22.2371C106.603 22.3171 106.507 22.3356 106.427 22.2816L100.552 18.3136C100.186 18.0665 100.082 17.6298 100.337 17.2526L100.615 16.8411L101.38 16.7921L100.797 16.3984C100.717 16.3444 100.699 16.2486 100.753 16.1686ZM104.325 11.2245C104.379 11.1445 104.455 11.1296 104.524 11.1759L110.324 14.9102L110.702 14.3501C110.795 14.2129 110.78 14.0866 110.655 14.0017L105.374 10.4351C105.305 10.3887 105.29 10.3121 105.337 10.2436L105.584 9.87779C105.63 9.80921 105.707 9.79437 105.775 9.84069L111.765 13.8859C111.833 13.9322 111.848 14.0088 111.802 14.0774L110.644 15.792C110.235 16.3978 109.912 16.6292 109.28 16.8511C109.207 16.8851 109.127 16.8311 109.104 16.7659L108.95 16.3288C108.924 16.2445 108.966 16.1568 109.05 16.1305C109.491 15.9954 109.695 15.8169 109.938 15.4817L104.149 11.8049C104.092 11.7663 104.062 11.6628 104.101 11.6057L104.325 11.2245Z" fill="white"/>
<path d="M88.9234 11.4681C88.8493 11.4312 88.8246 11.3572 88.8615 11.2831L89.0585 10.8881C89.0955 10.8141 89.1695 10.7893 89.2435 10.8263L93.2673 12.8334C93.4524 12.9257 93.6436 12.9132 93.8037 12.5923L94.5671 11.0618C93.2711 10.3845 91.5245 9.34368 91.9246 8.5414L92.4418 7.50461L93.1942 7.35585L92.6141 7.06648C92.5401 7.02954 92.5153 6.95555 92.5522 6.88149L92.7493 6.48652C92.7862 6.41246 92.8602 6.38772 92.9343 6.42466L98.6613 9.28139C98.8465 9.37374 99.0377 9.36122 99.1977 9.04031L99.5795 8.27505C99.678 8.07757 99.6408 7.93573 99.4557 7.84338L93.8274 5.03591C93.7533 4.99897 93.7286 4.92497 93.7655 4.85091L93.9625 4.45594C93.9995 4.38189 94.0735 4.35714 94.1475 4.39408L100.603 7.61406C100.677 7.651 100.702 7.72499 100.665 7.79905L99.8827 9.36658L99.1303 9.51534L99.55 9.72467C99.624 9.76161 99.6488 9.83561 99.6118 9.90967L99.4148 10.3046C99.3779 10.3787 99.3039 10.4034 99.2298 10.3665L93.6632 7.58981C93.4781 7.49746 93.2869 7.50998 93.1268 7.83089L92.7266 8.63317C92.505 9.07751 94.2146 10.069 95.3008 10.6108C96.2141 11.0664 97.6828 11.6448 98.6823 11.8968C98.7625 11.9214 98.7996 12.0015 98.7812 12.0694L98.6705 12.5075C98.6521 12.5754 98.5781 12.6309 98.4979 12.6063C97.5601 12.3543 96.1964 11.8436 95.246 11.4004L94.4887 12.9186L93.7363 13.0673L98.624 15.5054C98.6981 15.5423 98.7228 15.6163 98.6859 15.6904L98.4889 16.0854C98.4519 16.1594 98.3779 16.1842 98.3039 16.1472L88.9234 11.4681Z" fill="white"/>
<path d="M76.7545 8.19211C76.6741 8.17231 76.6338 8.10554 76.6536 8.02518L76.7592 7.59662C76.779 7.51626 76.8457 7.47589 76.9261 7.49569L87.1044 10.0037C87.1848 10.0235 87.2251 10.0903 87.2053 10.1706L87.0997 10.5992C87.0799 10.6795 87.0132 10.7199 86.9328 10.7001L76.7545 8.19211ZM79.0276 4.73202L80.1496 0.178567C80.1694 0.0982121 80.2362 0.0578425 80.3166 0.0776426L80.7853 0.193143C80.8657 0.212943 80.906 0.279713 80.8862 0.360068L80.4506 2.12788L85.9148 3.47429C86.263 3.56009 86.4062 3.3823 86.4557 3.18141L86.7923 1.81538C86.8121 1.73502 86.8789 1.69465 86.9593 1.71445L87.428 1.82995C87.5084 1.84975 87.5487 1.91652 87.5289 1.99688L86.5455 5.98785L85.7878 6.46879C86.109 6.49113 86.1424 6.47094 86.3666 6.48356C86.4535 6.47658 86.5106 6.53326 86.5042 6.61691L86.4923 7.06857C86.4892 7.13883 86.4292 7.20929 86.3456 7.20288C85.2782 7.15297 83.6181 6.91438 82.6003 6.66358C81.1807 6.31377 78.79 5.69629 79.0276 4.73202ZM79.8302 4.64568C79.7114 5.12781 81.6101 5.66667 82.7886 5.95707C83.4448 6.11877 84.3286 6.2797 85.1719 6.37386C85.3091 6.39347 85.4496 6.39969 85.5665 6.32904C85.65 6.27858 85.7165 6.18134 85.7495 6.04741L86.1851 4.2796L80.279 2.82429L79.8302 4.64568Z" fill="white"/>
</svg>
