<svg width="214" height="127" viewBox="0 0 214 127" fill="none" xmlns="http://www.w3.org/2000/svg">
<path d="M23.5941 30.3778L6.69815 46.8362L13.0049 54.3817L25.9782 56.0806L70.236 45.3256L161.21 37.366L176.306 36.0451L189.478 31.2489L175.971 32.4307L156.803 24.391C153.843 20.1155 122.944 16.2872 107.864 14.9074L91.7499 13.8881L55.0152 15.0779L40.4778 22.4228L23.5941 30.3778Z" fill="#006835"/>
<path d="M153.067 70.4661L86.6743 71.4167L106.662 88.2917L149.008 91.4694L188.735 87.9935L213.254 97.5894L200.64 82.4984L153.067 70.4661Z" fill="#009F28"/>
<path d="M9.76437 45.3522L8.58506 49.9089L11.5524 64.6292L28.0143 73.7154L53.6381 77.9513L106.884 77.7462L137.076 75.1045C163.693 75.3668 181.545 66.6253 187.144 62.2217L189.925 61.9784L192.246 52.4634L185.505 44.551L153.972 32.7349L125.828 31.5535L71.6756 30.6234L42.3772 29.9479L9.76437 45.3522Z" fill="#FFDD36"/>
<path d="M58.8422 39.0351C57.2531 39.1741 56.4503 40.5939 56.2475 41.2864C55.7609 42.9485 56.0366 47.6478 56.2353 49.7897C56.0963 51.7452 58.7348 52.2701 60.0714 52.2881C61.6903 52.4703 62.7654 51.1077 63.1006 50.4036C63.617 49.0628 63.3487 44.4439 63.1501 42.302C62.8819 39.4104 60.1664 38.9192 58.8422 39.0351Z" fill="#F4C21B"/>
<path d="M146.107 66.6585C144.441 66.8044 143.543 67.6976 143.303 68.126C142.726 69.1541 142.822 71.9974 142.942 73.2904C142.717 74.4834 145.453 74.7002 146.85 74.6595C148.534 74.7076 149.714 73.8386 150.093 73.398C150.688 72.5638 150.597 69.7691 150.477 68.476C150.315 66.7304 147.496 66.537 146.107 66.6585Z" fill="#F4C21B"/>
<path d="M63.9819 54.4423C62.3928 54.5813 61.59 56.0011 61.3873 56.6936C60.9006 58.3557 61.1763 63.055 61.375 65.1969C61.236 67.1524 63.8745 67.6773 65.2111 67.6953C66.83 67.8776 67.9051 66.5149 68.2403 65.8108C68.7567 64.4701 68.4885 59.8511 68.2898 57.7092C68.0216 54.8176 65.3061 54.3264 63.9819 54.4423Z" fill="#F4C21B"/>
<path d="M74.4603 46.5274C75.0263 42.2673 73.1649 39.758 72.1634 39.0359C70.8326 38.5046 68.6957 39.0694 67.7936 39.4182C66.1748 39.236 66.0764 45.3716 66.2296 48.4621C65.9515 52.3731 68.7705 52.8283 70.2147 52.567C73.4226 52.6102 74.3817 48.5586 74.4603 46.5274Z" fill="#F4C21B"/>
<path d="M79.0642 61.626C79.6302 57.3659 77.7688 54.8566 76.7674 54.1345C75.4365 53.6032 73.2997 54.168 72.3976 54.5169C70.7787 54.3346 70.6803 60.4702 70.8335 63.5607C70.5555 67.4718 73.3744 67.9269 74.8187 67.6656C78.0266 67.7088 78.9857 63.6572 79.0642 61.626Z" fill="#F4C21B"/>
<path d="M165.531 60.6351C165.993 57.1199 164.466 55.0484 163.645 54.452C162.554 54.0129 160.804 54.4779 160.065 54.7653C158.738 54.614 158.661 59.677 158.788 62.2274C158.562 65.4546 160.872 65.8316 162.056 65.6167C164.684 65.654 165.468 62.3112 165.531 60.6351Z" fill="#F4C21B"/>
<path d="M175.215 61.4075C175.676 57.8924 174.15 55.8208 173.329 55.2245C172.238 54.7853 170.487 55.2503 169.748 55.5377C168.422 55.3865 168.344 60.4495 168.472 62.9999C168.246 66.2271 170.556 66.6041 171.739 66.3892C174.368 66.4265 175.152 63.0836 175.215 61.4075Z" fill="#F4C21B"/>
<path d="M185.208 56.8773C185.806 54.8393 184.366 53.7052 183.572 53.3929C182.502 53.181 180.739 53.5135 179.991 53.7062C178.675 53.6686 178.399 56.5821 178.425 58.0435C178.073 59.9071 180.36 60.0379 181.548 59.8704C184.166 59.7941 185.078 57.8432 185.208 56.8773Z" fill="#F4C21B"/>
<path d="M179.76 49.3951C180.139 46.88 178.965 45.4076 178.33 44.9858C177.485 44.678 176.122 45.02 175.545 45.2295C174.515 45.1287 174.426 48.7481 174.509 50.5704C174.315 52.8785 176.109 53.1352 177.03 52.9751C179.072 52.9873 179.701 50.5935 179.76 49.3951Z" fill="#F4C21B"/>
<path d="M39.7827 39.287C39.7827 39.287 41.9584 39.288 42.6753 40.2485C43.3343 41.1314 42.9361 43.0597 42.9361 43.0597L42.7376 49.5549C42.9164 51.4827 41.1568 52.6623 40.2547 53.0111L37.0393 52.8876L34.904 51.4549L34.755 49.8485C34.0498 45.6996 34.9493 41.8692 35.4873 40.4726C36.0037 39.1318 38.5661 39.1236 39.7827 39.287Z" fill="#F4C21B"/>
<path d="M48.3381 54.1923C48.3381 54.1923 50.5138 54.1933 51.2307 55.1538C51.8897 56.0367 51.4915 57.965 51.4915 57.965L51.293 64.4602C51.4718 66.3879 49.7122 67.5675 48.8101 67.9164L45.5947 67.7928L43.4594 66.3602L43.3104 64.7538C42.6052 60.6049 43.5048 56.7745 44.0427 55.3779C44.5591 54.0371 47.1215 54.0288 48.3381 54.1923Z" fill="#F4C21B"/>
<path d="M50.2898 39.1755C50.2898 39.1755 52.3924 39.18 53.0869 40.1275C53.7253 40.9984 53.3438 42.8976 53.3438 42.8976L53.1634 49.2963C53.3396 51.1957 51.6413 52.3549 50.7701 52.6971L47.6626 52.5701L45.5965 51.1551L45.4497 49.5722C44.7608 45.4836 45.6235 41.7114 46.1409 40.3364C46.6376 39.0163 49.1138 39.0124 50.2898 39.1755Z" fill="#F4C21B"/>
<path d="M57.0564 54.8464C57.0564 54.8464 59.1589 54.8509 59.8534 55.7984C60.4918 56.6693 60.1104 58.5685 60.1104 58.5685L59.93 64.9672C60.1061 66.8666 58.4078 68.0258 57.5366 68.368L54.4291 68.241L52.363 66.826L52.2162 65.2431C51.5274 61.1545 52.39 57.3823 52.9074 56.0072C53.4041 54.6872 55.8803 54.6833 57.0564 54.8464Z" fill="#F4C21B"/>
<path d="M86.0573 53.4899C86.0573 53.4899 88.1599 53.4945 88.8544 54.442C89.4928 55.3129 89.1114 57.212 89.1114 57.212L88.9309 63.6107C89.1071 65.5102 87.4088 66.6694 86.5376 67.0116L83.4301 66.8845L81.364 65.4696L81.2172 63.8867C80.5284 59.7981 81.391 56.0258 81.9084 54.6508C82.4051 53.3308 84.8813 53.3269 86.0573 53.4899Z" fill="#F4C21B"/>
<path d="M159.882 37.6725C159.882 37.6725 161.984 37.666 162.673 38.5547C163.306 39.3715 162.914 41.1618 162.914 41.1618L162.699 47.1881C162.865 48.9758 161.161 50.076 160.289 50.4027L157.183 50.2989L155.126 48.9771L154.988 47.4873C154.321 43.6408 155.204 40.0843 155.729 38.7868C156.232 37.5413 158.707 37.525 159.882 37.6725Z" fill="#F4C21B"/>
<path d="M169.788 40.8551C169.788 40.8551 171.889 40.8487 172.578 41.7373C173.211 42.5542 172.82 44.3444 172.82 44.3444L172.605 50.3707C172.771 52.1584 171.067 53.2587 170.194 53.5853L167.089 53.4816L165.032 52.1597L164.893 50.6699C164.227 46.8234 165.11 43.2669 165.634 41.9694C166.138 40.7239 168.613 40.7076 169.788 40.8551Z" fill="#F4C21B"/>
<path d="M89.8581 68.5417C89.8581 68.5417 91.9606 68.5462 92.6551 69.4938C93.2935 70.3647 92.9121 72.2638 92.9121 72.2638L92.7317 78.6625C92.9078 80.5619 91.2095 81.7212 90.3383 82.0633L87.2308 81.9363L85.1647 80.5213L85.0179 78.9384C84.3291 74.8498 85.1917 71.0776 85.7091 69.7026C86.2058 68.3825 88.682 68.3786 89.8581 68.5417Z" fill="#F4C21B"/>
<path d="M77.9415 69.5837C77.9415 69.5837 80.0441 69.5882 80.7386 70.5357C81.3769 71.4066 80.9955 73.3058 80.9955 73.3058L80.8151 79.7045C80.9913 81.6039 79.2929 82.7631 78.4218 83.1053L75.3142 82.9783L73.2482 81.5633L73.1013 79.9804C72.4125 75.8918 73.2751 72.1196 73.7925 70.7446C74.2892 69.4245 76.7655 69.4206 77.9415 69.5837Z" fill="#F4C21B"/>
<path d="M67.5337 69.6852C67.5337 69.6852 69.6362 69.6898 70.3307 70.6373C70.9691 71.5082 70.5877 73.4073 70.5877 73.4073L70.4072 79.806C70.5834 81.7055 68.8851 82.8647 68.0139 83.2069L64.9064 83.0798L62.8403 81.6649L62.6935 80.082C62.0047 75.9934 62.8673 72.2211 63.3847 70.8461C63.8814 69.5261 66.3576 69.5222 67.5337 69.6852Z" fill="#F4C21B"/>
<path d="M58.0025 70.5192C58.0025 70.5192 60.1051 70.5238 60.7996 71.4713C61.438 72.3422 61.0565 74.2413 61.0565 74.2413L60.8761 80.64C61.0523 82.5395 59.354 83.6987 58.4828 84.0409L55.3753 83.9138L53.3092 82.4989L53.1624 80.916C52.4736 76.8274 53.3362 73.0551 53.8536 71.6801C54.3503 70.3601 56.8265 70.3562 58.0025 70.5192Z" fill="#F4C21B"/>
<path d="M26.121 40.3114L30.4909 39.9291C31.7324 39.4966 32.5062 41.5072 32.7379 42.5665L32.465 48.2585C33.0808 51.4436 31.1905 53.2284 30.1684 53.7227C28.8971 53.8339 26.6012 52.6853 25.6122 52.097L25.1279 46.8761C24.4227 42.7272 25.4961 40.7709 26.121 40.3114Z" fill="#F4C21B"/>
<path d="M15.2154 43.6972L19.5853 43.3148C20.8268 42.8823 21.6006 44.8929 21.8323 45.9523L21.5594 51.6443C22.1752 54.8293 20.2849 56.6141 19.2628 57.1084C17.9915 57.2197 15.6957 56.071 14.7066 55.4828L14.2224 50.2619C13.5171 46.113 14.5905 44.1567 15.2154 43.6972Z" fill="#F4C21B"/>
<path d="M35.8728 53.6639L40.2427 53.2816C41.4842 52.8491 42.258 54.8597 42.4897 55.9191L42.2168 61.6111C42.8326 64.7961 40.9423 66.5809 39.9202 67.0752C38.649 67.1865 36.3531 66.0378 35.364 65.4496L34.8798 60.2287C34.1745 56.0798 35.248 54.1235 35.8728 53.6639Z" fill="#F4C21B"/>
<path d="M93.0207 53.5223L97.3906 53.14C98.6321 52.7075 99.4059 54.7181 99.6376 55.7775L99.3647 61.4695C99.9805 64.6545 98.0902 66.4393 97.0681 66.9336C95.7968 67.0449 93.501 65.8962 92.5119 65.308L92.0277 60.0871C91.3224 55.9382 92.3958 53.9819 93.0207 53.5223Z" fill="#F4C21B"/>
<path d="M146.688 36.2411L151.058 35.8588C152.299 35.4262 153.073 37.4368 153.305 38.4962L153.032 44.1882C153.648 47.3732 151.757 49.1581 150.735 49.6524C149.464 49.7636 147.168 48.6149 146.179 48.0267L145.695 42.8058C144.989 38.6569 146.063 36.7006 146.688 36.2411Z" fill="#F4C21B"/>
<path d="M99.2078 68.3651L103.578 67.9828C104.819 67.5503 105.593 69.5609 105.825 70.6202L105.552 76.3122C106.168 79.4973 104.277 81.2821 103.255 81.7764C101.984 81.8876 99.6881 80.739 98.699 80.1507L98.2148 74.9298C97.5096 70.781 98.583 68.8247 99.2078 68.3651Z" fill="#F4C21B"/>
<path fill-rule="evenodd" clip-rule="evenodd" d="M10.7515 48.3587L36.4104 51.6312C39.8761 51.5216 50.1987 52.8783 63.763 59.1816L89.5008 70.1555L101.316 71.7C110.317 74.3649 129.755 79.6183 135.499 79.3129C141.328 78.8089 153.943 79.1566 157.774 84.5797L148.52 84.3773L132.011 87.4055L147.702 98.2639L151.836 106.332L154.263 117.022L144.692 124.564L134.324 121.644L142.51 119.528L143.499 114.145L119.393 103.398L113.644 98.7531C103.54 95.8034 80.839 89.8529 70.8624 89.6486C59.6321 90.8804 33.5268 90.2538 18.9482 77.8937C16.6049 76.1218 11.3476 71.0986 9.06489 65.181L8.47412 59.9013L4.22841 58.3837L0.29935 55.9662L0.948884 45.238L9.47163 44.3238L8.70979 46.1238L8.72254 47.5159L10.7515 48.3587Z" fill="#71B61D"/>
<path d="M31.1047 17.9496C31.0292 17.9835 30.9563 17.9558 30.9224 17.8803L29.7129 15.1878L30.0743 14.5113L25.3687 16.6251C25.2932 16.659 25.2202 16.6313 25.1863 16.5558L25.0055 16.1532C24.9716 16.0777 24.9993 16.0047 25.0748 15.9708L34.6371 11.6754C34.7126 11.6415 34.7855 11.6693 34.8194 11.7447L35.0003 12.1474C35.0342 12.2229 35.0065 12.2958 34.931 12.3297L30.5524 14.2965C30.3637 14.3813 30.2523 14.5372 30.3992 14.8643L31.6144 17.5695C31.6483 17.645 31.6206 17.7179 31.5451 17.7518L31.1047 17.9496ZM24.877 14.4871C24.8054 14.4286 24.8035 14.3235 24.8677 14.2645C26.6121 12.6946 28.0693 10.7548 27.052 8.48999L27.0407 8.46483C27.0068 8.38934 27.0345 8.3164 27.11 8.28249L27.5504 8.08468C27.6259 8.05076 27.6988 8.07849 27.7327 8.15398L27.7553 8.20431C28.1679 9.12279 28.1925 10.019 28.0278 10.8642L28.5958 9.67149L33.387 10.4074C33.4669 10.4168 33.5373 10.5062 33.5026 10.5974L33.352 11.1035C33.3242 11.1765 33.2613 11.2047 33.1941 11.1896L29.0713 10.5617C28.6846 10.5086 28.4021 10.6204 28.2019 10.9825C27.0092 13.242 26.1917 14.0477 25.3894 14.7862C25.3378 14.8396 25.2579 14.8301 25.2101 14.7911L24.877 14.4871Z" fill="white"/>
<path d="M20.3299 23.2132C20.2582 23.2546 20.1829 23.2345 20.1415 23.1628L18.6643 20.6073L18.9551 19.8976L14.4889 22.479C14.4172 22.5205 14.3418 22.5003 14.3004 22.4286L14.0795 22.0465C14.0381 21.9749 14.0583 21.8995 14.1299 21.8581L23.2057 16.6123C23.2774 16.5709 23.3528 16.591 23.3942 16.6627L23.6151 17.0448C23.6565 17.1165 23.6363 17.1918 23.5647 17.2333L19.4089 19.6353C19.2298 19.7388 19.1348 19.9052 19.3142 20.2157L20.7983 22.7832C20.8397 22.8549 20.8195 22.9302 20.7479 22.9717L20.3299 23.2132ZM13.7823 20.4021C13.7051 20.3512 13.6926 20.2469 13.7504 20.1816C15.3261 18.4424 16.5784 16.3644 15.336 14.2149L15.3222 14.191C15.2808 14.1194 15.3009 14.044 15.3726 14.0026L15.7905 13.761C15.8622 13.7196 15.9376 13.7397 15.979 13.8114L16.0066 13.8592C16.5105 14.7309 16.6261 15.62 16.5482 16.4775L16.992 15.2332L21.8332 15.4779C21.9136 15.4792 21.9927 15.561 21.9675 15.6552L21.8691 16.1741C21.849 16.2494 21.7892 16.284 21.7208 16.2757L17.5556 16.0705C17.1654 16.057 16.8958 16.1969 16.7334 16.5775C15.7768 18.9466 15.0455 19.8313 14.3224 20.6475C14.2765 20.7059 14.1961 20.7046 14.1446 20.6707L13.7823 20.4021Z" fill="white"/>
<path d="M6.82747 24.1333C8.5355 23.0153 9.22816 22.0838 8.74471 21.3452C8.26127 20.6066 7.13048 20.8687 5.42245 21.9867C3.71442 23.1046 3.02176 24.0361 3.50521 24.7747C3.98866 25.5133 5.11944 25.2512 6.82747 24.1333ZM3.52806 28.8645L3.28634 28.4952C3.24101 28.426 3.25696 28.3496 3.32621 28.3043L7.08849 25.8417C7.2616 25.7284 7.34721 25.557 7.15081 25.2569L6.93175 24.9222C4.89743 26.1713 3.51255 26.1711 2.87047 25.1902C2.23595 24.2207 2.76284 22.9857 4.65636 21.6474C4.74869 21.5869 4.76107 21.4799 4.64021 21.2953L4.50424 21.0875C4.45891 21.0183 4.47486 20.9419 4.54411 20.8966L4.94803 20.6322C5.01728 20.5869 5.09366 20.6028 5.13898 20.6721L5.2674 20.8683L4.98349 21.4168L5.02965 21.3866C7.2224 19.9513 8.70716 19.9026 9.37946 20.9298C10.014 21.8992 9.4831 23.1534 7.56649 24.5068L7.778 24.8299L7.52704 25.5547L12.0972 22.5633C12.1664 22.518 12.2428 22.534 12.2881 22.6032L12.5298 22.9725C12.5752 23.0417 12.5592 23.1181 12.49 23.1634L3.71901 28.9044C3.64976 28.9497 3.57338 28.9338 3.52806 28.8645ZM5.40395 29.6149L5.16222 29.2456C5.1169 29.1763 5.13285 29.0999 5.20209 29.0546L11.7457 24.7716C11.8149 24.7263 11.8913 24.7422 11.9366 24.8115L13.6287 27.3966C13.674 27.4658 13.6581 27.5422 13.5888 27.5875L13.1849 27.8519C13.1157 27.8972 13.0393 27.8813 12.994 27.812L11.8382 26.0463C11.7174 25.8617 11.4807 25.8023 11.3076 25.9156L5.59489 29.6547C5.52565 29.7001 5.44927 29.6841 5.40395 29.6149Z" fill="white"/>
</svg>
