<svg width="196" height="196" viewBox="0 0 196 196" fill="none" xmlns="http://www.w3.org/2000/svg">
<path d="M64.4533 40.6642C62.1928 39.8588 44.6959 36.0403 40.9046 36.2075C29.8034 39.701 34.0738 72.2434 34.1698 79.7036C34.2658 87.1638 52.0884 117.054 55.8251 126.07C59.5618 135.086 71.2759 169.374 104.413 182.857C121.451 189.789 150.459 191.722 150.459 191.722C150.459 191.722 160.139 191.017 167.504 187.368C174.3 184.002 179.025 175.53 181.03 171.606C189.353 139.419 173.167 128.224 156.999 119.192C156.999 119.192 130.595 112.304 111 96.0678C101.695 88.3586 95.8642 80.3811 93.6697 78.3737C91.4751 76.3663 82.8495 62.593 80.136 58.4306C77.4225 54.2683 72.6405 47.106 71.4284 45.8716C70.2163 44.6372 67.279 41.6711 64.4533 40.6642Z" fill="#5753B4"/>
<path d="M76.6185 51.9344C79.6844 57.2365 88.2986 63.8477 92.2224 66.4906L86.8668 67.8586L74.3314 63.4537L64.4738 58.3649L72.6856 80.2764L71.884 87.3748L60.2169 77.9939L46.1085 60.9166L36.8634 55.4336L39.9852 76.0305L36.4451 93.8124L34.6598 94.2684L34.108 84.6631L25.0508 61.3036L26.0695 42.0263L27.8438 28.4988L23.6961 3.88545L35.7609 3.65613L44.419 25.4536L66.2092 37.2405C68.4015 39.9292 73.5526 46.6323 76.6185 51.9344Z" fill="#6EB345"/>
</svg>
