<svg width="104" height="105" viewBox="0 0 104 105" fill="none" xmlns="http://www.w3.org/2000/svg">
<path d="M46.0712 92.1809C16.9907 90.7968 4.70179 58.5609 2.1924 42.616C3.47828 29.3376 18.0538 19.3094 25.1809 15.955C39.2015 15.1791 48.3015 22.6274 51.0989 26.4486C60.0555 22.9182 72.3704 25.8565 77.4083 27.7669C100.007 33.5719 100.956 57.7863 98.6063 69.1679C92.9655 79.0156 82.5384 86.5776 78.0299 89.1277C71.8445 92.7239 54.1469 92.6616 46.0712 92.1809Z" fill="#B39C71"/>
<path d="M41.6272 82.1332L37.4769 75.8602L40.8008 71.6276L46.8343 74.2385C51.313 77.1317 57.1626 76.1211 58.9087 77.3741L58.031 81.4714C52.8927 86.1724 44.9541 83.8714 41.6272 82.1332Z" fill="#A89166"/>
<path d="M27.0376 63.0282L26.4684 63.9644L28.5245 65.8555C29.3469 66.6119 32.3125 66.128 33.6925 65.7915L32.1138 62.5878L29.4886 61.633L27.0376 63.0282Z" fill="#A89166"/>
<path d="M21.576 48.9022L21.3347 49.4518L22.382 50.6687C22.801 51.1554 24.2045 50.9604 24.8539 50.8021L23.9914 48.804L22.7028 48.1367L21.576 48.9022Z" fill="#A89166"/>
<path d="M20.7954 70.1321L19.327 64.1104L27.0007 69.4164L30.9108 75.6402L28.6526 76.1909C25.9502 75.5739 22.2885 71.8946 20.7954 70.1321Z" fill="#A89166"/>
</svg>
