<svg width="148" height="149" viewBox="0 0 148 149" fill="none" xmlns="http://www.w3.org/2000/svg">
<path d="M58.7788 19.8949C52.7953 19.1632 43.871 21.6226 40.1568 22.9438C35.6386 19.895 29.0141 21.6735 26.2666 22.9438C19.6725 22.9438 12.529 31.9887 9.78151 36.5111C0.501035 47.365 -0.292691 70.8108 0.470507 81.177L5.81289 95.8115C11.6742 114.714 27.3859 126.961 34.5091 130.721H43.3622C44.4612 132.306 52.1644 135.142 55.8786 136.361C60.7631 137.703 69.1074 134.583 72.669 132.855C74.3785 136.148 85.3889 138.191 90.6804 138.8C94.8322 139.288 102.79 135.04 106.25 132.855C125.299 131.392 137.795 113.851 141.662 105.263C149.233 94.6529 148.175 64.2558 146.699 50.3835C145.6 42.4564 139.322 35.0883 136.32 32.3952L129.451 29.3463C121.666 16.9984 105.029 16.0838 103.502 14.8642C102.281 13.8886 97.3966 15.2707 95.107 16.0838L90.6804 11.6631C87.8719 9.83374 79.6395 9.57961 75.8744 9.68121C69.8909 9.31535 61.9842 16.3379 58.7788 19.8949Z" fill="#006332"/>
<path d="M71.5173 26.2218L76.5964 24.2133H78.628L80.6597 23.209H84.723L88.7863 24.2133L89.8021 27.2261V29.2347L91.8337 32.2475V35.2604V38.2732L89.8021 41.2861L87.7704 42.2904L84.723 44.299H80.6597L76.5964 42.2904L69.4856 41.2861L68.4698 38.2732L67.454 35.2604V30.239L69.4856 28.2304L71.5173 26.2218Z" fill="#B9A862"/>
<path d="M72.533 28.2293L75.5804 27.225L78.6279 26.2207H80.6596H82.6912H84.7228L85.7387 27.225L86.7545 28.2293L85.7387 31.2421L84.7228 32.2464H81.6754H78.6279L77.6121 31.2421L74.5646 32.2464L72.533 31.2421L71.5172 30.2378L72.533 28.2293Z" fill="#B9804E"/>
<path d="M130.265 59.8936L114.112 52.8643L97.379 50.1846L120.433 50.7555L133.075 55.676L140.8 66.22L142.205 85.9021L137.991 72.5464L130.265 59.8936Z" fill="#58A250"/>
<path d="M28.4307 38.1027L13.6823 42.3203L22.11 36.6969L34.0492 35.291H45.9884L60.0346 42.3203L42.4769 38.1027H28.4307Z" fill="#58A250"/>
<path d="M65.885 28.8897L56.4214 19.7432L63.7011 21.1503L65.885 28.8897Z" fill="#58A250"/>
<path d="M107.752 31.6926L95.1918 35.9001L97.9829 31.6926L107.752 28.8877H116.125L119.614 31.6926H107.752Z" fill="#58A250"/>
<path d="M85.3746 86.3737L79.012 54.8047L88.2025 67.4323L92.4442 86.3737L90.3233 114.435L85.3746 127.063V122.152V86.3737Z" fill="#58A250"/>
<path d="M37.5884 59.8142L53.6738 49.3164L45.9808 59.8142L30.5947 73.1114L21.503 87.8083L17.3068 110.903L15.2087 90.6077L23.6011 73.1114L37.5884 59.8142Z" fill="#58A250"/>
</svg>
