<svg width="196" height="196" viewBox="0 0 196 196" fill="none" xmlns="http://www.w3.org/2000/svg">
<path d="M47.6159 74.8872L52.6607 68.9947L57.7657 64.8234L70.6955 50.3134C73.9662 44.5295 79.7409 43.8317 83.0471 42.9982C94.9491 39.9976 107.461 51.7211 111.401 59.1654C121.364 66.9054 131.867 89.8662 135.874 100.379L156.743 121.923L168.258 136.936L178.896 160.091C186.746 167.973 191.328 181.74 194.082 187.574L189.977 190.762C184.106 191.243 176.542 189.022 173 187.164L164.755 183.098C158.207 179.807 149.643 174.984 148.21 173.427L138.519 164.849C132.164 160.964 122.26 155.597 114.256 149.019C106.85 146.283 98.2263 135.188 94.9248 133.002L90.2631 129.758C67.4794 117.662 53.8455 102.844 49.8766 96.9471C43.4117 87.074 45.6758 78.1267 47.6159 74.8872Z" fill="#F2652D"/>
<path d="M62.7156 46.8928L71.5128 50.3686L55.0382 69.6746C54.7165 68.4581 53.6972 66.028 52.1932 66.0401C50.6893 66.0522 43.0872 63.2318 39.4742 61.8201L22.1717 51.7629L2.21367 42.8354L0.780956 39.5221L24.4989 48.4193L4.34923 34.3952L6.52122 31.2746L30.7364 44.1577L19.0874 36.05L20.4837 34.0438L40.0078 47.6325C38.3651 45.9525 36.755 44.0053 35.7397 42.6766L10.7101 25.2561L15.6746 18.1231L26.3791 25.5734L17.5363 15.4482L24.0705 8.74589L39.9994 24.1339L28.2776 5.38717L33.8968 2.34958L44.1883 18.1154C49.8663 23.6555 58.9056 39.6087 62.7156 46.8928Z" fill="#00713D"/>
</svg>
