<svg width="236" height="237" viewBox="0 0 236 237" fill="none" xmlns="http://www.w3.org/2000/svg">
<path d="M182.281 7.84961L142.105 76.4618L126.909 68.6633L168.657 0.857855L182.281 7.84961Z" fill="#257652"/>
<path d="M149.763 75.7299L114.244 141.006L109.932 149.008L89.2872 137.624L127.197 63.1497L142.202 7.25806L153.468 13.0397L147.561 51.7588L194.182 5.29987L199.971 16.5944L149.763 75.7299Z" fill="#94C042"/>
<path d="M103.8 145.381L110.85 147.667L104.425 158.353C100.469 162.45 95.3263 178.877 93.2496 186.579C89.1445 202.318 83.2777 213.536 80.8574 217.177C76.1171 224.866 68.2493 226.91 64.908 226.971L58.028 228.767L56.5403 231.666L59.9294 234.737L55.9993 232.72L54.2501 225.164L53.6413 231.51L52.3312 230.838L52.8977 227.799L52.0862 229.381L50.7762 228.708L54.4278 221.593L47.0912 228.149L45.2571 227.208L52.8558 220.786L49.5346 212.423C51.1172 204.179 62.0896 193.118 67.378 188.618L73.5993 176.495C78.4681 167.007 82.3248 151.007 89.6281 136.776L96.5166 134.318L103.8 145.381Z" fill="white"/>
</svg>
