<svg width="236" height="237" viewBox="0 0 236 237" fill="none" xmlns="http://www.w3.org/2000/svg">
<path d="M162.884 37.6327C159.178 41.9557 151.927 54.5798 148.765 60.3516L108.666 47.4829L104.385 28.4012L102.66 13.1987L113.289 10.7107L115.821 22.6845L120.08 38.0441L119.543 30.6671L118.871 23.4471L117.101 4.231L124.635 6.11512L124.544 14.4786L125.477 28.2775L127.188 37.4393L129.008 0.442587L135.555 2.07998L135.335 18.7972L134.207 35.2874C135.089 31.1244 136.844 22.3006 136.809 20.3095C136.773 18.3184 138.648 7.99975 139.591 3.08933L147.573 5.0856C146.833 7.91822 145.15 15.0768 144.343 21.05C143.535 27.0233 140.847 39.479 139.269 45.5329C140.032 44.3894 144.319 34.8622 146.764 28.5169C148.719 23.4406 152.632 15.0864 154.344 11.5438L163.806 13.9102C161.295 16.9415 155.613 30.6029 153.377 37.1276C155.925 31.2083 167.249 19.1166 172.592 13.8106L176.21 22.2123C173.544 25.3738 166.59 33.3098 162.884 37.6327Z" fill="#4EAD69"/>
<path d="M162.312 73.0751C162.312 73.0751 160.127 63.8605 153.977 60.8364C146.29 57.0563 133.41 53.5072 131.276 53.7384C127.472 50.8929 117.651 45.5668 108.807 47.0263C97.7514 48.8508 92.018 52.9889 87.724 58.7989C85.2163 62.192 81.3756 66.8914 78.0301 74.5514C77.6234 75.4826 77.224 76.4575 76.8352 77.4791C76.3444 78.7689 75.8705 80.1332 75.42 81.5779C74.1366 85.6944 73.044 90.464 72.295 96.0251C69.3622 117.801 68.7845 124.802 68.7845 124.802C68.7845 124.802 63.7613 139.062 62.1498 143.029C59.3985 147.623 54.7454 158.246 53.367 163.408C51.6439 169.861 46.5117 198.019 46.5117 198.019L49.1302 223.494C49.1549 223.735 49.2614 223.954 49.439 224.118C50.835 225.41 57.2355 231.29 59.1574 232.271C63.9246 234.703 76.2031 233.236 76.2031 233.236C83.06 230.137 96.6367 217.239 96.6367 217.239C108.421 207.608 134.889 182.555 146.494 159.394C161 130.444 160.809 114.583 163.126 105.318C166.767 90.7585 162.312 73.0751 162.312 73.0751Z" fill="white"/>
<path d="M121.833 140.292L114.928 138.802L109.746 138.896L124.609 148.549L145.6 159.613L147.485 157.227L149.805 152.072L138.557 147.01L121.833 140.292Z" fill="#FAF7F0"/>
<path d="M99.0293 93.2532L94.7737 93.0158L91.7007 93.5466L101.505 97.829L114.815 101.696L122.788 101.876L120.33 98.9607L116.845 97.5754L109.649 95.6472L99.0293 93.2532Z" fill="#FAF7F0"/>
<path d="M60.7493 184.425L58.4694 184.03L56.6136 184.315L60.752 188.248L66.9504 192.012L71.3007 192.536L70.8127 190.058L69.3008 188.77L65.901 186.867L60.7493 184.425Z" fill="#FAF7F0"/>
<path d="M93.0619 149.208L88.6356 148.249L85.2163 148.427L94.2284 155.265L107.08 162.136L115.457 163.604L113.782 159.607L110.535 157.346L103.535 153.833L93.0619 149.208Z" fill="#FAF7F0"/>
</svg>
