<svg width="137" height="137" viewBox="0 0 137 137" fill="none" xmlns="http://www.w3.org/2000/svg">
<path d="M27.0326 36.7829C27.0326 36.7829 16.2334 53.5566 14.7181 59.7302C14.3661 74.0495 21.3984 87.0368 24.9585 91.7405C32.4665 100.78 51.6864 117.627 62.4572 119.132C75.9208 121.014 84.8303 120.156 94.8248 114.692C104.819 109.228 112.441 97.942 113.235 96.5813C114.028 95.2206 115.706 84.2368 115.73 78.5212C115.755 72.8055 112.449 53.4151 104.587 43.7589C98.2963 36.0339 96.0737 28.5773 95.7487 25.8146C92.1379 26.9493 70.5644 20.393 53.0045 24.6271C35.4446 28.8612 27.0326 36.7829 27.0326 36.7829Z" fill="#A4784A"/>
<path d="M59.5522 68.7611C42.8669 68.3967 24.4824 73.9425 17.7621 77.3634C17.7621 77.3634 20.0997 86.4084 23.5753 91.8725C27.8502 98.5932 33.5803 104.599 33.5803 104.599C33.5803 104.599 43.3748 112.024 50.4355 115.366C56.9509 118.449 67.9258 121.268 67.9258 121.268C67.9258 121.268 78.3859 120.851 85.3302 119.434C92.2744 118.018 99.5412 111.63 99.5412 111.63L87.9844 91.405C77.981 79.5686 64.8615 71.3772 59.5522 68.7611Z" fill="#C8B08C"/>
<path d="M88.1541 15.152L88.9424 25.9745L93.0192 37.4274L107.09 22.0725L104.584 21.5626L93.7962 30.4136L100.78 16.3017L99.1624 14.822L92.7137 23.4818L89.0426 14.1824L88.1541 15.152Z" fill="#A4784A"/>
</svg>
