<svg width="148" height="149" viewBox="0 0 148 149" fill="none" xmlns="http://www.w3.org/2000/svg">
<path d="M70.7398 127.642C73.9845 128.006 77.751 115.575 79.2286 109.315L94.032 85.5435L101.632 75.9589C110.18 76.8813 115.105 73.1403 116.499 71.1546C124.41 64.8788 123.961 54.9307 120.454 49.3112C121.086 41.3971 116.754 35.2385 114.509 33.1484L109.429 34.9031L109.568 24.7096L97.5474 15.5222C80.7615 3.65822 63.3347 15.012 59.308 15.5174C56.0867 15.9218 50.9153 22.947 48.7323 26.4091C44.9497 26.5013 36.5908 27.1711 33.4162 29.1121C30.2416 31.0531 31.3238 39.7702 32.2618 43.8862L28.4741 45.9224L24.922 53.5911C7.35888 60.463 9.95485 69.8695 9.53166 72.8301C9.19311 75.1985 12.0214 81.5562 13.4779 84.4389C10.5898 88.6271 14.4811 94.2137 15.7401 97.6364C16.7473 100.375 23.2747 102.067 26.4124 102.571L24.6665 106.34C26.1887 115.881 34.5565 116.489 38.5501 115.6C39.4972 123.107 48.8391 127.616 53.3917 128.932C60.0799 131.551 66.6839 127.187 70.7398 127.642Z" fill="#3B9F57"/>
<path d="M59.8553 117.602L55.4245 129.393L64.0395 132.238L72.7919 127.336L77.7859 121.247L84.0344 96.5867L100.013 85.1465L111.008 76.3659C126.267 72.252 125.186 56.1116 122.076 49.1886C125.371 45.2454 119.409 37.0026 116.577 33.5188L110.339 33.5708L110.408 25.2394L95.7105 14.5575C85.4863 8.48324 73.2216 10.6758 68.804 13.0735L69.4481 21.4975L67.3896 37.3354L56.1367 48.0957L44.7267 44.4557L42.9439 58.1724L45.8596 78.1079L39.5586 103.173L45.0198 101.294L51.9662 106.942L59.8553 117.602Z" fill="#328958"/>
<path d="M82.3883 114.456L61.9164 107.875L61.1309 97.1752C65.29 99.1095 74.9922 96.9443 79.3233 95.62L59.2164 69.4876L60.0328 63.2059L76.2431 69.0875L67.9842 61.1906L75.4506 56.2087L87.751 73.1964L77.2505 42.3604L83.8065 41.0348L99.8304 62.8618L96.7898 42.7223L101.797 47.7285L108.167 80.2053C109.218 89.9818 123.712 108.697 130.827 116.832C132.109 120.367 128.797 126.876 126.98 129.688L114.243 139.502L106.569 136.037L82.3883 114.456Z" fill="#8DCD79"/>
<path d="M106.2 123.604C105.023 130.894 108.292 136.184 110.073 137.918C116.392 142.228 121.589 136.798 123.398 133.544C129.835 128.13 131.019 122.323 131.172 117.837C129.814 114.171 122.727 111.506 119.353 110.631L110.298 111.925C107.416 114.691 106.365 120.864 106.2 123.604Z" fill="#C0E1C2"/>
</svg>
