<svg width="136" height="137" viewBox="0 0 136 137" fill="none" xmlns="http://www.w3.org/2000/svg">
<path d="M67.9114 66.2638L56.4148 86.6964L56.4223 93.1221C56.4217 92.6685 65.1046 88.6329 69.4462 86.6718C73.9788 86.6632 82.0328 83.1202 85.4932 81.3497C94.5535 77.0993 104.107 64.1795 107.752 58.2509L115.113 54.8351L120.586 51.2339L126.807 41.7727C130.427 35.7182 127.298 30.3064 125.281 28.3573C119.838 25.6462 108.662 29.5227 103.755 31.7999C98.6198 33.6239 95.0786 41.6437 93.9499 45.4257L85.458 51.3004C80.9264 52.2161 71.8721 61.6576 67.9114 66.2638Z" fill="#73BE1D"/>
<path d="M49.8808 66.2013L39.9808 82.7781L35.3857 85.4007C35.7101 85.2156 35.0429 77.3566 34.6688 73.4503C32.8212 70.2059 32.0593 62.9981 31.9093 59.7998C31.2413 51.5832 36.5669 39.4681 39.3132 34.4376L38.7435 27.777L39.0788 22.391L43.2957 14.0732C46.1424 9.00935 51.2895 9.0332 53.5072 9.67811C57.6705 12.4607 59.471 22.0372 59.8508 26.4776C60.6473 30.8952 56.3643 36.7072 54.1233 39.061L53.398 47.5354C54.5969 51.1501 51.5527 61.4855 49.8808 66.2013Z" fill="#73BE1D"/>
<path d="M47.428 60.8737C48.4661 66.1578 49.3002 71.695 49.5874 73.8031L49.8424 77.7172L55.254 77.4543L63.0233 76.403C65.3256 77.425 71.17 75.8833 73.8044 74.9847L78.9634 69.3671C90.1005 68.9282 95.6935 59.6673 97.0979 55.0917C96.4045 52.3373 100.572 48.0999 102.742 46.3255C109.59 43.3534 110.415 33.7703 109.972 29.3503C111.207 22.0692 107.629 13.5141 105.685 10.1466L96.7445 7.27018C85.0547 4.35302 81.1638 8.48022 80.1136 10.1112C79.2735 11.4159 73.9995 12.902 71.4675 13.4819C63.1934 13.6887 59.9161 22.9611 59.3117 27.5714C59.69 30.8151 57.3343 35.4315 56.1092 37.3342C44.2626 44.2387 45.3856 55.9041 47.428 60.8737Z" fill="#008725"/>
<path d="M41.3562 93.8358L41.3234 102.603L42.6952 103.74C48.8077 101.353 55.5 94.4544 58.0821 91.3036C63.1796 85.12 60.9968 79.0443 59.2683 76.7793C57.4824 75.3203 53.4304 78.1604 51.6276 79.7628C48.1613 81.7404 47.1238 87.2969 47.0383 89.8279L41.3562 93.8358Z" fill="#008023"/>
<path d="M39.2059 63.4567L34.711 76.9564L33.0636 78.125C29.5652 71.8692 27.9443 58.4282 27.5712 52.4897C26.8156 40.8228 31.6369 32.3998 34.142 29.6467C36.2759 28.1575 37.9465 34.2393 38.5151 37.4664C40.1772 41.974 38.115 50.9598 36.8762 54.8892L39.2059 63.4567Z" fill="#008725"/>
<path d="M25.9803 122.031L21.292 117.21C20.2582 114.974 21.0622 108.981 21.3889 106.545L21.3889 106.544L25.3551 95.4426L30.0614 80.2446L33.4686 66.2078L32.3532 57.478L35.2148 67.3946L32.8778 84.816L27.1716 101.787L25.5182 108.431L28.0911 106.296L33.7194 92.7465L37.7886 78.0355L39.1456 67.9198L38.0666 60.3389L39.5476 64.9226L39.9959 80.0465L36.8373 95.07L41.899 87.1655L51.5976 71.6811L53.0248 66.7233L56.3592 50.3886L60.7223 42.0094L57.3817 51.288L55.4217 65.8995L57.9079 62.9901L64.4306 54.1367L66.1957 48.0799L67.2762 40.0249L70.7624 35.3422L74.2599 31.9958L71.6983 35.4673L68.0865 41.0866L67.3024 52.6136L72.2748 46.7947L80.8703 36.6928L86.1165 31.6732L79.2559 41.6256L76.2194 45.7963L83.8098 43.1875L91.7971 43.3013L95.0182 42.0155L92.9817 44.413L84.4329 44.2242L79.5887 46.2465L66.9255 55.4235L64.5372 60.4435L64.3613 61.7548L75.5446 60.7702L86.4288 59.1736L89.9627 56.9762L95.7064 53.9299L87.8257 60.123L72.9717 62.9053L59.6402 65.7004L51.6427 77.0263L40.4164 98.2178L33.2152 112.129L40.9589 105.536L44.3082 100.454L45.0118 95.2088L46.1123 92.6863L45.7605 95.3088L45.2831 98.8681L48.9088 91.7251L51.1073 89.54L49.6575 91.8252L44.7303 102.989L40.4815 109.096L30.4275 117.286L33.9224 116.8L42.1661 109.321L51.5016 95.1225L60.0105 84.2463L69.8999 78.7031L79.3872 76.1571L87.2488 77.2075L81.6949 77.4188L69.6486 80.5763L78.5328 82.5262L69.4224 82.2623L64.1285 84.7966L55.7202 94.9235C51.8678 104.324 44.9257 112.422 42.2979 115.44C39.7592 118.457 33.2212 120.393 31.0198 121.179L25.9803 122.031Z" fill="#ABE178"/>
<path d="M26.1142 122.24L21.289 117.019L19.5766 119.841L18.4371 124.074L19.1946 128.371L18.9684 130.057L19.7561 128.446L20.1833 125.261L23.3792 124.163L26.1142 122.24Z" fill="#D1F2B3"/>
</svg>
