<svg width="196" height="196" viewBox="0 0 196 196" fill="none" xmlns="http://www.w3.org/2000/svg">
<path d="M63.768 44.7067L70.2674 181.301L89.352 180.393L87.0665 132.36L84.7096 82.8257L84.9866 47.9955L84.6295 40.4903L87.2642 32.6276L86.7235 21.2628L79.0349 8.73342L72.4388 1.09525L68.3646 1.28911L60.2257 15.4311L59.3878 33.954L63.768 44.7067Z" fill="#9ECA4F"/>
<path d="M68.011 128.788C69.5519 129.469 75.6415 127.325 78.4936 126.168C75.6089 121.025 68.4221 115.961 65.1893 114.072C65.4878 118.694 66.47 128.107 68.011 128.788Z" fill="#EAF1AE"/>
<path d="M63.744 70.3093C65.0017 71.4302 71.4554 71.2584 74.525 71.0324C73.3576 65.2524 68.0716 58.2275 65.5745 55.4375C64.4403 59.9277 62.4863 69.1884 63.744 70.3093Z" fill="#EAF1AE"/>
<path d="M77.0977 163.761C78.2688 164.826 82.7316 165.827 84.8166 166.195C85.7747 166.149 86.3125 158.387 86.4616 154.512L83.9807 148.627L76.8127 157.772C76.4197 159.325 75.9265 162.696 77.0977 163.761Z" fill="#EAF1AE"/>
<path d="M77.0099 95.0312L84.2344 99.6895L85.7463 89.4135L85.3378 80.8294C81.6341 83.7267 78.2427 91.5045 77.0099 95.0312Z" fill="#EAF1AE"/>
<path d="M81.0587 26.4751C78.577 28.7862 76.8822 30.9215 76.345 31.7002C78.6194 35.8648 83.754 37.1837 86.037 37.3226C86.3334 36.2853 87.1013 33.3461 87.8012 29.8871C88.5011 26.4281 87.3704 21.7295 86.7176 19.8126C85.8654 21.0704 83.5404 24.1639 81.0587 26.4751Z" fill="#EAF1AE"/>
<path d="M66.0759 22.0297C68.6496 24.2381 70.4298 26.3026 70.9982 27.0589C68.8951 31.3126 63.8184 32.8391 61.5429 33.0707C61.2045 32.0464 60.3177 29.1407 59.4778 25.7131C58.6378 22.2854 59.5765 17.5447 60.1508 15.6029C61.0535 16.825 63.5023 19.8214 66.0759 22.0297Z" fill="#EAF1AE"/>
<path d="M70.5621 7.17806C73.2657 10.1894 73.4178 13.3847 73.4178 13.3847C71.3147 17.6384 68.452 17.1249 68.452 17.1249C68.452 17.1249 64.8039 14.2891 63.964 10.8614C63.124 7.43375 65.0692 4.38561 65.6435 2.44373C66.5462 3.66588 68.2966 4.65465 70.5621 7.17806Z" fill="#EAF1AE"/>
<path d="M76.0739 14.5244C74.0127 17.2173 74.5638 21.1875 74.5638 21.1875L80.0123 21.9854C80.0123 21.9854 81.829 18.2326 81.9418 14.7053C82.0545 11.1781 79.9068 8.87505 79.9068 8.87505C79.9068 8.87505 78.135 11.8315 76.0739 14.5244Z" fill="#EAF1AE"/>
<path d="M116.741 51.1484L84.6009 184.067L103.172 188.557L114.474 141.817L126.129 93.6157L136.181 60.2663L137.947 52.9631L142.685 46.1574L145.359 35.0984L141.5 20.9136L137.316 11.7298L133.351 10.7711L121.567 22.0568L115.558 39.5982L116.741 51.1484Z" fill="#9ECA4F"/>
<path d="M97.1899 133.034C98.4775 134.12 104.924 133.774 107.987 133.465C106.663 127.719 101.188 120.839 98.6166 118.118C97.6045 122.637 95.9023 131.948 97.1899 133.034Z" fill="#3D8637"/>
<path d="M109.524 75.7096C110.416 77.1387 116.658 78.7871 119.667 79.4326C120.171 73.5575 117.072 65.3304 115.459 61.9512C113.109 65.9418 108.632 74.2805 109.524 75.7096Z" fill="#3D8637"/>
<path d="M96.0834 169.151C96.9082 170.502 100.91 172.717 102.808 173.656C103.74 173.881 106.437 166.583 107.669 162.906L106.941 156.561L97.4926 163.324C96.6792 164.703 95.2586 167.8 96.0834 169.151Z" fill="#3D8637"/>
<path d="M115.313 103.166L120.937 109.667L125.275 100.23L127.295 91.8764C122.927 93.6165 117.487 100.128 115.313 103.166Z" fill="#3D8637"/>
<path d="M138.459 38.5093C135.428 40.0301 133.201 41.6032 132.467 42.1996C133.479 46.8355 138.037 49.5439 140.189 50.3186C140.765 49.4064 142.327 46.8013 143.971 43.6783C145.615 40.5553 145.85 35.7283 145.762 33.7051C144.59 34.6729 141.49 36.9885 138.459 38.5093Z" fill="#3D8637"/>
<path d="M125.328 30.0339C127.178 32.8764 128.306 35.358 128.639 36.2434C125.426 39.7349 120.125 39.7736 117.876 39.3565C117.839 38.2784 117.804 35.2406 117.961 31.7151C118.118 28.1895 120.351 23.9035 121.448 22.2012C121.971 23.6277 123.479 27.1914 125.328 30.0339Z" fill="#3D8637"/>
<path d="M133.805 17.0404C135.554 20.6901 134.802 23.7994 134.802 23.7994C131.589 27.2908 128.986 25.9937 128.986 25.9937C128.986 25.9937 126.281 22.2472 126.438 18.7216C126.595 15.196 129.318 12.8172 130.415 11.1149C130.938 12.5414 132.34 13.9821 133.805 17.0404Z" fill="#3D8637"/>
<path d="M137.034 25.6399C134.299 27.6453 133.713 31.6103 133.713 31.6103L138.718 33.9069C138.718 33.9069 141.515 30.8157 142.615 27.4622C143.714 24.1087 142.3 21.2951 142.3 21.2951C142.3 21.2951 139.769 23.6346 137.034 25.6399Z" fill="#3D8637"/>
<path d="M84.0392 56.8201L73.5962 193.17L92.6466 194.629L96.3189 146.682L100.106 97.2363L104.688 62.7078L105.262 55.216L108.849 47.7396L109.718 36.3951L103.638 23.0111L98.0369 14.6158L93.97 14.3043L84.1447 27.3312L81.0225 45.6083L84.0392 56.8201Z" fill="#41833B"/>
<path d="M77.8527 140.781C79.2977 141.647 85.6056 140.273 88.579 139.477C86.3524 134.017 79.847 128.103 76.8727 125.829C76.5973 130.452 76.4078 139.915 77.8527 140.781Z" fill="#88C577"/>
<path d="M80.8512 82.2226C81.9606 83.4905 88.3859 84.1181 91.4599 84.2735C91.0163 78.3935 86.6396 70.7688 84.5067 67.6914C82.8259 72.0069 79.7417 80.9548 80.8512 82.2226Z" fill="#88C577"/>
<path d="M82.5458 176.61C83.5763 177.811 87.8809 179.357 89.9045 179.98C90.8609 180.053 92.3545 172.417 92.9817 168.59L91.2476 162.444L83.0037 170.632C82.4217 172.124 81.5154 175.408 82.5458 176.61Z" fill="#88C577"/>
<path d="M90.9614 108.396L97.5544 113.912L100.325 103.902L100.982 95.3333C96.9482 97.7503 92.6209 105.049 90.9614 108.396Z" fill="#88C577"/>
<path d="M103.454 40.8667C100.705 42.8532 98.7593 44.7625 98.1299 45.4688C99.8717 49.8827 104.804 51.8265 107.052 52.2466C107.475 51.254 108.6 48.4323 109.722 45.0864C110.845 41.7405 110.304 36.9382 109.893 34.9552C108.892 36.098 106.202 38.8802 103.454 40.8667Z" fill="#88C577"/>
<path d="M89.1362 34.6052C91.4169 37.1149 92.9282 39.3838 93.3987 40.2045C90.7857 44.1654 85.5591 45.0525 83.2725 45.0008C83.0634 43.9425 82.5428 40.9495 82.1332 37.4443C81.7236 33.9391 83.2413 29.3509 84.0514 27.4949C84.796 28.8193 86.8554 32.0955 89.1362 34.6052Z" fill="#88C577"/>
<path d="M95.4242 20.4205C97.7347 23.7432 97.4904 26.9327 97.4904 26.9327C94.8774 30.8936 92.1002 30.03 92.1002 30.03C92.1002 30.03 88.8308 26.7648 88.4212 23.2596C88.0116 19.7544 90.3188 16.9702 91.1289 15.1143C91.8735 16.4387 93.4882 17.6363 95.4242 20.4205Z" fill="#88C577"/>
<path d="M99.9871 28.3944C97.6087 30.8118 97.6646 34.8196 97.6646 34.8196L102.973 36.2852C102.973 36.2852 105.239 32.7859 105.788 29.2996C106.336 25.8134 104.489 23.2625 104.489 23.2625C104.489 23.2625 102.365 25.9771 99.9871 28.3944Z" fill="#88C577"/>
</svg>
