<svg width="148" height="149" viewBox="0 0 148 149" fill="none" xmlns="http://www.w3.org/2000/svg">
<path d="M6.70519 86.6312C-0.189715 52.0669 14.7345 37.3697 23.0585 34.3416C27.3015 13.4258 54.8811 9.23079 68.1406 9.74777C92.5379 8.15249 107.035 20.4568 111.234 26.8084L127.366 95.2723L43.6106 130.058C15.147 121.195 7.14717 97.4141 6.70519 86.6312Z" fill="#AFD26E"/>
<path d="M42.2822 21.2669C75.1656 8.85925 94.5833 16.0971 100.182 21.2669L113.662 43.8666L107.253 102.803L82.9445 131.385L33.6636 120.085C6.26076 101.651 12.3748 64.1029 18.8572 47.6332C20.4483 38.0615 35.1369 26.0675 42.2822 21.2669Z" fill="#E3F4A7"/>
<path d="M24.6549 108.128L36.3674 125.189C47.5054 138.837 74.8935 139.738 87.1952 138.483C115.659 134.938 133.235 109.975 138.465 97.9362C147.658 84.2878 140.97 70.2404 136.476 64.9228C134.708 37.094 117.766 26.2964 109.515 24.3762C95.7255 12.323 74.3041 16.1044 65.3172 19.5018C42.1574 24.4648 36.3674 43.5786 36.3674 52.5151C32.478 53.5786 26.9385 61.23 24.6549 64.9228C17.76 71.4812 21.7821 96.459 24.6549 108.128Z" fill="#C2E188"/>
<path d="M83.1675 124.601L74.1069 137.895H86.9243L101.952 108.87L121.841 93.1384L134.216 91.809L140.625 84.9405V83.6111L132.89 89.8149H121.841L131.785 80.9523L137.31 66.5505L136.205 64.9996L130.239 79.8445L103.057 101.336L109.023 72.3112L123.388 57.2448L130.239 51.2625V48.6037L121.841 54.586L124.272 41.9567V35.5313H123.388L118.526 55.2507L109.023 66.5505L109.686 58.131L106.592 35.5313L104.162 23.5667L103.057 22.902V25.7824L104.604 44.1724C103.543 45.4131 86.777 27.5549 78.5267 18.4707L76.9798 19.1354L84.2724 27.1118C88.5155 36.3289 99.5945 45.2802 104.604 48.6037L103.057 79.8445L90.4602 70.3171L85.5984 46.6096L69.4661 24.453V20.2432H67.2562V24.453L80.5156 46.6096H76.9798L63.4993 36.8607L53.1128 28.2196H50.9029L53.1128 31.1L72.5599 48.6037L82.0625 52.1487L84.2724 75.4132L101.952 87.8209L89.5762 116.846L65.4882 96.0188L48.472 56.1369L46.4831 60.7898L59.7425 96.0188L42.2842 87.8209L23.058 71.2034V75.4132L36.7595 87.8209L67.2562 108.87H53.1128L27.9198 101.336L45.3781 110.421L72.5599 114.409L83.1675 124.601Z" fill="#DAF6A5"/>
</svg>
