<svg width="136" height="137" viewBox="0 0 136 137" fill="none" xmlns="http://www.w3.org/2000/svg">
<path d="M19.065 31.1124L36.05 46.6026L44.7479 42.1381L47.7525 34.0939L31.0272 21.4675L23.2856 0.970703L13.3004 13.1109L25.1384 28.81L21.1238 26.6121L19.065 31.1124Z" fill="#5C8740"/>
<path d="M29.8951 67.2167C31.3723 62.9613 33.383 50.6331 34.2037 45.0009L45.4739 38.7002V32.3344C46.3375 32.4076 49.6624 32.51 56.053 32.3344C64.0412 32.1149 73.9726 30.1393 79.3701 30.3588C84.7675 30.5783 106.142 34.9685 116.936 58.2364C125.572 76.8507 119.671 97.0162 115.641 104.772L110.675 111.138V117.723L102.039 124.967C94.483 124.089 85.847 126.942 83.0403 128.04C80.2337 129.138 74.6203 131.333 61.0187 130.235C47.417 129.138 35.7584 120.577 29.8951 106.748C24.0318 92.9187 28.0486 72.536 29.8951 67.2167Z" fill="#FFCE89"/>
<path fill-rule="evenodd" clip-rule="evenodd" d="M31.2364 62.0099C30.7726 64.1683 30.3126 66.0153 29.8952 67.2177C28.0487 72.537 24.0319 92.9197 29.8952 106.749C35.7586 120.578 47.4171 129.139 61.0188 130.236C74.6204 131.334 80.2338 129.139 83.0405 128.041C84.9282 127.303 89.453 125.77 94.5128 125.113C82.1276 123.468 64.2204 117.867 51.6879 103.906C39.8563 90.7268 32.5036 75.4249 31.2364 62.0099ZM45.4741 38.4737C61.9826 36.7289 84.7239 40.492 100.678 58.2637C109.037 67.5748 112.869 80.0466 113.931 91.7686C114.422 97.1745 114.323 102.421 113.807 107.124L115.641 104.773C119.671 97.0172 125.573 76.8516 116.937 58.2373C106.142 34.9694 84.7677 30.5793 79.3702 30.3598C76.5605 30.2455 72.5223 30.7261 68.1692 31.2441C64.1597 31.7212 59.8831 32.2302 56.0531 32.3354C49.6625 32.511 46.3376 32.4086 45.4741 32.3354V38.4737Z" fill="#F2A361"/>
<path d="M56.2708 105.149C64.5848 115.334 78.6319 121.818 83.9128 122.803C89.1776 122.443 102.389 119.182 102.389 119.182C102.389 119.182 108.917 112.024 110.848 110.581C72.3115 101.133 58.5091 69.4479 58.5091 69.4479C49.3954 74.9638 40.5351 71.6926 37.6701 71.533C38.5784 74.9951 48.0053 95.0234 56.2708 105.149Z" fill="#F2A361"/>
<path d="M102.689 65.3122C109.179 70.294 113.587 79.5597 114.343 82.8817C114.274 86.2321 112.652 94.7077 112.652 94.7077C112.652 94.7077 108.447 99.0549 107.617 100.322C102.91 84.5962 92.4902 74.9134 88.8204 71.2478C91.9436 65.3073 92.3637 60.1961 92.1834 58.3831C94.3343 58.8599 96.2373 60.3596 102.689 65.3122Z" fill="#F2A361"/>
</svg>
