<svg width="104" height="105" viewBox="0 0 104 105" fill="none" xmlns="http://www.w3.org/2000/svg">
<path d="M54.7025 5.31891C41.1599 11.1611 25.5704 27.9602 19.8671 35.8072L68.7628 87.89L75.3481 81.8573C90.3206 61.6271 95.3601 48.1882 99.1304 37.6418L100.536 30.0355C100.869 15.8344 87.9829 6.30696 81.4986 3.31838C76.2339 0.0893766 66.7802 1.48635 62.7114 2.58847L54.7025 5.31891Z" fill="#D3C3A3"/>
<path d="M5.32053 52.771L1.72171 70.5733L3.87547 83.2215C5.0133 89.9036 13.0295 94.6777 16.8953 96.2295L26.5786 99.7374C33.1146 102.357 49.2501 99.7241 56.5008 98.0801C69.4747 93.5135 74.7111 78.1171 75.7075 70.9898C79.2894 57.4141 68.5259 43.2361 62.6965 37.8441C53.4627 28.6116 30.2959 32.6383 19.8667 35.8057L5.32053 52.771Z" fill="#F7EDDA"/>
<path d="M48.9313 62.8146L49.1432 59.4245C50.2331 56.5558 55.4633 53.2845 57.9421 52.0075C63.1278 50.0196 65.2213 51.886 65.6198 53.0676L65.8323 58.9502C64.5435 63.4312 60.6451 65.9496 58.8569 66.6486C54.5393 68.173 50.4409 64.7278 48.9313 62.8146Z" fill="#D6C9B0"/>
<path d="M52.7726 81.8912C50.1779 78.7028 50.6032 74.1716 51.1402 72.3045C51.8516 70.9207 55.6547 71.0097 57.4673 71.2271C61.8666 71.1093 65.7271 74.1611 67.1074 75.7016C70.2896 78.6321 66.5164 83.4309 64.2321 85.464L60.1119 86.7575C56.6852 87.0253 53.7912 83.6249 52.7726 81.8912Z" fill="#D6C9B0"/>
<path d="M35.8886 45.3077C35.21 48.7377 36.9007 51.2514 37.8309 52.0795C38.6327 53.0807 41.0151 50.696 42.106 49.3786C45.6173 44.0456 42.9268 40.2949 41.1426 39.0861C37.0173 37.1054 35.9211 42.4085 35.8886 45.3077Z" fill="#D6C9B0"/>
<path d="M46.8174 43.4467C43.962 46.1426 44.7495 49.4545 45.5003 50.7735C47.811 53.221 51.7038 50.9009 53.3613 49.4349C57.0098 46.7618 54.1632 44.103 52.2839 43.1077C49.513 40.7386 47.485 42.3466 46.8174 43.4467Z" fill="#D6C9B0"/>
<path d="M34.4235 68.0184L35.5833 65.1963C36.0472 64.0674 37.9876 63.2558 38.8998 62.9911L41.7497 64.8024L39.9856 69.3678C37.4617 71.1099 35.2259 69.194 34.4235 68.0184Z" fill="#D6C9B0"/>
<path d="M18.4281 89.9108C13.4837 87.7539 14.8174 84.5411 16.1024 83.2043C18.0897 80.9718 21.3116 79.4236 22.6742 78.9285C30.6697 75.8309 30.9448 81.9264 30.0829 85.3614C27.3941 91.8169 21.1927 91.0841 18.4281 89.9108Z" fill="#D6C9B0"/>
<path d="M33.5098 86.9481C35.1804 81.9286 38.0049 80.1324 39.2083 79.8617L43.1083 79.5922C46.9201 79.7323 48.2977 85.3507 48.5101 88.1424C48.4355 96.0467 42.0175 96.745 38.8178 96.1061C32.4211 95.617 32.6138 89.797 33.5098 86.9481Z" fill="#D6C9B0"/>
<path d="M17.5888 51.3827C15.761 48.0638 18.2412 45.9448 19.7097 45.3001C28.2111 40.538 31.3649 46.9325 31.8791 50.725C32.1342 57.7841 29.2362 59.9216 27.7554 60.108C22.896 60.3042 18.9529 54.3729 17.5888 51.3827Z" fill="#D6C9B0"/>
<path d="M9.5464 73.6663C5.5156 69.4598 7.9017 63.6214 9.59859 61.228C12.3007 58.5582 16.6288 60.0309 18.4551 61.1009C24.3132 61.2082 26.0773 67.6289 26.2271 70.8259C26.0642 75.4308 20.4184 76.8788 17.6158 77.0272L9.5464 73.6663Z" fill="#D6C9B0"/>
</svg>
