<svg width="196" height="196" viewBox="0 0 196 196" fill="none" xmlns="http://www.w3.org/2000/svg">
<path d="M14.6343 149.647L17.9392 174.884L28.5356 174.31L38.3874 164.196L57.6932 118.998L109.604 35.2343L118.218 21.3346L122.584 6.85202L114.877 19.2886L95.5424 30.6586C89.9348 30.4534 66.6587 54.6827 55.7216 66.823L44.4274 80.0903L21.7169 112.606L18.6701 129.915L14.6343 149.647Z" fill="#006835"/>
<path d="M132.948 63.6603L90.8645 121.652L118.365 115.283L148.476 80.741L171.144 44.1629L195.281 29.1744L174.089 30.323L132.948 63.6603Z" fill="#009F28"/>
<path d="M18.6391 171.275L21.8149 175.239L36.4539 182.187L54.9443 173.832L75.1636 154.426L109.395 108.277L126.623 80.4779C144.05 57.6449 148.032 36.5681 147.844 28.8838L149.431 26.3233L142.708 18.1684L131.514 18.8811L100.925 38.4965L81.7169 62.0553L45.9187 108.253L26.4017 133.136L18.6391 171.275Z" fill="#FFDD36"/>
<path d="M44.894 124.781C43.9873 126.244 44.6955 127.855 45.1629 128.478C46.2848 129.973 50.5241 132.771 52.5036 133.984C54.1037 135.367 56.2624 133.426 57.1417 132.283C58.3454 131.002 57.8625 129.192 57.4706 128.447C56.6456 127.135 52.4805 124.381 50.5011 123.169C47.8289 121.532 45.6496 123.562 44.894 124.781Z" fill="#F4C21B"/>
<path d="M125.159 67.2155C124.208 68.7502 124.4 70.1029 124.615 70.5874C125.131 71.7502 127.65 73.5049 128.845 74.2368C129.73 75.2025 131.686 72.9777 132.553 71.7446C133.683 70.3197 133.694 68.7387 133.559 68.1263C133.222 67.0733 130.748 65.3461 129.553 64.6141C127.94 63.6259 125.951 65.9367 125.159 67.2155Z" fill="#F4C21B"/>
<path d="M61.5302 130.295C60.6235 131.758 61.3317 133.369 61.7992 133.992C62.921 135.486 67.1604 138.285 69.1398 139.497C70.7399 140.881 72.8986 138.94 73.7779 137.797C74.9816 136.515 74.4987 134.706 74.1068 133.961C73.2819 132.648 69.1168 129.895 67.1373 128.683C64.4651 127.046 62.2858 129.075 61.5302 130.295Z" fill="#F4C21B"/>
<path d="M61.4619 116.125C58.146 112.883 54.7746 112.87 53.5034 113.269C52.1842 114.076 51.2914 116.287 51.01 117.292C49.8063 118.574 55.0451 122.624 57.815 124.488C61.0153 127.256 63.2303 125.114 63.9377 123.697C66.0481 120.953 63.1665 117.506 61.4619 116.125Z" fill="#F4C21B"/>
<path d="M77.4856 121.903C74.1698 118.661 70.7984 118.648 69.5272 119.047C68.2079 119.854 67.3152 122.066 67.0337 123.071C65.8301 124.352 71.0689 128.402 73.8388 130.267C77.039 133.034 79.254 130.892 79.9615 129.475C82.0719 126.731 79.1902 123.284 77.4856 121.903Z" fill="#F4C21B"/>
<path d="M132.506 46.5377C129.767 43.8673 126.99 43.848 125.944 44.1721C124.859 44.831 124.13 46.6444 123.901 47.4688C122.913 48.5175 127.238 51.8561 129.525 53.3943C132.168 55.6748 133.986 53.922 134.565 52.7606C136.296 50.513 133.914 47.6755 132.506 46.5377Z" fill="#F4C21B"/>
<path d="M139.431 38.6676C136.692 35.9972 133.915 35.9778 132.869 36.302C131.785 36.9609 131.055 38.7743 130.826 39.5987C129.838 40.6474 134.164 43.986 136.45 45.5242C139.093 47.8047 140.912 46.0519 141.49 44.8905C143.221 42.6429 140.839 39.8054 139.431 38.6676Z" fill="#F4C21B"/>
<path d="M141.973 27.1041C140.599 25.2699 138.689 25.7812 137.905 26.2661C137.031 27.0536 136.179 28.792 135.862 29.5628C134.979 30.6759 137.318 32.7977 138.598 33.7195C139.981 35.2282 141.572 33.336 142.195 32.2013C143.821 29.8894 142.725 27.8399 141.973 27.1041Z" fill="#F4C21B"/>
<path d="M131.987 26.9768C130.059 25.0238 128.027 25.0873 127.253 25.3632C126.441 25.8948 125.855 27.2941 125.664 27.9273C124.911 28.7525 127.981 31.169 129.61 32.274C131.479 33.9334 132.86 32.5495 133.317 31.6501C134.647 29.8924 132.985 27.8022 131.987 26.9768Z" fill="#F4C21B"/>
<path d="M32.7958 141.415C32.7958 141.415 34.2026 139.535 35.496 139.536C36.6848 139.537 38.0939 141.127 38.0939 141.127L43.5789 145.496C45.3604 146.587 45.2427 148.87 44.9612 149.875L42.7766 152.574L40.1586 153.494L38.6741 152.585C34.6328 150.513 31.9039 147.26 31.0446 145.893C30.2196 144.58 31.8683 142.36 32.7958 141.415Z" fill="#F4C21B"/>
<path d="M51.2056 143.652C51.2056 143.652 52.6124 141.772 53.9058 141.773C55.0946 141.774 56.5037 143.365 56.5037 143.365L61.9887 147.734C63.7701 148.825 63.6525 151.108 63.371 152.113L61.1864 154.812L58.5684 155.731L57.0839 154.822C53.0426 152.75 50.3137 149.498 49.4543 148.13C48.6294 146.817 50.2781 144.598 51.2056 143.652Z" fill="#F4C21B"/>
<path d="M39.4883 132.263C39.4883 132.263 40.851 130.449 42.1187 130.461C43.2838 130.472 44.6786 132.029 44.6786 132.029L50.0918 136.32C51.8472 137.395 51.7515 139.612 51.4842 140.586L49.3663 143.189L46.8083 144.06L45.3455 143.164C41.3669 141.117 38.6644 137.934 37.8104 136.599C36.9906 135.316 38.5875 133.174 39.4883 132.263Z" fill="#F4C21B"/>
<path d="M57.4038 136.541C57.4038 136.541 58.7664 134.727 60.0341 134.739C61.1992 134.75 62.594 136.307 62.594 136.307L68.0072 140.598C69.7626 141.673 69.6669 143.89 69.3996 144.864L67.2817 147.468L64.7237 148.339L63.2609 147.443C59.2823 145.396 56.5798 142.213 55.7258 140.877C54.906 139.595 56.5029 137.452 57.4038 136.541Z" fill="#F4C21B"/>
<path d="M74.9725 110.602C74.9725 110.602 76.3352 108.788 77.6029 108.8C78.768 108.811 80.1627 110.368 80.1627 110.368L85.576 114.659C87.3313 115.734 87.2357 117.951 86.9684 118.925L84.8505 121.528L82.2925 122.399L80.8297 121.503C76.8511 119.456 74.1486 116.273 73.2946 114.937C72.4748 113.655 74.0717 111.513 74.9725 110.602Z" fill="#F4C21B"/>
<path d="M109.011 36.5804C109.011 36.5804 110.363 34.7601 111.576 34.7389C112.692 34.7194 113.986 36.2146 113.986 36.2146L119.055 40.2947C120.707 41.3067 120.557 43.4901 120.275 44.4553L118.179 47.0719L115.707 47.9958L114.33 47.1525C110.575 45.2426 108.072 42.1816 107.29 40.8898C106.539 39.6497 108.124 37.5001 109.011 36.5804Z" fill="#F4C21B"/>
<path d="M118.162 30.0775C118.162 30.0775 119.515 28.2571 120.728 28.2359C121.843 28.2164 123.137 29.7117 123.137 29.7117L128.207 33.7918C129.859 34.8037 129.708 36.9872 129.427 37.9524L127.33 40.569L124.859 41.4929L123.482 40.6496C119.727 38.7397 117.224 35.6787 116.441 34.3869C115.691 33.1467 117.276 30.9972 118.162 30.0775Z" fill="#F4C21B"/>
<path d="M90.4371 117.044C90.4371 117.044 91.7997 115.23 93.0674 115.242C94.2325 115.253 95.6273 116.81 95.6273 116.81L101.041 121.101C102.796 122.176 102.7 124.393 102.433 125.367L100.315 127.97L97.757 128.842L96.2942 127.946C92.3157 125.899 89.6131 122.716 88.7592 121.38C87.9394 120.098 89.5362 117.955 90.4371 117.044Z" fill="#F4C21B"/>
<path d="M83.637 128.016C83.637 128.016 84.9996 126.202 86.2673 126.214C87.4324 126.225 88.8272 127.782 88.8272 127.782L94.2404 132.073C95.9958 133.148 95.9001 135.365 95.6328 136.339L93.5149 138.942L90.9569 139.813L89.4941 138.917C85.5156 136.87 82.813 133.687 81.9591 132.352C81.1393 131.069 82.7361 128.927 83.637 128.016Z" fill="#F4C21B"/>
<path d="M76.9988 137.076C76.9988 137.076 78.3614 135.262 79.6291 135.274C80.7942 135.285 82.189 136.842 82.189 136.842L87.6022 141.133C89.3576 142.208 89.2619 144.425 88.9946 145.399L86.8767 148.003L84.3187 148.874L82.8559 147.978C78.8774 145.931 76.1748 142.748 75.3209 141.412C74.5011 140.13 76.0979 137.987 76.9988 137.076Z" fill="#F4C21B"/>
<path d="M71.5599 145.851C71.5599 145.851 72.9226 144.037 74.1903 144.049C75.3554 144.06 76.7501 145.617 76.7501 145.617L82.1634 149.908C83.9187 150.983 83.8231 153.2 83.5558 154.174L81.4379 156.777L78.8799 157.648L77.4171 156.752C73.4385 154.705 70.736 151.522 69.882 150.186C69.0622 148.904 70.6591 146.762 71.5599 145.851Z" fill="#F4C21B"/>
<path d="M24.8519 153.883L27.3454 149.86C27.7739 148.507 30.0115 149.138 31.0767 149.622L35.8195 153.536C38.9699 155.062 39.2909 157.849 39.0575 159.052C38.3321 160.222 35.8558 161.464 34.7083 161.939L29.8834 158.984C25.8422 156.912 24.8452 154.72 24.8519 153.883Z" fill="#F4C21B"/>
<path d="M20.7306 165.494L23.2241 161.471C23.6526 160.118 25.8902 160.749 26.9555 161.233L31.6982 165.148C34.8487 166.674 35.1696 169.461 34.9363 170.663C34.2109 171.834 31.7345 173.076 30.587 173.55L25.7622 170.595C21.7209 168.523 20.724 166.331 20.7306 165.494Z" fill="#F4C21B"/>
<path d="M42.6931 154.083L45.1866 150.06C45.6151 148.707 47.8527 149.338 48.9179 149.822L53.6606 153.736C56.8111 155.262 57.1321 158.049 56.8987 159.252C56.1733 160.423 53.697 161.665 52.5495 162.139L47.7246 159.184C43.6834 157.112 42.6864 154.92 42.6931 154.083Z" fill="#F4C21B"/>
<path d="M79.501 104.605L81.9945 100.581C82.423 99.2288 84.6606 99.8594 85.7259 100.344L90.4686 104.258C93.6191 105.784 93.94 108.571 93.7066 109.774C92.9813 110.944 90.5049 112.186 89.3574 112.661L84.5326 109.705C80.4913 107.634 79.4943 105.442 79.501 104.605Z" fill="#F4C21B"/>
<path d="M99.2471 47.0589L101.741 43.0353C102.169 41.6829 104.407 42.3135 105.472 42.7979L110.215 46.712C113.365 48.238 113.686 51.025 113.453 52.2278C112.727 53.3983 110.251 54.6401 109.104 55.1147L104.279 52.1594C100.237 50.0877 99.2404 47.8959 99.2471 47.0589Z" fill="#F4C21B"/>
<path d="M96.3262 108.85L98.8197 104.826C99.2482 103.474 101.486 104.105 102.551 104.589L107.294 108.503C110.444 110.029 110.765 112.816 110.532 114.019C109.806 115.189 107.33 116.431 106.183 116.906L101.358 113.95C97.3165 111.879 96.3195 109.687 96.3262 108.85Z" fill="#F4C21B"/>
<path fill-rule="evenodd" clip-rule="evenodd" d="M21.8756 172.366L41.2851 152.306C43.43 149.241 51.273 141.196 65.486 133.547L91.6019 118.396L100.572 109.183C108.692 103.127 125.793 89.7235 129.241 84.5619C132.572 79.199 141.024 68.5217 148.187 68.715L142.032 76.5816L133.98 92.8062L153.504 86.2628L163.148 87.9037L173.955 92.7139L174.288 105.86L165.064 112.932L168.526 104.491L164.513 100.157L139.647 114.045L131.918 116.012C122.84 122.837 103.027 138.611 96.4035 147.1C90.2107 157.602 72.7996 179.757 52.6969 184.369C49.6513 185.249 41.9128 186.546 35.3237 184.695L30.3788 181.793L26.3236 184.482L21.6954 186.315L12.8437 178.821L17.5612 170.865L18.6245 172.686L19.8361 173.575L21.8756 172.366Z" fill="#71B61D"/>
</svg>
