<svg width="196" height="196" viewBox="0 0 196 196" fill="none" xmlns="http://www.w3.org/2000/svg">
<path d="M65.6528 29.7001C50.6384 57.9943 64.3146 96.4924 73.0295 112.205L77.4807 117.208L92.9116 115.337L114.697 95.3054C128.54 85.2851 133.718 54.633 134.577 40.5595L127.503 14.0254C116.409 -2.27031 92.8364 2.50191 82.4368 6.92498L65.6528 29.7001Z" fill="#01A93A"/>
<path d="M76.9698 68.8541L76.145 98.5306L70.5724 114.73L57.4546 143.732L48.4751 173.464C45.3685 178.576 47.0669 183.712 48.3045 185.641L56.0645 190.502L65.792 189.459L73.8413 175.383L86.8106 135.666L95.3842 96.398L115.605 68.0158L116.924 61.9707L102.014 74.322L104.056 36.9949L87.9466 87.9885L80.4241 69.6083L79.7981 55.9004L76.9698 68.8541Z" fill="#D0E5B6"/>
<path d="M123.507 90.2977C99.726 105.255 92.0908 132.801 91.2457 144.705L100.293 146.562L120.174 129.629C127.666 126.143 144.671 103.713 151.579 94.4492L151.832 83.8735L144.318 82.3313C140.887 80.9831 129.014 87.0805 123.507 90.2977Z" fill="#0CBB48"/>
<path d="M82.2176 150.645L125.803 102.665L119.42 114.983L107.965 127.482L117.311 122.872L127.715 117.199L111.32 130.108L94.5955 150.036L79.7299 178.914C76.1699 187.03 66.7691 191.686 62.2633 193.363L54.5523 189.725L64.2627 177.031L82.2176 150.645Z" fill="#DFF0C9"/>
</svg>
