<svg width="137" height="137" viewBox="0 0 137 137" fill="none" xmlns="http://www.w3.org/2000/svg">
<path d="M36.1758 29.0949C33.7446 24.6569 37.0442 21.5235 38.9979 20.5115L34.7147 19.265L32.9711 20.5127C27.4961 22.6288 30.5124 32.5899 32.7049 37.306C34.4396 39.8228 33.6843 45.7645 33.0899 48.4208C32.1394 51.0573 31.0334 59.2878 30.5992 63.0735C29.9479 68.7521 31.8362 76.9249 32.4664 77.6323C32.9706 78.1982 34.1578 83.329 34.6884 85.8237L34.3709 91.5208L36.0236 85.8979L35.5801 81.8393C34.6464 79.367 35.1445 73.6351 35.5102 71.0782C37.0396 67.6671 36.9535 63.2026 36.7194 61.3967C36.3945 57.6136 37.4275 52.6958 37.9846 50.7098C41.6521 42.5769 38.3069 32.9111 36.1758 29.0949Z" fill="#F8F9F9"/>
<path d="M36.4193 22.7217L33.5542 20.0612L36.6889 17.8823C36.2894 15.4398 40.0844 13.0286 42.0319 12.1284C47.5218 9.74423 50.7227 12.3873 51.6369 14.0069C53.6536 16.2705 51.6477 17.8174 50.3927 18.3079L50.2994 19.9835L46.4597 22.7955C42.4244 23.1091 39.2401 22.1701 38.1524 21.6615L36.4193 22.7217Z" fill="#EDEF6A"/>
<path d="M47.3857 36.1658C45.4646 31.3234 51.0299 29.6521 54.0527 29.4217L53.8152 25.9258C49.1207 24.8581 44.8852 28.0251 43.3543 29.742C39.9409 33.9219 44.0376 41.3703 46.5126 44.5719C55.0731 56.4314 55.4657 66.112 54.5919 69.4698C51.8424 74.3515 52.8252 80.3114 53.6603 82.6812C54.4665 83.966 54.4124 92.4895 54.2846 96.5906C55.4224 95.1973 56.1799 86.6961 56.4164 82.6197L57.2452 75.9245C60.3147 70.8403 60.3506 65.7315 59.9848 63.8127C59.3668 53.2089 54.4995 45.1264 52.1431 42.4106C50.6967 41.531 48.3688 37.8809 47.3857 36.1658Z" fill="#F8F9FE"/>
<path d="M51.6465 29.8438L51.6609 26.7494L51.883 25.7673L55.2911 25.8541C54.781 23.2599 57.6071 21.6769 59.0838 21.2097C65.0107 19.2535 68.192 22.3634 69.0418 24.1629C71.0575 27.3748 68.4399 28.8446 66.8791 29.178L66.5089 30.8147C64.9565 34.0411 60.5178 32.5498 58.4926 31.4008C55.4814 30.1653 52.6739 29.848 51.6465 29.8438Z" fill="#F1F467"/>
<path d="M75.1098 28.5339L78.1642 26.2971L81.586 27.0221C81.5385 27.8751 80.4151 28.9179 79.8593 29.3327C76.9672 31.5251 75.7119 35.2524 75.4458 36.842L73.7023 44.2324C72.4263 48.012 74.5049 53.7252 75.7037 56.1093C78.1441 62.0209 77.395 68.7712 76.7155 71.4075C76.3248 74.5946 77.7991 79.0441 78.5851 80.8705C75.8372 76.6532 74.1489 71.2648 73.6482 69.0978C74.0626 65.4841 71.6808 58.2032 70.4381 55.0144C68.0913 51.2473 68.8241 45.7439 69.4839 43.4631L71.5672 34.7546C71.946 31.7808 74.0868 29.3684 75.1098 28.5339Z" fill="#FBFBFD"/>
<path d="M78.6759 24.1999L77.7308 26.8214L80.8426 28.3313C81.95 27.5766 82.6791 24.0517 82.7782 22.2745C82.8391 17.3577 80.3718 12.885 79.389 11.4042L77.2649 11.2861L75.8631 12.5452L75.9671 10.6792L73.8727 10.028C71.5481 9.68488 70.8382 11.9094 70.7738 13.0646L71.303 17.9072C72.7289 22.9067 76.8124 24.1854 78.6759 24.1999Z" fill="#EFEF73"/>
<path d="M74.1181 52.4784C72.0898 47.8429 75.6542 45.0135 77.6899 44.1782L73.5341 42.5579L71.6867 43.6466C66.0456 45.2703 68.167 55.459 69.9329 60.3504C71.4377 63.0107 70.1587 68.8623 69.3311 71.4556C68.1507 73.9977 66.3194 82.0981 65.5514 85.8306C64.3993 91.4292 65.5556 99.737 66.1207 100.497C66.5727 101.105 67.3005 106.321 67.6078 108.853L66.7866 114.5L68.9312 109.045L68.8492 104.963C68.1384 102.418 69.1425 96.7526 69.7335 94.238C71.5592 90.9756 71.8693 86.5209 71.7961 84.7014C71.8078 80.9045 73.2727 76.0974 74.0037 74.1684C78.3777 66.3916 75.9025 56.4681 74.1181 52.4784Z" fill="#F8F9F9"/>
<path d="M74.9255 46.1503L72.3075 43.247L75.6231 41.3538C75.4416 38.8855 79.4355 36.8194 81.4551 36.0948C87.1348 34.2054 90.0888 37.1212 90.8559 38.8152C92.664 41.2481 90.5289 42.6116 89.2353 42.9893L88.9938 44.6501L84.9199 47.1116C80.8727 47.0671 77.7842 45.8503 76.7458 45.2475L74.9255 46.1503Z" fill="#EDEF6A"/>
<path d="M84.6575 60.5093C83.1732 55.5159 88.8649 54.3432 91.8962 54.3811L91.9695 50.8779C87.3881 49.3994 82.8885 52.1794 81.2114 53.7542C77.4408 57.616 80.8612 65.3972 83.0427 68.8051C90.5183 81.3749 90.0512 91.0522 88.8832 94.3196C85.7118 98.939 86.1624 104.962 86.7841 107.397C87.4733 108.748 86.6639 117.233 86.173 121.307C87.4298 120.019 88.9379 111.619 89.5348 107.579L90.9539 100.983C94.4621 96.1906 94.9506 91.1051 94.7564 89.1614C95.0808 78.5447 90.9491 70.0636 88.8426 67.1501C87.48 66.1461 85.4848 62.3045 84.6575 60.5093Z" fill="#F8F9FE"/>
<path d="M89.4618 54.5901L89.7504 51.5091L90.0587 50.5505L93.4457 50.9383C93.1676 48.3092 96.1229 46.9823 97.6352 46.6475C103.712 45.2229 106.605 48.6019 107.292 50.4694C109.015 53.847 106.278 55.0795 104.694 55.2736L104.18 56.8712C102.347 59.9477 98.0584 58.0698 96.1429 56.7463C93.2531 55.2493 90.4847 54.6851 89.4618 54.5901Z" fill="#F1F467"/>
<path d="M112.949 55.3613L116.19 53.4033L119.534 54.428C119.411 55.2734 118.2 56.2128 117.609 56.5769C114.534 58.5049 112.953 62.1067 112.547 63.6665L110.156 70.8737C108.55 74.5257 110.114 80.4002 111.096 82.8809C113.003 88.985 111.659 95.6427 110.748 98.2085C110.076 101.349 111.15 105.911 111.771 107.8C109.408 103.356 108.204 97.8395 107.898 95.6367C108.631 92.0739 106.904 84.6109 105.948 81.3248C103.945 77.365 105.163 71.948 106.022 69.7345L108.869 61.2444C109.51 58.3157 111.856 56.102 112.949 55.3613Z" fill="#FBFBFD"/>
<path d="M116.885 51.3596L115.712 53.8872L118.678 55.6663C119.847 55.0125 120.886 51.5659 121.142 49.8045C121.639 44.9124 119.578 40.239 118.73 38.6771L116.625 38.3718L115.117 39.502L115.386 37.6524L113.357 36.8187C111.072 36.2714 110.168 38.4244 110.002 39.5693L110.099 44.4398C111.076 49.5457 115.031 51.1804 116.885 51.3596Z" fill="#EFEF73"/>
<path d="M55.1825 39.6017C52.7513 35.1637 56.0509 32.0303 58.0046 31.0184L53.7215 29.7718L51.9778 31.0195C46.5028 33.1356 49.5191 43.0968 51.7116 47.8129C53.4463 50.3297 52.6911 56.2714 52.0966 58.9276C51.1461 61.5641 50.0401 69.7946 49.6059 73.5803C48.9546 79.2589 50.8429 87.4318 51.4731 88.1391C51.9773 88.705 53.1645 93.8358 53.6951 96.3305L53.3776 102.028L55.0303 96.4047L54.5868 92.3461C53.6532 89.8739 54.1512 84.142 54.5169 81.5851C56.0463 78.174 55.9603 73.7094 55.7261 71.9035C55.4012 68.1205 56.4342 63.2027 56.9913 61.2167C60.6588 53.0837 57.3136 43.418 55.1825 39.6017Z" fill="#F8F9F9"/>
<path d="M55.4258 33.2275L52.5607 30.5671L55.6955 28.3882C55.2959 25.9456 59.0909 23.5345 61.0384 22.6342C66.5284 20.2501 69.7292 22.8932 70.6434 24.5128C72.6601 26.7763 70.6543 28.3232 69.3993 28.8137L69.3059 30.4894L65.4662 33.3014C61.4309 33.615 58.2467 32.676 57.159 32.1673L55.4258 33.2275Z" fill="#EDEF6A"/>
<path d="M66.3924 46.6658C64.4713 41.8234 70.0367 40.1521 73.0595 39.9217L72.8219 36.4258C68.1274 35.3581 63.892 38.5251 62.361 40.242C58.9476 44.4219 63.0443 51.8703 65.5193 55.0719C74.0798 66.9314 74.4724 76.612 73.5986 79.9698C70.8491 84.8515 71.8319 90.8114 72.667 93.1812C73.4732 94.466 73.4191 102.989 73.2913 107.091C74.4291 105.697 75.1866 97.1961 75.4231 93.1197L76.2519 86.4245C79.3214 81.3403 79.3573 76.2315 78.9915 74.3127C78.3735 63.7089 73.5062 55.6264 71.1498 52.9106C69.7034 52.031 67.3756 48.3809 66.3924 46.6658Z" fill="#F8F9FE"/>
<path d="M70.653 40.3447L70.6674 37.2503L70.8895 36.2683L74.2976 36.3551C73.7875 33.7609 76.6135 32.1779 78.0903 31.7107C84.0172 29.7545 87.1985 32.8644 88.0483 34.6638C90.064 37.8758 87.4464 39.3455 85.8856 39.6789L85.5154 41.3157C83.963 44.5421 79.5243 43.0508 77.499 41.9018C74.4879 40.6662 71.6804 40.3489 70.653 40.3447Z" fill="#F1F467"/>
<path d="M94.1166 39.0339L97.1709 36.7971L100.593 37.5221C100.545 38.3751 99.4218 39.4179 98.866 39.8327C95.974 42.0251 94.7187 45.7524 94.4525 47.342L92.709 54.7324C91.4331 58.512 93.5117 64.2252 94.7104 66.6093C97.1508 72.5209 96.4018 79.2712 95.7222 81.9075C95.3315 85.0946 96.8058 89.5441 97.5918 91.3705C94.8439 87.1532 93.1556 81.7648 92.6549 79.5978C93.0694 75.9841 90.6876 68.7032 89.4448 65.5144C87.098 61.7473 87.8308 56.2439 88.4906 53.9631L90.5739 45.2546C90.9527 42.2808 93.0935 39.8684 94.1166 39.0339Z" fill="#FBFBFD"/>
<path d="M97.6826 34.7019L96.7376 37.3233L99.8494 38.8333C100.957 38.0785 101.686 34.5537 101.785 32.7765C101.846 27.8597 99.3786 23.3869 98.3958 21.9061L96.2717 21.7881L94.8698 23.0472L94.9738 21.1811L92.8795 20.53C90.5549 20.1868 89.845 22.4114 89.7806 23.5665L90.3097 28.4092C91.7356 33.4086 95.8191 34.6874 97.6826 34.7019Z" fill="#EFEF73"/>
<path d="M61.8536 51.5075C64.089 46.968 60.6559 43.9811 58.6599 43.055L62.8847 41.6234L64.681 42.7941C70.2431 44.67 67.6641 54.7529 65.6794 59.5599C64.0561 62.1497 65.0697 68.053 65.7794 70.6809C66.844 73.2735 68.3079 81.4481 68.9067 85.2113C69.805 90.8562 68.275 99.1034 67.6762 99.8375C67.1972 100.425 66.2348 105.602 65.8135 108.118L66.3792 113.796L64.4829 108.25L64.749 104.176C65.5739 101.665 64.8264 95.9606 64.3495 93.422C62.6728 90.0807 62.5641 85.6167 62.7193 83.8023C62.8789 80.0087 61.6324 75.1405 60.9892 73.1806C56.9705 65.2149 59.891 55.4128 61.8536 51.5075Z" fill="#F8F9F9"/>
<path d="M61.3326 45.1484L64.0789 42.3659L60.8521 40.3254C61.1448 37.8678 57.2482 35.624 55.2633 34.8093C49.6746 32.6662 46.592 35.446 45.7493 37.1038C43.8333 39.4529 45.9047 40.9111 47.1799 41.3466L47.3462 43.0165L51.3049 45.6589C55.3501 45.7967 58.4903 44.7201 59.5548 44.1646L61.3326 45.1484Z" fill="#EDEF6A"/>
<path d="M50.9625 59.0588C52.6706 54.1373 47.0376 52.7097 44.0076 52.611L44.0925 49.1081C48.736 47.8373 53.1055 50.817 54.7099 52.4657C58.3024 56.4932 54.5344 64.1126 52.2013 67.4189C44.1661 79.6395 44.1961 89.328 45.2155 92.6446C48.1753 97.4021 47.4533 103.399 46.7224 105.803C45.9729 107.122 46.3987 115.635 46.7052 119.726C45.5077 118.384 44.3803 109.924 43.9662 105.861L42.8462 99.2085C39.5578 94.2627 39.2993 89.1603 39.581 87.2274C39.7359 76.6068 44.2462 68.3203 46.4819 65.5046C47.8885 64.5629 50.055 60.815 50.9625 59.0588Z" fill="#F8F9FE"/>
<path d="M46.4301 52.9278L46.2808 49.8369L46.016 48.8655L42.6149 49.1004C43.0114 46.4865 40.1191 45.0279 38.6233 44.6254C32.6168 42.9288 29.5741 46.1741 28.8035 48.0089C26.9298 51.3054 29.6091 52.6599 31.1829 52.9251L31.6241 54.5442C33.3158 57.7001 37.6852 56.0171 39.6584 54.7811C42.6129 53.4157 45.4039 52.9766 46.4301 52.9278Z" fill="#F1F467"/>
<path d="M22.932 52.6406L19.783 50.5387L16.396 51.4119C16.4807 52.262 17.6485 53.255 18.2219 53.6452C21.2068 55.7097 22.6234 59.3789 22.9586 60.9554L25.0228 68.2629C26.4624 71.9835 24.6349 77.7817 23.5412 80.2157C21.3609 86.2277 22.4037 92.9391 23.1976 95.5433C23.7269 98.7104 22.448 103.22 21.7424 105.079C24.3038 100.746 25.7555 95.2891 26.1612 93.1024C25.5896 89.5102 27.6516 82.1326 28.7541 78.8928C30.9344 75.0272 29.9623 69.5609 29.2037 67.3109L26.7426 58.7013C26.2344 55.7468 23.9904 53.4298 22.932 52.6406Z" fill="#FBFBFD"/>
<path d="M19.1801 48.4656L20.2387 51.0435L17.1956 52.6873C16.0564 51.9814 15.1742 48.4916 14.9978 46.7205C14.7225 41.811 16.9924 37.2351 17.9097 35.713L20.0266 35.5027L21.482 36.6996L21.2967 34.8398L23.3607 34.0982C25.6682 33.6543 26.4744 35.8458 26.5891 36.9971L26.2717 41.8582C25.0651 46.9149 21.0413 48.3701 19.1801 48.4656Z" fill="#EFEF73"/>
<path d="M45.5971 65.9308C43.1659 61.4928 46.4655 58.3594 48.4191 57.3475L44.136 56.1009L42.3924 57.3486C36.9174 59.4647 39.9336 69.4259 42.1261 74.142C43.8608 76.6588 43.1056 82.6005 42.5112 85.2567C41.5607 87.8932 40.4547 96.1237 40.0205 99.9094C39.3692 105.588 41.2574 113.761 41.8877 114.468C42.3918 115.034 43.5791 120.165 44.1097 122.66L43.7922 128.357L45.4448 122.734L45.0014 118.675C44.0677 116.203 44.5657 110.471 44.9315 107.914C46.4608 104.503 46.3748 100.039 46.1406 98.2326C45.8157 94.4496 46.8487 89.5318 47.4059 87.5458C51.0734 79.4128 47.7281 69.7471 45.5971 65.9308Z" fill="#F8F9F9"/>
<path d="M45.8403 59.5576L42.9752 56.8972L46.11 54.7183C45.7104 52.2757 49.5054 49.8646 51.4529 48.9643C56.9428 46.5802 60.1437 49.2233 61.0579 50.8429C63.0746 53.1064 61.0688 54.6533 59.8138 55.1438L59.7204 56.8194L55.8807 59.6315C51.8454 59.945 48.6612 59.0061 47.5734 58.4974L45.8403 59.5576Z" fill="#EDEF6A"/>
<path d="M83.1133 66.7605L86.1676 64.5236L89.5895 65.2486C89.5419 66.1017 88.4185 67.1445 87.8627 67.5593C84.9707 69.7516 83.7154 73.479 83.4492 75.0686L81.7057 82.4589C80.4297 86.2386 82.5083 91.9518 83.7071 94.3359C86.1475 100.247 85.3985 106.998 84.7189 109.634C84.3282 112.821 85.8025 117.271 86.5885 119.097C83.8406 114.88 82.1523 109.491 81.6516 107.324C82.0661 103.711 79.6842 96.4298 78.4415 93.241C76.0947 89.4739 76.8275 83.9705 77.4873 81.6897L79.5706 72.9812C79.9494 70.0074 82.0902 67.5949 83.1133 66.7605Z" fill="#FBFBFD"/>
<path d="M86.6793 62.4274L85.7342 65.0489L88.8461 66.5589C89.9535 65.8041 90.6826 62.2793 90.7816 60.5021C90.8425 55.5853 88.3752 51.1125 87.3924 49.6317L85.2683 49.5137L83.8665 50.7727L83.9705 48.9067L81.8761 48.2556C79.5515 47.9124 78.8416 50.137 78.7773 51.2921L79.3064 56.1348C80.7323 61.1342 84.8158 62.413 86.6793 62.4274Z" fill="#EFEF73"/>
<path d="M56.5544 69.8553C54.6333 65.0128 60.1986 63.3415 63.2215 63.1112L62.9839 59.6153C58.2894 58.5476 54.0539 61.7145 52.523 63.4315C49.1096 67.6114 53.2063 75.0597 55.6813 78.2614C64.2418 90.1209 64.6344 99.8014 63.7606 103.159C61.0111 108.041 61.9939 114.001 62.829 116.371C63.6352 117.655 63.5811 126.179 63.4533 130.28C64.5911 128.887 65.3486 120.386 65.5851 116.309L66.4139 109.614C69.4834 104.53 69.5193 99.421 69.1535 97.5021C68.5355 86.8983 63.6682 78.8158 61.3118 76.1001C59.8654 75.2204 57.5375 71.5704 56.5544 69.8553Z" fill="#F8F9FE"/>
<path d="M60.8152 63.5352L60.8296 60.4408L61.0517 59.4587L64.4598 59.5455C63.9497 56.9514 66.7758 55.3683 68.2525 54.9011C74.1794 52.9449 77.3607 56.0548 78.2105 57.8543C80.2262 61.0662 77.6086 62.536 76.0478 62.8694L75.6776 64.5061C74.1252 67.7326 69.6865 66.2412 67.6613 65.0922C64.6501 63.8567 61.8426 63.5394 60.8152 63.5352Z" fill="#F1F467"/>
</svg>
