<svg width="104" height="105" viewBox="0 0 104 105" fill="none" xmlns="http://www.w3.org/2000/svg">
<path d="M7.83887 44.9685C6.93982 34.1798 16.7046 25.4889 21.6994 22.492C28.5922 16.3769 36.3091 14.4498 39.3059 14.2506C48.2965 9.75534 61.2829 12.3776 66.6523 14.2506L78.6398 19.8698C94.8228 27.3619 98.6189 49.4638 98.494 59.5782C97.5949 69.7675 91.8759 80.3065 89.1288 84.3023L78.6398 91.0453C68.1507 100.935 57.5369 103.407 53.541 103.407C34.0614 104.306 22.1989 95.5406 18.7025 91.0453C2.21977 74.2628 4.59228 53.3347 7.83887 44.9685Z" fill="#CD3B2E"/>
<path d="M27.244 31.6227L41.1045 29.7496C39.3064 29.7496 35.1108 23.2563 34.3616 20.0097V14.016L28.3678 7.64763L38.1076 14.016V17.762L41.1045 21.1335L46.349 25.2545L45.2252 15.5144L41.1045 9.14606L42.6029 1.2793V7.64763L45.2252 11.3937L49.7205 18.5113L52.7173 22.6321L56.838 18.5113V14.016V6.1492L59.4603 2.40312V4.27616V12.8921L61.3333 18.5113L56.838 25.2545C61.633 22.5574 65.8286 22.3824 67.3271 22.6321C71.223 22.0327 73.1959 26.3781 73.6954 28.6258C71.8973 31.323 72.9462 37.2418 73.6954 39.864C70.3239 40.2386 71.0731 31.6227 70.6985 29.7496C70.3988 28.2512 66.3281 26.8776 64.3302 26.3781L55.7142 28.6258V29.7496C59.6101 30.6487 61.8328 34.8693 62.4572 36.8672V41.7371C63.3562 45.633 66.8276 47.8557 68.4509 48.48L64.3302 47.3562L54.2158 34.6195H50.8443V44.7339L54.2158 50.7277L61.3333 54.0991H54.2158L44.1014 44.7339V35.3686C42.0036 36.2677 38.1076 35.7433 35.86 34.6195L27.244 35.3686C25.1463 35.968 21.8747 39.6143 20.5011 41.7371C20.2014 37.8411 24.8715 33.3708 27.244 31.6227Z" fill="#043A3B"/>
</svg>
