<svg width="148" height="149" viewBox="0 0 148 149" fill="none" xmlns="http://www.w3.org/2000/svg">
<path fill-rule="evenodd" clip-rule="evenodd" d="M66.6632 8.25718C66.4473 5.61812 67.578 0.326794 73.828 0.273989C76.7417 0.0620922 82.3007 1.10704 81.2262 6.98202C81.1247 7.97143 79.9099 9.84999 75.8629 9.44893L74.8877 9.542L75.3222 15.5633C75.45 15.5235 75.5825 15.4968 75.7196 15.4851C76.5745 14.3332 78.7872 12.5722 80.7991 14.743C80.9703 14.8208 81.1569 14.9144 81.3528 15.0227C82.1539 14.085 83.4147 13.4078 85.3411 13.4855C87.3651 13.4368 91.1753 14.35 90.2245 18.3917C90.1193 19.0751 89.2124 20.338 86.4258 19.9228L86.2684 19.9302V47.0477L88.8003 33.8254L91.8324 12.945L89.3687 12.5034C88.5352 12.5034 86.8088 11.9084 86.5716 9.52833C87.1245 6.44885 90.0319 0.775277 97.2377 2.71678C100.654 3.40829 106.731 6.38066 103.712 12.738C103.294 13.8341 101.326 15.5878 96.7927 13.8342L96.7334 13.8236L92.345 42.4708V64.8471L97.4088 49.5905L102.379 30.9848C100.813 30.8449 98.639 29.9849 99.3258 27.282C99.8904 25.9918 101.495 23.4815 103.398 23.7624C104.528 22.7987 107.199 21.5462 108.846 24.2454C110.387 25.3928 113.082 28.3229 111.539 30.8648C110.896 31.9239 109.11 33.7135 107.111 32.3994C106.976 32.3384 106.822 32.2701 106.654 32.1975L97.4088 68.407L99.4343 102.989V148.25H52.3409V140.622L54.8728 102.989L52.3409 71.9669L48.7962 55.6932L43.2261 28.7398V16.6323C42.6971 16.7986 42.2747 16.9727 42.0737 17.1424C40.5876 18.192 37.3183 19.3877 36.1295 15.7733C35.8593 14.0848 35.8323 10.4613 37.8857 9.4756C38.3811 7.74144 40.2094 4.68385 43.5597 6.32674C45.8113 6.46365 50.3414 7.64107 50.4495 11.2554C50.4945 12.7614 49.8821 15.7733 47.0721 15.7733C46.5956 15.8512 45.9375 15.9717 45.2516 16.1183V26.7056L52.3409 53.6589V32.9514C51.3444 32.7169 49.8664 31.9324 48.3277 29.9372C48.0269 27.7432 49.1399 23.6842 55.9983 25.0007C56.9911 25.2381 58.3419 25.7551 59.4302 26.5712V21.0015C59.2372 20.9775 59.0768 20.9727 58.962 20.993C57.4366 21.1291 54.5425 20.6179 55.1691 17.4852C55.6711 16.1421 57.1538 13.4936 59.0689 13.6437C60.1514 12.5909 62.7605 11.1381 64.537 13.7493C66.1319 14.8003 68.9669 17.5713 67.5475 20.2474C66.956 21.3625 65.2578 23.2958 63.1965 22.1085C63.1273 22.0824 63.0532 22.0547 62.9749 22.0258V27.2153C63.4544 25.4545 64.8211 23.5282 67.999 23.6564C68.8684 23.6355 70.0673 23.7921 71.077 24.2979V9.9057L69.5679 10.0497C68.8933 10.2392 67.3679 10.1458 66.6632 8.25718ZM62.9749 29.4563V50.0991L64.494 71.9669H66.5196V30.2134L64.7061 30.2981C64.3002 30.3912 63.4693 30.3191 62.9749 29.4563ZM69.5578 30.1502V67.3899L71.077 64.8471V30.0831C70.6609 30.1708 70.1592 30.2028 69.5578 30.1502ZM55.8856 33.4547C57.4014 33.5153 58.5776 33.1742 59.4302 32.7114V62.8129V71.9669L55.8856 57.2188V33.4547ZM80.7304 22.773C81.505 23.0694 82.1718 22.9668 82.7237 22.6629V59.253L80.6982 49.5905V22.7665L80.7304 22.773ZM76.6518 22.3802C76.6789 22.3706 76.7091 22.3621 76.7422 22.3547L77.1536 40.9451L75.8241 22.5195C76.1261 22.4941 76.4095 22.4431 76.6518 22.3802Z" fill="#FCF5E2"/>
</svg>
