<svg width="148" height="149" viewBox="0 0 148 149" fill="none" xmlns="http://www.w3.org/2000/svg">
<path d="M29.7612 79.2173L60.7876 70.3449L85.677 72.3923H100.338C118.067 78.9442 129.546 75.1223 133.069 72.3923C139.888 66.9323 139.32 55.7851 138.183 50.894C123.454 19.4994 90.6776 12.3333 76.1304 12.6745C70.4024 13.2205 63.5152 17.2244 60.7876 19.1582C55.3325 18.0662 43.0582 21.4331 37.603 23.2531C28.0564 26.802 15.4413 44.979 10.327 53.6239C8.14494 56.6269 9.41782 66.0225 10.327 70.3449C13.8729 73.6209 24.7606 77.6248 29.7612 79.2173Z" fill="#AB897D"/>
<path d="M65.3791 89.9821C64.8336 78.7892 61.2877 66.8911 59.583 62.3412C69.4023 61.5222 80.04 63.5924 84.1314 64.7299L88.5637 70.8723L87.5409 75.6498C87.2681 89.8456 95.1554 97.0345 99.1332 98.8544C112.226 102.676 119.136 111.594 120.954 115.575C123.136 124.038 118.681 132.296 116.181 135.368C112.908 136.733 99.3605 134.799 92.9961 133.661C88.9047 132.842 85.3815 130.818 84.1314 129.908C69.9478 118.169 65.7201 98.3994 65.3791 89.9821Z" fill="#D9CDCF"/>
</svg>
